<svg width="185" height="30" viewBox="0 0 185 30" fill="none" xmlns="http://www.w3.org/2000/svg">
<g clip-path="url(#clip0_101_68)">
<mask id="mask0_101_68" style="mask-type:luminance" maskUnits="userSpaceOnUse" x="0" y="0" width="185" height="30">
<path d="M184.422 0H0V30H184.422V0Z" fill="white"/>
</mask>
<g mask="url(#mask0_101_68)">
<path d="M65.8407 6.58964C63.2511 5.6255 61.9124 4.39841 61.2272 3.18725C60.5658 2.00797 60.6694 0.653388 61.514 0.486057C62.3985 0.30279 63.1156 1.05179 63.4105 1.73705C63.5937 0.725101 64.2391 0.653388 64.4941 0.725101C65.0041 0.852591 65.3626 1.39442 65.2192 2.7012C65.0997 3.80877 64.8049 4.80478 65.8328 6.59761" fill="#B71B30"/>
<path d="M85.3386 12.247L85.4342 11.4422C84.2788 8.24698 79.5776 6.73304 74.9561 7.77686C75.7609 6.85256 75.7848 5.52985 75.1553 4.74101C74.8047 4.30276 73.6972 4.03184 72.3107 4.52587C71.0756 4.96411 70.4541 6.35057 70.9322 7.47407C71.0597 7.7689 71.2749 8.03981 71.5537 8.26292C67.7928 8.1434 61.6015 6.52587 59.992 2.87646C59.992 2.87646 59.8884 3.22706 60.0318 3.98403C60.9721 9.02786 68.4701 12.3824 71.1235 14.3824C71.7529 14.8605 71.8725 15.6733 71.6733 16.3665C71.5936 16.5976 71.482 16.8366 71.3306 17.0677C71.3147 17.0836 71.3067 17.1075 71.2908 17.1314C70.9322 17.6812 70.4143 18.2231 69.8884 18.733C67.8645 20.6773 63.8964 22.5816 60.0478 29.992C60.0478 29.992 71.3067 28.494 74.6374 19.9362C74.3824 25.8087 79.5219 27.7211 79.5219 27.7211C83.5219 20.9641 77.9203 17.6972 77.3386 15.5378C76.2868 11.7928 79.4581 7.82467 85.3466 12.239" fill="#00743C"/>
<path d="M113.036 8.09557H117.904V9.96808H117.96C118.375 9.23501 119.506 7.48999 122.773 7.48999C124.319 7.48999 126.414 8.03182 127.785 10.6374C128.861 8.92425 130.653 7.48999 133.323 7.48999C134.55 7.48999 136.494 7.77684 137.896 9.26688C139.522 11.0119 139.769 12.1912 139.745 16.1035L139.705 25.729H134.494L134.534 16.3585C134.534 14.9322 134.55 12.4462 131.881 12.4462C128.996 12.4462 128.98 15.1155 128.972 16.1035L128.932 25.729H123.721L123.761 16.1274C123.761 15.1792 123.777 12.4462 121.171 12.4462C118.223 12.4462 118.207 15.3067 118.199 16.3585L118.159 25.729H112.948L113.02 8.0876L113.036 8.09557Z" fill="#B71B30"/>
<path d="M151.354 21.4103C154.621 21.4103 155.729 18.6135 155.737 16.9003C155.745 14.7729 154.311 12.4143 151.362 12.4143C148.414 12.4143 147.052 14.9561 147.044 16.9561C147.036 18.6055 148.215 21.4023 151.354 21.4023M160.908 25.729H155.697V23.8247H155.641C154.757 25.5458 152.582 26.3346 150.542 26.3346C145.02 26.3346 141.801 21.9521 141.825 16.9003C141.856 11.1155 145.976 7.48999 150.621 7.48999C153.482 7.48999 155.076 8.89238 155.697 9.96808H155.761V8.09557H160.98L160.908 25.737V25.729Z" fill="#B71B30"/>
<path d="M96.4781 21.4103C99.745 21.4103 100.853 18.6135 100.861 16.9003C100.869 14.7729 99.4343 12.4143 96.4861 12.4143C93.5379 12.4143 92.1753 14.9561 92.1673 16.9561C92.1673 18.6055 93.3387 21.4023 96.4781 21.4023M106.032 25.729H100.821V23.8247H100.765C99.8805 25.5458 97.7132 26.3346 95.6733 26.3346C90.1514 26.3346 86.9323 21.9521 86.9562 16.9003C86.9801 11.1155 91.1076 7.48999 95.753 7.48999C98.6056 7.48999 100.207 8.89238 100.829 9.96808H100.892V8.09557H106.112L106.04 25.737L106.032 25.729Z" fill="#B71B30"/>
<path d="M181.514 8.09564L181.53 4.11157H176.319L176.303 8.35062C172.765 8.6295 170.271 9.84066 168.606 11.9124L168.55 8.09564H163.657L163.578 25.7371H168.789L168.829 20.6215C168.853 20.1434 169.355 13.992 176.287 13.1474L176.239 25.745H181.45L181.514 12.9482H184.414L184.43 8.1036H181.53L181.514 8.09564Z" fill="#B71B30"/>
<path d="M111.729 23.4581C111.729 24.7171 110.717 25.745 109.474 25.745C108.231 25.745 107.211 24.7251 107.211 23.4581C107.211 22.1912 108.223 21.1713 109.474 21.1713C110.725 21.1713 111.729 22.1912 111.729 23.4581Z" fill="#B71B30"/>
<path d="M57.2351 0H0V29.6175H57.2351V0Z" fill="#B71B30"/>
<path d="M29.6333 3.63352V8.64547C29.6333 9.81678 30.5736 10.757 31.729 10.757H52.6453C53.8086 10.757 54.7409 9.80881 54.7409 8.64547V3.63352H29.6254H29.6333ZM37.3545 8.99606H35.6413C34.8923 8.99606 34.2867 8.38252 34.2867 7.61758V5.5618H37.3545V9.00403V8.99606ZM43.7768 8.99606H40.4381V5.55383H43.7768V8.99606ZM50.4939 7.61758C50.4939 8.38252 49.8883 8.99606 49.1393 8.99606H46.8525V5.55383H50.4939V7.60961V7.61758ZM30.4381 19.9921C30.4381 22.1993 32.1194 24.008 34.2549 24.1993C33.9521 24.6534 32.9242 26.1355 31.7529 27.012H36.1433C37.0198 26.51 38.3584 25.5698 39.0676 24.2152H45.1393C45.9839 25.4981 47.1871 26.502 48.0636 27.012H52.4541C51.2827 26.1275 50.2389 24.6295 49.9521 24.1913C52.0397 23.9522 53.6652 22.1674 53.6652 19.9921V11.8805H30.4381V19.9921ZM35.1393 14.0718H49.1951L49.1871 15.4821H35.1393V14.0718ZM35.1393 17.4263H49.1951L49.1871 18.8367H35.1393V17.4263ZM49.1393 20.757C49.1393 21.5299 48.478 22.1594 47.2031 22.1594H37.0198C35.7449 22.1594 35.0835 21.5299 35.0835 20.757H49.1314H49.1393ZM24.5098 4.95622C24.9561 4.90045 25.3863 4.84467 25.8007 4.78093C25.7051 4.77296 25.0676 2.51001 25.0676 2.51001C18.4381 3.49806 4.65326 3.52993 4.65326 3.52993V3.55383H4.52577L5.70506 8.07973H2.33454V14.1116H4.82856C4.36641 16.0638 3.51382 18.0797 2.3186 19.769H4.70107L5.09948 20.3746C6.22299 22.0797 7.98394 23.769 10.3983 24.7491C8.35844 25.0917 6.18315 25.3148 4.03175 25.4024V27.0837C7.62538 27.0837 11.4262 26.7889 14.8365 26.0797C18.1592 26.7969 21.8963 27.0837 25.4899 27.0837L26.2628 25.4024C23.9521 25.3068 21.6652 25.0757 19.5377 24.7012C22.6453 23.7052 25.3943 21.3148 25.9361 18.4144H25.9441L6.24689 18.4064C6.57358 17.761 7.16323 16.502 7.58554 14.9961C8.55765 16.9403 9.1951 17.2112 11.3465 17.2112L24.6772 17.1953L25.5218 15.012H22.1752L20.9242 10.9961H17.9521L19.2031 15.0279H16.5656L15.3146 10.9961H12.3425L13.6015 15.0518H12.717C10.7887 15.0518 10.1911 13.6654 9.80068 10.9084L6.56562 10.8606V9.97615H23.1792V14.1196H27.5138V8.0877H23.6094L24.5098 4.97216V4.95622ZM20.7808 20.3028C19.7768 21.6654 17.7369 22.773 15.1314 23.6096C12.6134 22.7889 10.6055 21.6893 9.48195 20.3028H20.7887H20.7808ZM9.36243 8.07176L8.67717 5.72116C9.84848 5.7132 11.7051 5.69726 12.8764 5.66539L13.5776 8.07176H9.3704H9.36243ZM20.231 8.07176H16.8604L16.1353 5.55383C17.5457 5.49806 19.6015 5.41838 21.0278 5.32276L20.231 8.07176Z" fill="white"/>
</g>
</g>
<defs>
<clipPath id="clip0_101_68">
<rect width="184.422" height="30" fill="white"/>
</clipPath>
</defs>
</svg>
