<svg width="175" height="44" viewBox="0 0 175 44" fill="none" xmlns="http://www.w3.org/2000/svg">
<g clip-path="url(#clip0_101_48)">
<mask id="mask0_101_48" style="mask-type:luminance" maskUnits="userSpaceOnUse" x="0" y="0" width="175" height="44">
<path d="M174.822 0H0V44H174.822V0Z" fill="white"/>
</mask>
<g mask="url(#mask0_101_48)">
<path d="M14.3846 14.9487C14.3846 13.8601 14.8646 12.9793 15.6712 12.3855C16.4777 11.7917 17.601 11.475 18.9123 11.475C19.7287 11.475 20.57 11.6234 21.1489 11.8758V10.6536C21.1291 9.42146 20.664 8.7287 19.2834 8.70891C19.0261 8.70891 18.4471 8.77818 17.9721 8.93653C18.0166 9.11467 18.0463 9.2928 18.0463 9.47094C18.0463 9.88165 17.9177 10.2627 17.6653 10.5398C17.4179 10.8169 17.0517 10.9901 16.6064 10.9901C15.8097 10.9901 15.211 10.3418 15.206 9.53032C15.2258 8.03594 17.0369 7.03144 19.4566 7.03144C21.3765 7.03144 22.5839 7.48668 23.2272 8.31305C23.8111 9.05529 23.8408 10.1439 23.8408 11.6729V15.6612C23.8507 16.4332 24.291 16.6459 25.251 16.7944L25.3599 16.8092V16.923C25.2955 17.977 24.5236 18.4125 23.6874 18.4768C23.6131 18.4817 23.5439 18.4867 23.4696 18.4867C22.6532 18.4867 21.8614 18.0859 21.4854 17.2694C20.9708 17.7049 19.8079 18.5114 18.3086 18.5114C16.0769 18.5114 14.3797 17.0022 14.3747 14.9388M82.9181 17.9919C82.7202 17.7148 82.6113 17.3585 82.5173 16.9527C82.4085 17.0764 82.2749 17.215 82.0769 17.403C81.3446 18.0859 80.3945 18.5015 79.3207 18.4966C78.148 18.4966 77.1485 18.0463 76.5151 17.2991C75.5353 16.1313 75.5452 14.6567 75.5452 12.5537V10.5299C75.5254 9.71341 75.2681 9.43135 74.5061 9.41156C74.4071 9.41156 74.2982 9.41651 74.1844 9.43135L74.0954 9.44125L74.0607 9.35713C74.0014 9.20868 73.9717 9.06023 73.9717 8.92168C73.9964 7.94193 75.2335 7.42236 75.9609 7.26896C76.2132 7.22937 76.4557 7.18979 76.6883 7.18979C77.2821 7.18979 77.7224 7.37782 77.9946 7.71925C78.2717 8.06068 78.3806 8.53572 78.3806 9.08003L78.3608 12.5339C78.3608 13.8106 78.4498 14.7656 78.7319 15.3792C79.0189 15.9878 79.4494 16.2748 80.2461 16.2847C81.112 16.2847 81.6365 15.9086 81.9681 15.3544C82.2996 14.7953 82.4233 14.0481 82.4233 13.3306V10.5348C82.4035 9.71835 82.1413 9.4363 81.3842 9.41651C81.2852 9.41651 81.1763 9.42146 81.0625 9.4363L80.9735 9.4462L80.9388 9.36208C80.8794 9.21363 80.8498 9.06518 80.8498 8.92663C80.8745 7.94687 82.1116 7.42731 82.8439 7.27391C83.0963 7.23432 83.3387 7.19474 83.5713 7.19474C84.1651 7.19474 84.6005 7.38277 84.8776 7.7242C85.1547 8.06563 85.2636 8.54067 85.2636 9.08498C85.2636 9.48084 85.224 10.1835 85.224 13.1277C85.224 14.3697 85.2042 15.0328 85.2042 15.2357C85.224 16.0818 85.511 16.4628 86.2928 16.4826C86.377 16.4826 86.4611 16.4777 86.5601 16.4678L86.6491 16.4579L86.6838 16.542C86.7431 16.6905 86.7728 16.834 86.7728 16.9676C86.7431 17.9226 85.5011 18.3036 84.7787 18.452C84.5313 18.4916 84.2987 18.5263 84.0958 18.5263H84.081C83.5268 18.5263 83.1507 18.3283 82.9132 18.0018M43.6536 12.9595C43.6536 11.2424 44.2177 9.76289 45.2074 8.70891C46.197 7.65493 47.6073 7.03639 49.2798 7.03639C50.8039 7.03639 51.9321 7.6005 52.6694 8.41201C53.4067 9.21858 53.7629 10.2676 53.7629 11.2325C53.7629 11.8016 53.6442 12.336 53.3918 12.7813L53.3572 12.8407H46.5484C46.6622 14.82 47.924 16.2055 50.1161 16.2105C51.4669 16.2105 52.5061 15.4682 52.8525 15.0278L52.9267 14.9338L53.0207 15.0031C53.2186 15.1417 53.4265 15.399 53.4265 15.8938C53.4166 17.0368 52.0805 18.4966 49.1165 18.5015C46.103 18.5015 43.6536 16.0967 43.6487 12.9545M67.7715 18.4817C66.2375 18.4817 64.8372 17.9028 63.8228 16.8983C62.8084 15.8938 62.1799 14.4538 62.1799 12.7368C62.1849 9.34723 64.852 7.03639 67.8655 7.03144C69.4885 7.03144 70.8938 7.61039 71.8884 8.60994C72.888 9.61444 73.4719 11.0445 73.4719 12.7318C73.4719 14.4192 72.8583 15.8641 71.839 16.8785C70.8147 17.8929 69.3896 18.4768 67.7715 18.4768V18.4817ZM88.6284 18.1403C88.1534 18.0117 87.8516 17.7543 87.8516 17.3634C87.8516 17.21 87.901 17.0467 87.9802 16.8686L88.005 16.8142L88.0643 16.8043C88.2425 16.7696 88.5493 16.6756 88.8066 16.4678C89.0886 16.2352 89.1975 15.9136 89.1975 15.0081V10.4359C89.1777 9.66392 88.9996 9.39672 88.3612 9.37692C88.2177 9.37692 88.0495 9.39672 87.8516 9.43135L87.7526 9.45115L87.713 9.35713C87.6437 9.18394 87.614 9.02065 87.614 8.86725C87.6289 7.95182 88.6284 7.48174 89.3014 7.27391C89.5736 7.19474 89.816 7.1502 90.0585 7.1502C90.969 7.1502 91.4687 7.80337 91.6766 8.64953C92.2753 7.66977 93.2303 7.0166 94.1655 7.0166C95.0513 7.0166 95.937 7.59555 95.937 8.68911C95.937 9.46599 95.3878 10.2825 94.4723 10.2874C93.7895 10.2874 93.1957 9.83711 93.0621 9.17899C92.5425 9.35218 91.8102 10.0004 91.8052 12.2519V15.0081C91.8052 15.9136 91.9339 16.2402 92.1912 16.4678C92.4584 16.6657 92.9978 16.7696 93.1858 16.8043L93.2452 16.8142L93.2699 16.8686C93.359 17.0616 93.4085 17.2397 93.4085 17.403C93.4085 17.7741 93.1314 18.0265 92.691 18.1502C92.2407 18.2838 91.5875 18.3333 90.6968 18.3333C89.8061 18.3333 89.0936 18.2789 88.6136 18.1453M55.6482 18.1453C55.1732 18.0166 54.8664 17.7543 54.8664 17.3634C54.8664 17.21 54.9109 17.0467 54.9901 16.8735L55.0148 16.8191L55.0742 16.8092C55.2623 16.7746 55.5542 16.6855 55.8264 16.4777C56.0985 16.2451 56.2123 15.9235 56.2173 15.013V9.0058L54.6041 8.95137L54.5745 8.8821C54.4903 8.68417 54.4507 8.49613 54.4507 8.31799C54.4507 7.7341 54.906 7.34319 55.4701 7.34319H56.1777V6.68012C56.1777 5.07193 56.4746 4.16145 56.8853 3.54291C57.5137 2.56811 58.6073 1.89514 60.2699 1.89514C62.363 1.89514 64.1147 2.86995 64.1246 4.4336C64.1246 5.11152 63.6545 5.95272 62.6698 5.95272C61.9325 5.95272 61.2546 5.33419 61.2497 4.55236C61.2497 4.26536 61.3437 3.97341 61.4872 3.76064C61.2695 3.56766 60.8489 3.45385 60.4431 3.45385C59.7949 3.45879 59.4386 3.68147 59.211 4.05259C58.9834 4.42371 58.9091 4.97296 58.9091 5.5915V7.31844H61.6802L61.7099 7.39267C61.794 7.59555 61.8336 7.78853 61.8286 7.97162C61.8286 8.57036 61.4031 9.02065 60.8587 9.07013C60.6509 9.08992 60.4332 9.08992 60.2402 9.08992C59.78 9.08992 59.3248 9.05529 58.9834 9.05034V15.0081C58.9834 15.9086 59.1318 16.2303 59.4089 16.4678C59.6514 16.6608 60.3392 16.7696 60.5421 16.8043L60.6014 16.8142L60.6262 16.8735C60.7004 17.0368 60.74 17.1853 60.74 17.3288C60.74 17.7395 60.4035 18.0018 59.8988 18.1403C59.3842 18.2838 58.6568 18.3382 57.7265 18.3382C56.7962 18.3382 56.1233 18.2838 55.6383 18.1453M36.3005 18.1453C35.8304 18.0166 35.5236 17.7543 35.5236 17.3684C35.5236 17.215 35.5682 17.0517 35.6523 16.8735L35.677 16.8191L35.7364 16.8092C35.9195 16.7746 36.2164 16.6855 36.4836 16.4777C36.7607 16.2451 36.8695 15.9235 36.8745 15.013V10.4408C36.8547 9.66887 36.6716 9.40166 36.0333 9.38187C35.8898 9.38187 35.7166 9.40166 35.5236 9.4363L35.4247 9.4561L35.39 9.36208C35.3207 9.18889 35.2861 9.02065 35.2861 8.8623C35.3009 7.95182 36.3005 7.48668 36.9784 7.27391C37.2456 7.19474 37.493 7.1502 37.7207 7.1502C38.641 7.1502 39.1359 7.79348 39.3536 8.62974C39.9573 7.65987 40.9123 7.0166 41.8525 7.0166C42.7233 7.0166 43.6239 7.5906 43.6239 8.68911C43.6239 9.46599 43.0747 10.2825 42.1444 10.2874C41.4665 10.2874 40.8776 9.83711 40.749 9.17899C40.2245 9.35218 39.4822 10.0004 39.4723 12.2519V15.0081C39.4723 15.9136 39.6059 16.2352 39.8781 16.4678C40.1305 16.6657 40.6748 16.7696 40.8677 16.8043L40.9271 16.8142L40.9519 16.8686C41.0409 17.0616 41.0904 17.2348 41.0904 17.3981C41.0954 17.7692 40.8133 18.0215 40.368 18.1453C39.9177 18.2789 39.2596 18.3283 38.3639 18.3283C37.4683 18.3283 36.7656 18.2739 36.2857 18.1403M27.1462 18.1403C26.6761 18.0117 26.3743 17.7494 26.3743 17.3634C26.3743 17.21 26.4188 17.0467 26.5029 16.8686L26.5277 16.8142L26.587 16.8043C26.7701 16.7696 27.067 16.6806 27.3392 16.4727C27.6163 16.2402 27.7251 15.9185 27.7301 15.0081V10.4359C27.7054 9.66392 27.5272 9.39672 26.8889 9.37692C26.7454 9.37692 26.5771 9.39672 26.3792 9.43135L26.2803 9.45115L26.2456 9.35713C26.1763 9.18394 26.1417 9.0157 26.1417 8.85736C26.1565 7.94687 27.1561 7.48174 27.834 7.26896C28.0963 7.18979 28.3437 7.14525 28.5762 7.14525C29.4966 7.14525 29.9964 7.78853 30.2092 8.61984C30.8129 7.64998 31.7679 7.01165 32.7081 7.0067C33.5789 7.0067 34.4795 7.5807 34.4795 8.67922C34.4795 9.4561 33.9253 10.2726 33 10.2775C32.3221 10.2775 31.7283 9.82722 31.5996 9.1691C31.0751 9.34229 30.3329 9.99051 30.3279 12.242V14.9982C30.3279 15.9037 30.4615 16.2253 30.7337 16.4579C30.9861 16.6558 31.5304 16.7597 31.7233 16.7944L31.7827 16.8043L31.8075 16.8587C31.8965 17.0517 31.946 17.2249 31.946 17.3882C31.946 17.7593 31.6689 18.0117 31.2236 18.1354C30.7733 18.269 30.1152 18.3184 29.2195 18.3184C28.3239 18.3184 27.6212 18.264 27.1413 18.1304M65.2528 12.4152C65.2528 15.4188 66.5641 16.7103 67.8457 16.7152C69.3104 16.7152 70.3693 15.4237 70.3792 12.8951C70.3792 11.574 70.0873 10.52 69.6122 9.80247C69.1372 9.08498 68.484 8.70396 67.7319 8.70396C66.2128 8.70396 65.2627 10.0796 65.2578 12.4152M19.323 13.0485C18.1156 13.0584 17.3041 13.6275 17.2991 14.7458C17.3041 15.8047 18.0216 16.5173 19.1448 16.5222C19.8722 16.5222 20.6194 16.1214 21.0895 15.5375V13.9887C21.0895 13.7759 20.951 13.5434 20.6541 13.3603C20.3572 13.1772 19.9069 13.0485 19.323 13.0485ZM50.5565 11.2325C50.7742 11.2276 50.8336 11.1781 50.8731 11.1088C50.9177 11.0346 50.9276 10.8911 50.9276 10.708C50.9078 9.66392 50.0963 8.69901 48.8444 8.69901C47.2708 8.69901 46.6325 9.95587 46.5335 11.2276H50.5515L50.5565 11.2325ZM2.18219 16.5123C0.85605 15.1516 0 13.1623 0 10.6882C0 8.31799 0.836257 6.32384 2.1426 4.91853C3.44894 3.51323 5.22537 2.70171 7.10077 2.70171C10.4606 2.70666 12.8309 5.05709 12.8457 7.09082C12.8457 8.17449 12.1579 9.0157 11.2276 9.02065C10.7674 9.02065 10.3369 8.8623 10.0202 8.56541C9.70355 8.26851 9.51057 7.83306 9.51057 7.3036C9.51057 6.67022 9.83716 6.27931 10.0796 6.00715C9.63923 5.24017 8.76338 4.61174 7.39271 4.60679C6.22492 4.60679 5.24516 5.21048 4.54251 6.27436C3.83491 7.33824 3.41925 8.86725 3.41925 10.6734C3.41925 12.4795 3.8547 13.9986 4.57715 15.0575C5.30454 16.1214 6.30409 16.7202 7.46694 16.7202C8.83761 16.7202 9.71345 16.0917 10.1538 15.3198C9.91138 15.0476 9.5848 14.6617 9.5848 14.0283C9.5848 13.4988 9.77778 13.0584 10.0945 12.7615C10.4112 12.4646 10.8417 12.3063 11.3018 12.3063C12.2321 12.3063 12.9199 13.1426 12.9199 14.2262C12.91 16.2699 10.5349 18.6104 7.17994 18.6153C5.30949 18.6153 3.51327 17.8731 2.18713 16.5123" fill="#004EA2"/>
<path d="M10.9406 33.6927V34.7863C10.9406 35.5038 11.5195 35.3949 11.5195 35.3949H17.0071C19.4813 35.4444 20.3126 32.52 20.3126 32.52C20.7282 31.5848 19.9514 31.7233 19.9514 31.7233H16.5074C15.8295 31.654 15.6266 32.2874 15.6266 32.2874C15.3198 33.3315 13.9491 33.3315 13.9491 33.3315H11.5195C10.802 33.3315 10.9406 33.6927 10.9406 33.6927Z" fill="#004EA2"/>
<path d="M95.3185 24.1327H79.6127C79.0684 24.1327 79.004 24.5236 79.004 24.5236V25.4093C79.004 26.0229 79.5533 25.9438 79.5533 25.9438H95.3729C96.0953 25.9438 96.0261 25.5627 96.0261 25.5627V24.7463C96.0261 24.2317 95.3185 24.1327 95.3185 24.1327Z" fill="#004EA2"/>
<path d="M10.9406 37.9829V39.0765C10.9406 39.7989 11.5195 39.6901 11.5195 39.6901H20.1443C22.6185 39.7395 23.9446 35.8304 23.9446 35.8304C24.192 35.1723 23.5042 35.3207 23.5042 35.3207H19.7584C19.318 35.3207 18.1898 36.9339 18.1898 36.9339C17.502 37.9037 13.9491 37.6217 13.9491 37.6217H11.5195C10.802 37.6217 10.9406 37.978 10.9406 37.978" fill="#004EA2"/>
<path d="M60.8093 31.7976H65.9109C67.0194 31.8966 66.8313 30.7733 66.8313 30.7733C66.8313 29.7589 66.2623 29.942 66.2623 29.942C65.52 29.942 65.9654 29.4868 65.9654 29.4868L66.7225 27.7747C67.3064 26.8494 66.094 27.0918 66.094 27.0918C65.2825 27.0918 65.5695 26.8147 65.5695 26.8147L66.4553 25.068C66.861 24.4395 66.2029 24.4049 66.2029 24.4049H62.4571C61.8682 24.5088 60.5817 27.0918 60.5817 27.0918C59.8889 28.1804 60.4629 28.1507 60.4629 28.1507H61.8336L60.26 31.095C59.7108 31.9708 60.8043 31.7976 60.8043 31.7976" fill="#004EA2"/>
<path d="M36.6172 37.0873C35.0981 37.0873 34.7666 36.3698 34.7666 36.3698C34.1035 35.6275 35.9047 32.5893 35.9047 32.5893C36.5084 31.7184 35.6573 31.7728 35.6573 31.7728H32.4013C31.2434 31.7728 31.2187 32.1984 31.2187 32.1984C30.9168 32.7526 29.7787 34.6379 29.7787 34.6379C29.1701 32.8565 25.1669 30.4566 25.1669 30.4566C24.4247 29.9915 25.6172 30.0063 25.6172 30.0063H31.1643C31.8719 30.0063 31.763 29.3482 31.763 29.3482V28.7296C31.763 27.9132 31.0752 28.0171 31.0752 28.0171H17.4427C16.9479 28.0171 16.9479 28.5218 16.9479 28.5218V29.5807C16.9479 30.0954 17.2547 30.036 17.2547 30.036H19.0459C19.5655 30.036 19.4171 30.5061 19.4171 30.5061C19.4072 31.0751 20.2632 31.3671 20.2632 31.3671C21.045 31.8174 22.1287 32.6734 22.1287 32.6734C26.2061 35.4049 25.1076 40.1404 25.1076 40.1404C25.1867 40.6698 24.6919 40.6253 24.6919 40.6253H18.4274C17.7594 40.6253 17.8386 41.13 17.8386 41.13V42.2533C17.8386 42.8668 18.4967 42.8372 18.4967 42.8372H27.5322C30.4468 42.8372 30.4468 40.4372 30.4468 40.4372V37.7553C31.8273 39.309 33.6681 39.3932 33.6681 39.3932C34.5687 39.5565 38.2056 39.5169 39.2992 39.502H44.1386C44.1386 39.502 47.1669 39.695 48.6465 35.7512C48.6465 35.7512 48.983 35.3504 48.3248 35.3504H43.5151C43.5151 35.3504 42.7382 37.1615 40.6451 37.1615H38.9875L36.6172 37.1021V37.0873Z" fill="#004EA2"/>
<path d="M69.1471 37.1466H66.8313C64.7778 37.1466 63.9663 35.3356 63.9663 35.3356H59.1516C58.4885 35.3356 58.83 35.7364 58.83 35.7364C60.3095 39.6851 65.5101 39.4872 65.5101 39.4872H68.776C69.9883 39.4872 69.8052 39.0121 69.8052 39.0121V37.8839C69.8052 37.0378 69.1421 37.1367 69.1421 37.1367" fill="#004EA2"/>
<path d="M39.8434 32.9703V34.1777C39.8434 34.7665 40.4966 34.6824 40.4966 34.6824H50.215C51.0513 34.6824 50.9226 35.1673 50.9226 35.1673V40.071C50.9226 40.8331 50.215 40.6351 50.215 40.6351H46.7314C46.0139 40.6351 46.0684 41.0409 46.0684 41.0409V42.1147C46.0684 42.8322 46.8997 42.7283 46.8997 42.7283H53.5848C56.0292 42.7283 56.0441 40.9914 56.0441 40.9914V35.2663C56.0441 34.6032 56.8111 34.6527 56.8111 34.6527H66.4602H66.48H71.6113C72.4031 34.6527 72.2101 35.1673 72.2101 35.1673V42.1642C72.2101 42.9361 72.8731 42.7283 72.8731 42.7283H76.4557C77.4206 42.7283 77.282 42.1444 77.282 42.1444V32.7822L78.5241 30.0013C78.8061 29.3234 78.2766 29.358 78.2766 29.358H76.2033L78.3014 25.0481C78.6775 24.5137 78.0787 24.5879 78.0787 24.5879H77.3414C76.7575 24.6918 76.8664 24.3801 76.8664 24.3801L77.1385 23.8655C77.3414 23.2717 76.9159 23.2717 76.9159 23.2717H72.8138C72.0765 23.4399 71.834 24.6621 71.834 24.6621H70.117C69.4242 24.6621 69.5627 25.0432 69.5627 25.0432V26.7305C69.5627 27.2154 70.3099 27.2748 70.3099 27.2748H72.2744L69.9932 31.7777C69.6716 32.5546 68.4296 32.5546 68.4296 32.5546H66.6136C66.6136 32.5546 66.5839 32.5645 66.5641 32.5695C66.4701 32.5546 66.3909 32.5596 66.3909 32.5596H56.6527C55.4998 32.3122 56.5538 31.7777 56.5538 31.7777L58.731 31.0405C59.7206 30.7139 59.6118 30.2537 59.6118 30.2537V25.6518C59.6118 24.6819 58.8399 24.8304 58.8399 24.8304H55.9055L56.2569 23.7714C56.1975 23.4795 55.9204 23.2667 55.9204 23.2667H51.843C51.1304 23.2667 51.1304 24.1723 51.1304 24.1723C50.8533 25.0778 49.9676 24.7858 49.9676 24.7858H47.8745C47.1026 24.7858 47.1619 25.3994 47.1619 25.3994V29.744C47.1619 30.8227 48.2209 31.0454 48.2209 31.0454L50.502 31.8272C51.5807 32.426 50.2497 32.6091 50.2497 32.6091H40.4372C39.883 32.6091 39.8385 32.9653 39.8385 32.9653M55.6977 27.2996V29.0315C55.6977 29.0315 53.9114 31.0405 51.3927 29.3432H53.1147C53.1147 29.3432 53.6145 29.2937 53.6145 28.6752C53.6145 28.6752 53.8273 27.9874 52.897 27.9626L51.0513 27.9874L51.0166 27.3045H55.7026L55.6977 27.2996Z" fill="#004EA2"/>
<path d="M40.6798 31.7976H45.7814C46.8849 31.8966 46.6969 30.7733 46.6969 30.7733C46.6969 29.7589 46.1328 29.942 46.1328 29.942C45.3856 29.942 45.8359 29.4868 45.8359 29.4868L46.5929 27.7747C47.1768 26.8494 45.9596 27.0918 45.9596 27.0918C45.153 27.0918 45.435 26.8147 45.435 26.8147L46.3257 25.068C46.7364 24.4395 46.0635 24.4049 46.0635 24.4049H42.3226C41.7288 24.5088 40.4521 27.0918 40.4521 27.0918C39.7544 28.1804 40.3284 28.1507 40.3284 28.1507H41.6991L40.1256 31.095C39.5812 31.9708 40.6699 31.7976 40.6699 31.7976" fill="#004EA2"/>
<path d="M94.0468 26.6316H80.9339C80.1422 26.6316 80.2461 27.171 80.2461 27.171V29.6699C80.2461 30.3131 80.632 30.2834 80.632 30.2834C82.9726 31.9213 87.4903 31.8966 87.4903 31.8966C91.4836 31.9461 94.1309 30.4022 94.1309 30.4022C94.6505 30.2933 94.596 29.7441 94.596 29.7441V27.0869C94.596 26.5228 94.0468 26.6267 94.0468 26.6267M90.4148 29.1602C90.4148 29.1602 87.3963 30.8228 84.4669 29.2493V28.6208H90.4148V29.1602Z" fill="#004EA2"/>
<path d="M87.3815 42.7035C93.9924 42.7035 96.1696 39.2843 96.1696 39.2843V33.1237C96.1696 32.614 95.5065 32.5596 95.5065 32.5596H79.5286C78.9744 32.5596 79.0288 33.1484 79.0288 33.1484V39.408C80.7063 42.2483 87.3765 42.7035 87.3765 42.7035M89.9397 34.6824H91.8993V35.9244H89.9397V34.6824ZM83.2695 34.6824H85.224V35.9244H83.2695V34.6824ZM83.2695 37.8987H85.224V39.1408H89.9397V37.8987H91.8993V39.1408C91.8993 39.1408 88.2623 42.0701 83.2695 39.1408V37.8987Z" fill="#004EA2"/>
<path d="M28.6801 23.9248C29.0958 23.2865 28.4871 23.2766 28.4871 23.2766H24.0832C23.6131 23.2766 23.336 23.5389 22.9253 24.3355C22.5146 25.1273 21.8565 24.9491 21.8565 24.9491H11.9649C10.8614 24.9491 10.9406 26.4831 10.9406 26.4831V29.1354C10.9406 30.0854 11.381 29.9271 11.381 29.9271H15.5425C16.2253 29.9271 16.0323 29.2888 16.0323 29.2888V27.6311C16.0323 27.1165 16.5024 27.1956 16.5024 27.1956H32.1983C32.807 27.1956 32.6684 27.6558 32.6684 27.6558V29.4471C32.6684 30.1349 33.2276 29.9271 33.2276 29.9271H37.112C37.7998 29.9271 37.7157 29.4966 37.7157 29.4966V25.7408C37.7157 24.8155 36.8398 24.8947 36.8398 24.8947H28.9028C28.0764 24.8947 28.4624 24.3801 28.4624 24.3801L28.6851 23.9199L28.6801 23.9248Z" fill="#004EA2"/>
<path d="M128.695 1.48452C128.808 1.37071 128.917 1.32617 129.011 1.32617C129.185 1.32617 129.298 1.47957 129.293 1.66265C129.293 1.77152 129.239 1.89522 129.135 1.99914C124.934 7.29378 121.876 13.4841 121.876 22.0644C121.876 30.6447 124.934 36.7112 129.135 42.0009C129.239 42.1048 129.288 42.2335 129.293 42.3424C129.298 42.5304 129.18 42.6838 129.011 42.6838C128.917 42.6838 128.808 42.6343 128.695 42.5205L110.792 24.9739C109.901 24.1971 109.327 23.2965 109.327 22.005C109.327 20.7135 109.896 19.808 110.792 19.036L128.695 1.48452Z" fill="#E60012"/>
<path d="M142.456 0C135.449 0 132.708 10.0648 132.708 22.0643C132.708 34.0639 135.449 44 142.456 44C146.662 44 150.249 41.5011 150.259 39.4525C150.259 39.0023 150.091 38.5767 149.72 38.1957C147.726 36.2461 146.949 34.2915 146.939 32.5745C146.929 29.2888 149.744 26.8394 152.332 26.8394C155.9 26.8394 157.998 29.6797 157.998 33.3563C157.998 36.8399 156.533 39.7445 154.94 42.0702C154.876 42.1691 154.851 42.2731 154.851 42.3621C154.851 42.5452 154.955 42.6937 155.113 42.6937C155.212 42.6937 155.326 42.6442 155.445 42.5205L173.353 24.9739C174.243 24.202 174.817 23.2964 174.817 22.0049C174.817 20.7135 174.243 19.8079 173.353 19.0409L155.45 1.48448C155.331 1.36572 155.217 1.31129 155.118 1.31129C154.955 1.31129 154.856 1.45974 154.856 1.64777C154.856 1.74179 154.881 1.8457 154.945 1.94467C156.538 4.26541 158.003 7.17499 158.003 10.6536C158.003 14.3302 155.905 17.1754 152.337 17.1754C149.744 17.1754 146.934 14.726 146.944 11.4354C146.954 9.7184 147.73 7.76383 149.725 5.81422C150.096 5.43815 150.264 5.0126 150.264 4.5623C150.254 2.50877 146.667 0.00989654 142.461 0.00989654" fill="#004EA2"/>
</g>
</g>
<defs>
<clipPath id="clip0_101_48">
<rect width="174.822" height="44" fill="white"/>
</clipPath>
</defs>
</svg>
