<svg width="179" height="69" viewBox="0 0 179 69" fill="none" xmlns="http://www.w3.org/2000/svg">
<g clip-path="url(#clip0_101_11)">
<path d="M178.691 0H0V69H178.691V0Z" fill="#ED6C00"/>
<mask id="mask0_101_11" style="mask-type:luminance" maskUnits="userSpaceOnUse" x="0" y="0" width="179" height="69">
<path d="M178.691 0H0V69H178.691V0Z" fill="white"/>
</mask>
<g mask="url(#mask0_101_11)">
<path d="M107.764 50.5453C108.389 50.5453 108.432 50.5156 108.453 50.3624L108.908 47.9211C108.912 47.6659 108.785 47.7084 108.049 47.7084C107.785 47.7212 107.411 47.6787 107.134 47.6574C102.639 47.2789 100.419 45.7349 98.1431 43.1277L97.4583 42.2983H108.632C108.712 42.2983 108.768 42.2218 108.768 42.1069V40.529C108.768 40.4142 108.717 40.3418 108.632 40.3418H96.8884L96.7863 39.9888C96.5183 39.0404 96.5013 38.6831 96.5013 38.5555V38.0451H107.279C107.36 38.0451 107.449 37.9728 107.449 37.858V36.2417C107.449 36.1694 107.36 36.0929 107.279 36.0929H96.4758V33.6685H106.194C106.271 33.6685 106.365 33.6005 106.365 33.4814V31.8992C106.365 31.7844 106.271 31.7121 106.194 31.7121H96.5056V29.3983H107.253C107.334 29.3983 107.424 29.3303 107.424 29.2154V27.5949C107.424 27.5056 107.334 27.4078 107.253 27.4078H99.4403L101.078 26.4466C102.915 25.3705 103.732 23.6395 103.736 23.6267C103.813 23.4353 103.791 23.3587 103.791 23.3587C103.77 23.3247 103.608 23.2226 103.26 23.2226C103.204 23.2226 103.166 23.2269 103.158 23.2269H100.954C100.542 23.2694 100.385 23.3332 100.329 23.3587C100.329 23.3758 100.321 23.397 100.321 23.4183C100.312 23.4863 100.299 23.5586 100.278 23.6352C99.755 25.6044 98.9172 26.7486 98.4621 27.2589L98.326 27.4078H91.1806L92.3885 25.9745C92.448 25.8299 92.499 25.63 92.4778 25.5449L92.4012 25.4981L92.3162 25.396C92.3162 25.396 90.8701 23.6395 86.2553 23.2184C87.0422 23.6139 88.6329 24.6305 89.5941 26.6635L89.9471 27.4121H83.2568C83.1547 27.4121 83.0909 27.5099 83.0909 27.5992V29.2197C83.0909 29.3388 83.1505 29.4026 83.2568 29.4026H94.0132V31.7163H84.0607C83.9458 31.7163 83.8905 31.7801 83.8905 31.9035V33.4857C83.8905 33.609 83.9458 33.6728 84.0607 33.6728H94.0132V36.0971H83.2653C83.1675 36.0971 83.0994 36.1567 83.0994 36.246V37.8622C83.0994 37.9856 83.1547 38.0494 83.2653 38.0494H94.043C94.043 38.0494 93.9451 39.3041 93.5156 40.3461H82.0149C81.9341 40.3461 81.8447 40.4184 81.8447 40.5332V42.1112C81.8447 42.2303 81.9298 42.3026 82.0149 42.3026H92.6819C92.6819 42.3026 89.6069 47.7084 80.7942 50.6006C80.7942 50.6006 91.6271 50.9068 95.791 42.3026C95.791 42.3026 98.9257 50.2519 107.764 50.5453Z" fill="white"/>
<path d="M76.2558 38.2536C76.3579 38.2536 76.426 38.194 76.426 38.1004V36.5182C76.426 36.4332 76.3621 36.3694 76.2558 36.3694H49.2394C49.1373 36.3694 49.0735 36.4289 49.0735 36.5182V38.1004C49.0735 38.194 49.1373 38.2536 49.2394 38.2536H76.2558Z" fill="white"/>
<path d="M53.5225 24.6603C53.0801 24.6603 52.7654 25.0218 52.7654 25.5067V33.6431C52.7654 34.1067 53.1056 34.4895 53.5225 34.4895L54.271 34.481C54.3433 34.4639 54.4156 34.4554 54.4752 34.4554H72.0878C72.5344 34.4554 72.8746 34.0811 72.8746 33.609V25.4769C72.8746 25.0133 72.5131 24.6305 72.0878 24.6305H54.2412L53.5225 24.6645V24.6603ZM55.0068 27.0336V26.621C55.0068 26.2552 55.8958 26.1787 56.202 26.2127H69.4125C70.0335 26.1489 70.3142 26.4041 70.4545 26.6125C70.6629 26.9187 70.6374 27.2675 70.6119 27.4376V28.8752H55.0111V27.0336H55.0068ZM55.0068 30.4617H70.6076V31.8099C70.6076 31.9545 70.6076 32.3033 70.3695 32.5713C70.1951 32.7712 69.9484 32.8732 69.6337 32.8732C69.6039 32.8732 69.5741 32.8732 69.5401 32.8732H56.0148C55.2365 32.8732 55.0536 32.3203 55.0196 32.1502L55.0068 32.0311V30.4659V30.4617Z" fill="white"/>
<path d="M54.9515 45.4542L55.3216 44.8333L55.9553 45.5436C60.9358 49.9541 65.406 50.5453 74.8311 50.5453C75.2266 50.5453 75.4521 50.5411 75.9029 50.5411C76.1964 50.5156 76.375 49.3672 76.426 48.6399C76.4728 47.9381 76.6004 47.5681 76.2432 47.5681C76.2432 47.5681 74.9374 47.5893 70.4971 47.7807C66.1162 47.9679 64.1172 47.5894 64.1172 47.5894V43.7955H73.9252C74.0102 43.7955 74.091 43.7189 74.091 43.6466V42.0687C74.091 41.9538 74.006 41.8815 73.9252 41.8815H64.1172V37.8197H61.9226L61.9141 47.181L61.3356 47.0024C59.3068 46.3687 56.9505 45.2416 55.9851 44.2889L55.7214 44.0337L55.8787 43.6806C56.3083 42.7109 56.504 42.0091 56.504 42.0049C56.6401 41.503 56.6486 41.503 56.589 41.3882C56.538 41.2988 56.3764 41.2861 56.3338 41.2691H54.0201C53.4629 41.2691 53.4331 41.5796 53.4289 41.6434L53.3863 41.8177C52.306 47.2406 49.7073 49.6522 48.2314 50.6134C51.6128 49.9882 53.7394 47.517 54.9558 45.4585" fill="white"/>
<path d="M30.5295 47.7297V31.3165C30.5295 31.2527 30.5848 31.1974 30.6529 31.1974H32.7923C32.8603 31.1974 32.9156 31.2527 32.9156 31.3165V48.4229C32.9156 48.4229 33.124 50.9153 30.9166 50.9153C30.9166 50.9153 29.7937 51.1195 27.9138 49.3033C27.9138 49.3033 30.4062 50.4687 30.5295 47.7339" fill="white"/>
<path d="M32.6859 27.9819H35.9056L43.8719 27.9777C43.9569 27.9777 44.0377 27.9011 44.0377 27.8288V26.2849C44.0377 26.1998 43.9527 26.0978 43.8719 26.0978H32.9113L33.2771 25.3449C33.4472 24.9962 33.5365 24.6729 33.5365 24.6729C33.5578 24.5921 33.5748 24.4815 33.5451 24.4177C33.511 24.3454 33.4132 24.2986 33.3707 24.2901L33.2558 24.2348C31.8225 23.3289 29.1642 23.2311 28.0924 23.2311H27.8287C28.8155 23.8138 29.5385 24.7367 29.9085 25.2769L30.47 26.0978H18.5099C18.4121 26.1445 18.1399 26.3147 18.0421 26.8421L18.1739 35.5101C18.1994 35.8249 18.8161 44.6078 15.7368 51.2045C16.6257 50.4092 18.2164 47.9891 19.1181 45.267C19.1181 45.267 20.4749 41.7071 20.4409 35.8546V35.3443V33.7535V28.9261C20.4409 28.7688 20.4111 28.3435 20.4196 27.9819H30.7082M30.4997 35.3443V37.3815H22.4016C22.2995 37.3815 22.2315 37.4411 22.2315 37.5347V38.7468C22.2315 38.8319 22.2953 38.934 22.4016 38.934H40.5671C40.9712 38.934 41.3242 38.5384 41.3242 38.0876V35.3443H43.8846C43.9654 35.3443 44.0548 35.2677 44.0548 35.1571V33.9109C44.0548 33.8344 43.9697 33.7578 43.8846 33.7578H41.3242V30.9081C41.3242 30.4445 40.9839 30.0618 40.5671 30.0618H39.5591L32.9283 30.0575V27.7352H30.4997V30.0575H22.3718C22.2953 30.0575 22.24 30.1256 22.24 30.2106V31.4228C22.24 31.5078 22.2953 31.5716 22.3718 31.5716H30.4997V33.7578M38.8914 37.3943H38.2704L32.9326 37.3901V35.3528H38.8914V37.3986V37.3943ZM38.8914 33.7578H32.9326V31.5716H38.2193L38.3172 31.6269C38.4618 31.7035 38.8956 31.9459 38.8956 32.5584V33.7578H38.8914Z" fill="white"/>
<path d="M30.538 33.8174H21.3256C21.249 33.8174 21.1895 33.8854 21.1895 33.9705V35.1827C21.1895 35.2677 21.249 35.3315 21.3256 35.3315H30.538V33.8174Z" fill="white"/>
<path d="M36.6839 43.7316C37.2113 44.1782 39.1422 46.1219 43.5273 47.2022C43.5273 47.2022 43.8038 47.2916 43.6889 47.5765C42.9701 49.3586 42.8595 49.6138 42.8595 49.6138C42.8595 49.6138 42.7915 49.8775 42.4682 49.7542C36.8497 47.5935 34.5743 43.5147 34.5743 43.5147C34.5743 43.5147 34.3063 43.0639 34.7274 42.8554C34.7274 42.8554 36.9433 42.328 40.214 40.4949C40.214 40.4949 40.4224 40.329 40.5883 40.6055C41.1795 41.5837 41.5538 42.2217 41.5538 42.2217C41.5538 42.2217 41.6304 42.3748 41.3709 42.4812C39.6951 43.1617 36.6839 43.5147 36.6839 43.5147C36.6839 43.5147 36.4755 43.553 36.6839 43.7316Z" fill="white"/>
<path d="M28.909 42.0006C29.1259 41.3967 28.5942 41.3839 28.5942 41.3839H22.0315C21.9294 41.3839 21.8656 41.4392 21.8656 41.5243V42.779C21.8656 42.8598 21.9294 42.9533 22.0315 42.9533H26.2209C25.1449 46.0327 22.6865 48.0912 19.8198 50.1115C19.8198 50.1115 25.97 49.3289 28.909 42.0049" fill="white"/>
<path d="M160.963 26.2807H149.19V14.4993C149.19 13.4019 148.293 12.5045 147.195 12.5045H134.738C133.64 12.5045 132.743 13.4019 132.743 14.4993V26.2807H120.97C119.873 26.2807 118.975 27.1781 118.975 28.2755V40.7204C118.975 41.8177 119.873 42.7151 120.97 42.7151H132.743V54.4966C132.743 55.5939 133.64 56.4913 134.738 56.4913H147.195C148.293 56.4913 149.19 55.5939 149.19 54.4966V42.7151H160.963C162.06 42.7151 162.958 41.8177 162.958 40.7204V28.2755C162.958 27.1781 162.06 26.2807 160.963 26.2807Z" fill="white"/>
<path d="M144.384 19.3055C143.287 19.3055 142.394 18.4123 142.394 17.3107C142.394 16.2091 143.287 15.3202 144.384 15.3202C145.481 15.3202 146.383 16.2134 146.383 17.3107C146.383 18.408 145.49 19.3055 144.384 19.3055Z" fill="#FF671D"/>
<path d="M137.545 19.3055C136.447 19.3055 135.554 18.4123 135.554 17.3107C135.554 16.2091 136.447 15.3202 137.545 15.3202C138.642 15.3202 139.544 16.2134 139.544 17.3107C139.544 18.408 138.651 19.3055 137.545 19.3055Z" fill="#FFA400"/>
<path d="M144.384 26.1786C143.287 26.1786 142.394 25.2855 142.394 24.1839C142.394 23.0823 143.287 22.1934 144.384 22.1934C145.481 22.1934 146.383 23.0865 146.383 24.1839C146.383 25.2812 145.49 26.1786 144.384 26.1786Z" fill="#F478C4"/>
<path d="M137.545 26.1786C136.447 26.1786 135.554 25.2855 135.554 24.1839C135.554 23.0823 136.447 22.1934 137.545 22.1934C138.642 22.1934 139.544 23.0865 139.544 24.1839C139.544 25.2812 138.651 26.1786 137.545 26.1786Z" fill="#54C8E8"/>
<path d="M144.384 33.0518C143.287 33.0518 142.394 32.1586 142.394 31.057C142.394 29.9555 143.287 29.0665 144.384 29.0665C145.481 29.0665 146.383 29.9597 146.383 31.057C146.383 32.1544 145.49 33.0518 144.384 33.0518Z" fill="#FF671D"/>
<path d="M137.545 33.0518C136.447 33.0518 135.554 32.1586 135.554 31.057C135.554 29.9555 136.447 29.0665 137.545 29.0665C138.642 29.0665 139.544 29.9597 139.544 31.057C139.544 32.1544 138.651 33.0518 137.545 33.0518Z" fill="#FFA400"/>
<path d="M144.384 39.9335C143.287 39.9335 142.394 39.0403 142.394 37.9387C142.394 36.8371 143.287 35.944 144.384 35.944C145.481 35.944 146.383 36.8371 146.383 37.9387C146.383 39.0403 145.49 39.9335 144.384 39.9335Z" fill="#FFA400"/>
<path d="M151.266 33.0518C150.173 33.0518 149.275 32.1586 149.275 31.057C149.275 29.9555 150.168 29.0665 151.266 29.0665C152.363 29.0665 153.265 29.9597 153.265 31.057C153.265 32.1544 152.371 33.0518 151.266 33.0518Z" fill="#6ABF4B"/>
<path d="M151.266 39.9335C150.173 39.9335 149.275 39.0403 149.275 37.9387C149.275 36.8371 150.168 35.944 151.266 35.944C152.363 35.944 153.265 36.8371 153.265 37.9387C153.265 39.0403 152.371 39.9335 151.266 39.9335Z" fill="#F478C4"/>
<path d="M158.152 33.0518C157.054 33.0518 156.161 32.1586 156.161 31.057C156.161 29.9555 157.054 29.0665 158.152 29.0665C159.249 29.0665 160.151 29.9597 160.151 31.057C160.151 32.1544 159.253 33.0518 158.152 33.0518Z" fill="#FFA400"/>
<path d="M158.152 39.9335C157.054 39.9335 156.161 39.0403 156.161 37.9387C156.161 36.8371 157.054 35.944 158.152 35.944C159.249 35.944 160.151 36.8371 160.151 37.9387C160.151 39.0403 159.253 39.9335 158.152 39.9335Z" fill="#FF671D"/>
<path d="M137.545 39.9335C136.447 39.9335 135.554 39.0403 135.554 37.9387C135.554 36.8371 136.447 35.944 137.545 35.944C138.642 35.944 139.544 36.8371 139.544 37.9387C139.544 39.0403 138.651 39.9335 137.545 39.9335Z" fill="#FF671D"/>
<path d="M130.659 33.0518C129.561 33.0518 128.668 32.1586 128.668 31.057C128.668 29.9555 129.561 29.0665 130.659 29.0665C131.756 29.0665 132.658 29.9597 132.658 31.057C132.658 32.1544 131.76 33.0518 130.659 33.0518Z" fill="#93D500"/>
<path d="M130.659 39.9335C129.561 39.9335 128.668 39.0403 128.668 37.9387C128.668 36.8371 129.561 35.944 130.659 35.944C131.756 35.944 132.658 36.8371 132.658 37.9387C132.658 39.0403 131.76 39.9335 130.659 39.9335Z" fill="#6ABF4B"/>
<path d="M123.777 33.0518C122.68 33.0518 121.787 32.1586 121.787 31.057C121.787 29.9555 122.684 29.0665 123.777 29.0665C124.87 29.0665 125.776 29.9597 125.776 31.057C125.776 32.1544 124.879 33.0518 123.777 33.0518Z" fill="#E6427A"/>
<path d="M123.777 39.9335C122.68 39.9335 121.787 39.0403 121.787 37.9387C121.787 36.8371 122.684 35.944 123.777 35.944C124.87 35.944 125.776 36.8371 125.776 37.9387C125.776 39.0403 124.879 39.9335 123.777 39.9335Z" fill="#FFA400"/>
<path d="M144.384 46.8068C143.287 46.8068 142.394 45.9136 142.394 44.812C142.394 43.7104 143.287 42.8173 144.384 42.8173C145.481 42.8173 146.383 43.7104 146.383 44.812C146.383 45.9136 145.49 46.8068 144.384 46.8068Z" fill="#93D500"/>
<path d="M137.545 46.8068C136.447 46.8068 135.554 45.9136 135.554 44.812C135.554 43.7104 136.447 42.8173 137.545 42.8173C138.642 42.8173 139.544 43.7104 139.544 44.812C139.544 45.9136 138.651 46.8068 137.545 46.8068Z" fill="#F478C4"/>
<path d="M144.384 53.6799C143.287 53.6799 142.394 52.7868 142.394 51.6852C142.394 50.5836 143.287 49.6904 144.384 49.6904C145.481 49.6904 146.383 50.5836 146.383 51.6852C146.383 52.7868 145.49 53.6799 144.384 53.6799Z" fill="#54C8E8"/>
<path d="M137.545 53.6799C136.447 53.6799 135.554 52.7868 135.554 51.6852C135.554 50.5836 136.447 49.6904 137.545 49.6904C138.642 49.6904 139.544 50.5836 139.544 51.6852C139.544 52.7868 138.651 53.6799 137.545 53.6799Z" fill="#FF671D"/>
</g>
</g>
<defs>
<clipPath id="clip0_101_11">
<rect width="178.691" height="69" fill="white"/>
</clipPath>
</defs>
</svg>
