<svg width="186" height="78" viewBox="0 0 186 78" fill="none" xmlns="http://www.w3.org/2000/svg">
<g clip-path="url(#clip0_101_96)">
<mask id="mask0_101_96" style="mask-type:luminance" maskUnits="userSpaceOnUse" x="0" y="0" width="186" height="78">
<path d="M185.093 0H0V78H185.093V0Z" fill="white"/>
</mask>
<g mask="url(#mask0_101_96)">
<path d="M184.248 23.5146C183.421 22.5191 182.125 22.0308 180.848 22.2186L176.697 22.8384L179.308 15.2694C179.702 14.1425 179.515 12.8842 178.82 11.9075C178.125 10.9309 176.998 10.3486 175.815 10.3486H137.707C136.129 10.3486 134.72 11.3441 134.213 12.8466L134.157 12.9969H132.016L134.176 6.74258C134.57 5.61568 134.382 4.35732 133.687 3.38067C132.993 2.40403 131.866 1.8218 130.682 1.8218H124.015C122.437 1.8218 121.029 2.81723 120.522 4.31975L117.535 12.9781H112.07C110.492 12.9781 109.084 13.9735 108.576 15.476L107.637 18.2181C107.637 18.2181 107.619 18.1806 107.6 18.1618C106.905 17.1852 105.778 16.6029 104.595 16.6029H97.9461L101.346 6.7238C101.74 5.5969 101.552 4.33853 100.857 3.36189C100.162 2.38525 99.0354 1.80302 97.8522 1.80302H91.1847C89.607 1.80302 88.1984 2.79844 87.6913 4.30097L85.6253 10.3111H54.2601C52.6824 10.3111 51.2738 11.3065 50.7667 12.809L48.9636 18.0867L48.4565 13.5979C48.2499 11.7197 46.6535 10.3111 44.7753 10.3111H39.5541L42.5967 5.69081C43.4418 4.41366 43.4043 2.7421 42.5215 1.50251C41.6388 0.262927 40.0612 -0.319303 38.5962 0.0751108L2.77968 9.2781C1.14568 9.69129 0 11.175 0 12.8654V24.0968C0 25.3739 0.657356 26.5572 1.74669 27.2333C2.83602 27.9094 4.1883 27.9846 5.33398 27.4211L9.22177 25.5054L13.2598 35.4409C13.8233 36.8307 15.1943 37.751 16.6968 37.751H23.5521C24.7917 37.751 25.9374 37.1312 26.6323 36.117C27.3272 35.1028 27.4587 33.7881 26.9892 32.6612L26.1628 30.614L31.4968 22.5003L32.849 34.4642C33.0556 36.3424 34.6521 37.751 36.5302 37.751H40.9815C41.2444 37.751 41.5073 37.7134 41.7703 37.6571C41.9018 37.6759 42.0332 37.6947 42.1647 37.7134L40.9063 41.3571C40.5119 42.484 40.6997 43.7423 41.3947 44.719C42.0896 45.6956 43.2165 46.2779 44.3997 46.2779H51.0672C52.6448 46.2779 54.0535 45.2824 54.5606 43.7799L59.2935 30.0318H61.2844L60.3077 32.8678C59.9133 33.9947 60.1011 35.2531 60.796 36.2297C61.491 37.2063 62.6179 37.7886 63.8011 37.7886H87.9918C89.5695 37.7886 90.9781 36.7931 91.4852 35.2906L93.7953 28.5856H102.998C103.393 28.5856 103.768 28.5292 104.106 28.4166L103.543 30.0693C103.149 31.1962 103.336 32.4546 104.031 33.4312C104.726 34.4079 105.853 34.9901 107.036 34.9901H109.948L107.731 41.4134C107.337 42.5403 107.525 43.7987 108.22 44.7753C108.915 45.752 110.041 46.3342 111.225 46.3342H117.892C119.47 46.3342 120.878 45.3388 121.385 43.8362L124.428 34.9901H127.208C127.32 35.4409 127.49 35.8728 127.771 36.2673C128.466 37.2439 129.593 37.8261 130.795 37.8261H153.183C153.183 37.8261 153.333 37.8261 153.408 37.8261C153.934 38.1079 154.516 38.2581 155.098 38.2581C155.286 38.2581 155.474 38.2581 155.643 38.2205L180.247 34.5206C181.618 34.314 182.745 33.3749 183.196 32.0602L184.886 27.177C185.299 25.9562 185.055 24.6039 184.229 23.6085" fill="white"/>
<path d="M44.3621 42.5779H51.0295L60.8523 14.0674H54.1848L44.3621 42.5779Z" fill="#231815"/>
<path d="M73.0979 26.313H81.6623L83.2212 21.8054H74.6568L75.7649 18.575H84.3293L85.8882 14.0674H62.937L61.3782 18.575H69.0974L67.9893 21.8054H60.2701L58.7112 26.313H66.4492L63.7822 34.051H78.9953L80.5542 29.5434H71.9898L73.0979 26.313Z" fill="#231815"/>
<path d="M104.539 20.3404H92.7061L97.7959 5.55933H91.1284L81.3057 34.051H87.9731L91.1472 24.848H102.998L104.539 20.3404Z" fill="#231815"/>
<path d="M34.2388 14.0674L36.4926 34.051H40.9438L38.69 14.0674H34.2388Z" fill="#231815"/>
<path d="M39.4226 3.69995L3.69995 12.8654V24.0968L29.8627 11.2314L20.1526 25.7308L19.1384 23.2328H12.2831L16.6968 34.051H23.5333L21.9745 30.2008L39.4226 3.69995Z" fill="#231815"/>
<path d="M40.249 14.0674L42.5028 34.051H46.9353L44.6815 14.0674H40.249Z" fill="#231815"/>
<path d="M159.587 15.5136L160.076 14.0674H137.688L136.129 18.575H151.868L150.76 21.8054H135.566L134.026 26.313H149.201L148.093 29.5434H132.354L130.795 34.051H153.202L153.765 32.3794L159.587 15.5136Z" fill="#231815"/>
<path d="M131.471 26.7262H123.358L125.255 21.2232H133.368L134.908 16.7156H126.813L130.645 5.55933H123.996L120.146 16.7156H112.032L110.492 21.2232H118.587L116.709 26.7262H108.595L107.036 31.2338H115.15L111.243 42.5779H117.911L121.817 31.2338H129.912L131.471 26.7262Z" fill="#231815"/>
<path d="M175.796 14.0674H162.517L160.958 18.575H174.237L175.796 14.0674Z" fill="#231815"/>
<path d="M171.908 25.3363L173.467 20.8287H160.188L158.629 25.3363H171.908Z" fill="#231815"/>
<path d="M156.789 29.581L155.117 34.4642L179.702 30.7642L181.393 25.881L156.789 29.581Z" fill="#231815"/>
<path d="M45.9585 73.1356V66.9001C45.9585 65.36 45.1509 63.9702 43.5732 63.9702C41.9956 63.9702 41.094 65.36 41.094 66.9001V73.1356H38.2205V61.4722H40.8874L41.094 62.8808C41.7138 61.6976 43.0473 61.2656 44.1554 61.2656C45.5453 61.2656 46.9351 61.8291 47.5925 63.4443C48.6255 61.7915 49.9777 61.322 51.4803 61.322C54.7858 61.322 56.4011 63.3504 56.4011 66.8438V73.1168H53.5275V66.8438C53.5275 65.3037 52.8889 64.0077 51.33 64.0077C49.7711 64.0077 48.8133 65.36 48.8133 66.8813V73.1168H45.9397L45.9585 73.1356Z" fill="#231815"/>
<path d="M67.6702 61.5098H70.4311V73.1356H67.7265L67.5762 71.4452C66.9189 72.8163 65.0971 73.4736 63.8011 73.4924C60.3641 73.5112 57.8098 71.3889 57.8098 67.3133C57.8098 63.2377 60.4768 61.2093 63.8763 61.228C65.4351 61.228 66.9189 61.9605 67.5762 63.125L67.6702 61.5285V61.5098ZM60.6834 67.3133C60.6834 69.5295 62.2235 70.8442 64.1204 70.8442C68.6468 70.8442 68.6468 63.7823 64.1204 63.7823C62.2047 63.7823 60.6834 65.0783 60.6834 67.2945" fill="#231815"/>
<path d="M76.8354 58.2229V61.5285H80.0471V64.0076H76.8167V69.0411C76.8167 70.1492 77.4365 70.6939 78.3192 70.6939C78.7699 70.6939 79.2958 70.5624 79.709 70.337L80.5166 72.7974C79.6902 73.1355 78.9953 73.267 78.1314 73.2857C75.5959 73.3797 73.9431 71.9335 73.9431 69.0411V64.0076H71.7644V61.5285H73.9431V58.5234L76.8167 58.2229H76.8354Z" fill="#231815"/>
<path d="M89.438 64.5899C88.6116 63.8199 87.6726 63.5569 86.5644 63.5569C85.1934 63.5569 84.4421 63.9889 84.4421 64.7214C84.4421 65.4539 85.1183 65.9046 86.6208 65.9985C88.8182 66.1488 91.5979 66.6371 91.5979 69.7361C91.5979 71.7833 89.9264 73.5487 86.602 73.5487C84.7614 73.5487 82.9208 73.2482 81.2305 71.464L82.6391 69.4168C83.4655 70.3371 85.3436 71.0132 86.6584 71.0508C87.7477 71.0696 88.7619 70.5061 88.7619 69.661C88.7619 68.8533 88.1045 68.5341 86.4518 68.4401C84.2543 68.2711 81.6437 67.4635 81.6437 64.8341C81.6437 62.2047 84.4233 61.2092 86.5457 61.2092C88.3675 61.2092 89.7385 61.5661 91.072 62.7493L89.4756 64.6463L89.438 64.5899Z" fill="#231815"/>
<path d="M95.6172 61.5097V67.595C95.6172 69.3605 96.5939 70.7127 98.4345 70.7127C100.275 70.7127 101.402 69.229 101.402 67.4447V61.491H104.257V73.1543H101.684L101.496 71.5767C100.294 72.7599 99.1857 73.3234 97.5517 73.3234C94.7721 73.3234 92.7437 71.2198 92.7437 67.6138V61.5097H95.6172Z" fill="#231815"/>
<path d="M109.252 56.6453V66.1675L113.159 61.5097H116.615V61.66L111.863 66.9751L117.272 72.9289V73.1355H113.798L109.252 67.8767V73.1355H106.379V56.6453H109.252Z" fill="#231815"/>
<path d="M121.386 58.223C121.386 60.458 117.986 60.458 117.986 58.223C117.986 55.988 121.386 55.988 121.386 58.223ZM118.249 73.1356H121.123V61.4534H118.249V73.1356Z" fill="#231815"/>
<path d="M135.115 61.5098L127.997 78H124.841L127.02 72.9478L122.362 61.5098H125.724L127.489 66.5245L128.598 69.8112L129.8 66.5996L131.922 61.5098H135.115Z" fill="#231815"/>
<path d="M146.872 67.3321C146.872 70.6752 144.581 73.3985 140.806 73.3985C137.031 73.3985 134.758 70.6752 134.758 67.3321C134.758 63.989 137.068 61.2656 140.768 61.2656C144.468 61.2656 146.853 64.0077 146.853 67.3321M137.632 67.3321C137.632 69.0976 138.702 70.7503 140.787 70.7503C142.872 70.7503 143.942 69.0976 143.942 67.3321C143.942 65.5666 142.721 63.8951 140.787 63.8951C138.702 63.8951 137.632 65.6042 137.632 67.3321Z" fill="#231815"/>
</g>
</g>
<defs>
<clipPath id="clip0_101_96">
<rect width="185.093" height="78" fill="white"/>
</clipPath>
</defs>
</svg>
