<svg width="149" height="43" viewBox="0 0 149 43" fill="none" xmlns="http://www.w3.org/2000/svg">
<g clip-path="url(#clip0_99_2)">
<mask id="mask0_99_2" style="mask-type:luminance" maskUnits="userSpaceOnUse" x="0" y="0" width="149" height="23">
<path d="M148.6 0H0V22.9H148.6V0Z" fill="white"/>
</mask>
<g mask="url(#mask0_99_2)">
<path d="M148.59 1.94V1.13C148.59 0.51 148.08 0 147.46 0H137.2C136.58 0 136.07 0.51 136.07 1.13V4.54H141.13V5.12H136.07V21.7C136.07 22.32 136.58 22.83 137.2 22.83H146.74C146.74 22.83 146.72 22.78 146.72 22.74V16.8H144.04C143.84 16.8 143.68 16.63 143.68 16.42V13.17H143.72V13.15H146.9C147.1 13.15 147.26 13.32 147.26 13.53V13.94H147.27V22.82H147.46C148.08 22.82 148.59 22.32 148.59 21.69V11.65H142.05V11.44C142.05 11.23 142.21 11.06 142.41 11.06H144.58V10.03H142.44V9.82C142.44 9.61 142.6 9.44 142.8 9.44H144.58V8.51H142.39H142.33V4.67C142.33 4.46 142.49 4.29 142.69 4.29H146.7V4.27H147.3V8.12C147.3 8.34 147.13 8.51 146.92 8.51H146.71V4.87H142.9V7.9H144.6V6.79H143.34V6.58C143.34 6.37 143.5 6.2 143.7 6.2H144.6V5.08H144.81C145.02 5.08 145.19 5.24 145.19 5.44V6.21H146.2V6.79H145.19V7.9H146.26V8.13C146.26 8.34 146.1 8.51 145.9 8.51H145.19V9.44H147.72V10.02H145.19V11.05H148.61V2.52H137.93C137.73 2.52 137.57 2.35 137.57 2.14V1.85C137.57 1.66 137.74 1.5 137.95 1.5H138.16V1.94H148.61H148.59ZM138.11 20.37C138.11 20.59 137.94 20.76 137.73 20.76H137.56V15.32H138.11V20.37ZM138.11 14.83H137.55V14.28H138.11V14.83ZM138.13 13.75H137.56V13.46C137.56 13.31 137.68 13.19 137.82 13.19H138.14V13.75H138.13ZM145.76 17.71V18.28H143.62C143.62 18.28 143.62 18.31 143.62 18.32V18.97H145.75V19.54H143.62V20.42H146V20.99H140.55V20.8C140.55 20.59 140.71 20.42 140.91 20.42H143.04V19.54H140.73V19.35C140.73 19.14 140.89 18.97 141.09 18.97H143.04V18.28H140.73V18.09C140.73 17.88 140.89 17.71 141.09 17.71H145.75H145.76ZM142.83 13.19V13.21H142.87V16.44C142.87 16.66 142.71 16.83 142.51 16.83H139.75V21.77C139.75 21.99 139.58 22.16 139.37 22.16H139.2V13.98H139.21V13.57C139.21 13.36 139.37 13.19 139.57 13.19H142.83ZM141.51 10.6H136.47V10.4C136.47 10.19 136.63 10.02 136.83 10.02H138.76V7.88H136.72V7.67C136.72 7.46 136.88 7.29 137.08 7.29H138.76V5.38H138.97C139.18 5.38 139.35 5.54 139.35 5.73V7.29H141.14V7.87H139.35V10.01H141.51V10.59V10.6Z" fill="#CB2B32"/>
<path d="M142.26 16.8499H142.5C142.7 16.8499 142.87 16.6799 142.87 16.4599V16.2399V13.2099H142.82V13.1899H139.56C139.36 13.1899 139.19 13.3599 139.19 13.5699V13.5999V13.7699V13.9799H139.18V16.2399V22.1799H139.36C139.57 22.1799 139.75 21.9999 139.75 21.7799V16.8399H142.27L142.26 16.8499ZM139.76 13.7899H142.26V14.7199H140.36C140.16 14.7199 139.99 14.8899 139.99 15.0999V15.2999H142.25V16.2199H139.75V13.7799L139.76 13.7899Z" fill="white"/>
<path d="M138.14 1.92999V1.48999H137.92C137.71 1.48999 137.53 1.64999 137.53 1.84999V1.91999V2.06999V2.12999C137.53 2.33999 137.69 2.50999 137.9 2.50999H148.59V1.90999H138.14V1.92999Z" fill="white"/>
<path d="M145.18 10.05H147.71V9.45002H145.18V8.54002H145.88C146.08 8.54002 146.25 8.37002 146.25 8.16002V7.92002H145.18V6.83002H146.19V6.23002H145.19V5.47002C145.19 5.27002 145.02 5.11002 144.8 5.11002H144.58V6.23002H143.68C143.48 6.23002 143.31 6.40002 143.31 6.61002V6.82002H144.57V7.91002H142.88V4.89002H146.68V8.53002H146.9C147.11 8.53002 147.29 8.35002 147.29 8.13002V4.27002H146.68V4.29002H142.68C142.48 4.29002 142.31 4.46002 142.31 4.67002V4.70002V4.87002V8.52002H142.37H144.56V9.43002H142.79C142.59 9.43002 142.42 9.60002 142.42 9.81002V10.02H144.56V11.03H142.4C142.2 11.03 142.03 11.2 142.03 11.41V11.62H148.58V11.02H145.16V10.01L145.18 10.05Z" fill="white"/>
<path d="M141.14 4.53003H136.06V5.13003H141.14V4.53003Z" fill="white"/>
<path d="M141.5 10.01H139.34V7.89H141.13V7.29H139.34V5.74C139.34 5.54 139.17 5.38 138.95 5.38H138.74V7.29H137.06C136.86 7.29 136.69 7.46 136.69 7.68V7.89H138.74V10.01H136.82C136.62 10.01 136.45 10.18 136.45 10.39V10.6H141.5V10V10.01Z" fill="white"/>
<path d="M143.63 20.41V19.55H145.76V18.97H143.63V18.33C143.63 18.33 143.63 18.31 143.63 18.3H145.77V17.72H141.1C140.9 17.72 140.73 17.89 140.73 18.1V18.3H143.04V18.98H141.09C140.89 18.98 140.72 19.15 140.72 19.36V19.56H143.03V20.42H140.9C140.7 20.42 140.53 20.59 140.53 20.8V21H146V20.42H143.61L143.63 20.41Z" fill="white"/>
<path d="M137.55 20.7701H137.72C137.94 20.7701 138.11 20.5901 138.11 20.3701V15.3101H137.55V20.7701Z" fill="white"/>
<path d="M147.27 13.74V13.56V13.53C147.27 13.32 147.11 13.14 146.9 13.14H143.72V13.16H143.68V16.18V16.41C143.68 16.63 143.84 16.81 144.05 16.81H146.73V22.74C146.73 22.74 146.73 22.79 146.74 22.8V22.82H147.29V13.92H147.28V13.73L147.27 13.74ZM144.28 15.26H146.46V15.06C146.46 14.85 146.3 14.68 146.09 14.68H144.27V13.75H146.69V16.19H144.27V15.27L144.28 15.26Z" fill="white"/>
<path d="M138.11 14.27H137.54V14.84H138.11V14.27Z" fill="white"/>
<path d="M137.55 13.4601V13.7601H138.14V13.1801H137.81C137.67 13.1801 137.55 13.3001 137.55 13.4501" fill="white"/>
<path d="M144.27 15.25V16.19H146.7V13.74H144.27V14.69H146.09C146.29 14.69 146.45 14.86 146.45 15.07V15.26H144.27V15.25Z" fill="#CB2B32"/>
<path d="M142.27 15.29H140.01V15.1C140.01 14.89 140.17 14.72 140.37 14.72H142.27V13.77H139.76V16.22H142.27V15.28V15.29Z" fill="#CB2B32"/>
<path d="M69.39 0.280007C69.26 0.0500073 69 0.120007 68.78 0.120007C68.7 0.120007 68.63 0.120007 68.55 0.120007C68.28 0.120007 67.92 0.120007 67.57 0.120007C67.22 0.120007 66.93 0.130007 66.79 0.150007C66.71 0.150007 66.65 0.220007 66.59 0.260007C66.48 0.340007 66.42 0.470007 66.34 0.580007C66.19 0.840007 65.23 2.53001 64.14 4.42001C63.05 6.32001 61.83 8.41001 61.19 9.42001L61.17 9.44001L61.01 9.63001L60.95 9.68001L60.83 9.74001C60.83 9.74001 60.71 9.76001 60.7 9.75001L60.63 9.73001L60.49 9.65001L60.43 9.60001L60.1 9.18001V9.16001C60.1 9.16001 59.8 8.70001 59.8 8.69001C59.76 8.64001 59.66 8.47001 59.52 8.24001C59.03 7.42001 58.02 5.67001 57.12 4.11001C56.67 3.33001 56.25 2.58001 55.92 2.04001C55.76 1.77001 55.62 1.55001 55.53 1.39001L55.41 1.20001C55.41 1.20001 55.38 1.14001 55.37 1.13001C55.37 1.13001 55.37 1.11001 55.36 1.10001C55.22 0.820007 55.07 0.600007 54.88 0.450007L54.46 0.250007C54.23 0.200007 53.99 0.180007 53.73 0.170007L53.29 0.140007C53.04 0.130007 52.8 0.120007 52.58 0.120007L52.26 0.150007L52.15 0.190007L52.06 0.260007C52.06 0.260007 52.05 0.280007 52.04 0.290007L52.02 0.350007C52 0.710007 52.3 0.960007 52.48 1.25001C52.72 1.61001 53.2 2.37001 53.77 3.30001C54.63 4.69001 55.71 6.50001 56.59 8.00001C57.03 8.75001 57.42 9.42001 57.71 9.94001C57.86 10.19 57.98 10.41 58.07 10.57L58.24 10.88V10.9C58.63 11.85 59.11 12.89 59.23 14.02C59.23 14.02 59.23 14.04 59.23 14.05V14.12C59.26 14.84 59.33 19 59.33 21.26V21.33V21.35V21.53C59.33 22.05 59.33 22.44 59.31 22.63V22.71L59.4 22.82H59.47L59.58 22.83H59.88L60.23 22.82C60.89 22.82 62.11 22.84 62.25 22.84C62.25 22.84 62.27 22.84 62.28 22.84L62.31 22.76C62.31 22.67 62.3 22.32 62.29 21.83C62.28 21.09 62.27 20.05 62.26 19.2C62.26 18.35 62.25 17.68 62.25 17.68C62.25 17.6 62.25 17.37 62.25 17.07C62.25 16.69 62.25 16.18 62.27 15.69C62.29 15.2 62.32 14.73 62.36 14.42C62.56 13.42 62.59 12.25 63.18 11.21C63.59 10.36 64.56 8.66001 65.58 6.92001C66.61 5.18001 67.69 3.41001 68.33 2.39001C68.5 2.11001 69.15 1.01001 69.36 0.630007C69.41 0.540007 69.43 0.450007 69.38 0.350007C69.37 0.330007 69.36 0.300007 69.34 0.280007" fill="#3D3935"/>
<path d="M86.9699 5.26003C86.3899 4.06003 85.6299 3.07003 84.5899 2.34003C83.6299 1.68003 82.3899 1.20003 81.0099 1.08003H80.9899C80.6899 1.05003 80.3999 1.03003 80.1099 1.03003H79.8999C77.7999 1.08003 75.8199 1.82003 74.2899 3.49003C73.7499 4.08003 73.2799 4.73003 72.8899 5.41003C71.6799 7.51003 71.1599 10.03 71.1599 12.36V12.48C71.1599 13.46 71.2799 14.43 71.5299 15.4C71.9599 17.12 72.8699 18.72 74.0899 19.95C75.3399 21.15 76.8999 21.98 78.6299 22.23C78.9799 22.28 79.3399 22.31 79.6999 22.31H79.7999C82.6299 22.31 85.3599 20.76 86.8799 18.36C87.8199 16.81 88.3399 15 88.4699 13.16C88.4999 12.73 88.5199 12.31 88.5199 11.88C88.5199 9.59003 87.9999 7.27003 86.9599 5.26003M85.4099 15.52C84.9499 16.71 84.1399 17.77 83.1499 18.53C82.1599 19.29 80.9799 19.76 79.7899 19.76C79.4399 19.76 79.0799 19.72 78.7299 19.64C77.1599 19.27 75.7799 18.27 74.9299 16.86C74.0699 15.44 73.7099 13.74 73.6999 12.05V12C73.6999 10.02 74.1999 8.02003 75.3299 6.47003C75.9599 5.60003 76.7999 4.90003 77.7499 4.45003C78.5099 4.10003 79.3299 3.90003 80.1699 3.89003H80.1999C81.0999 3.89003 81.8799 4.13003 82.5499 4.53003C83.5599 5.14003 84.3299 6.13003 84.8699 7.28003C85.4199 8.43003 85.7599 9.74003 85.8999 10.96C85.9499 11.39 85.9799 11.81 85.9799 12.24C85.9799 13.36 85.7999 14.48 85.3999 15.51" fill="#3D3935"/>
<path d="M129.54 2.88001V2.84001C129.52 2.22001 129.47 1.16001 129.47 1.16001V1.09001V1.08001L129.49 0.59001V0.54001L129.42 0.32001L129.24 0.16001L129.12 0.12001C128.81 0.0400098 128.05 0.0100098 127.62 0.0100098H127.36L127.21 0.0300098H127.13L126.97 0.0700098L126.87 0.10001L126.71 0.22001L126.64 0.40001C126.71 2.73001 126.78 11.43 126.78 15.63C126.78 15.97 126.78 16.28 126.78 16.55C126.78 16.86 126.78 17.12 126.78 17.34L126.65 17.52L126.44 17.47C125.89 16.87 125.51 16.19 125.16 15.61L125.14 15.58L125.06 15.44C124.99 15.32 124.89 15.16 124.76 14.95C124.51 14.54 124.17 13.97 123.81 13.36C123.08 12.14 122.24 10.74 121.82 10.04C120.13 7.23001 118.16 3.99001 116.87 1.80001C116.75 1.60001 116.63 1.40001 116.49 1.21001C116.35 1.02001 116.2 0.86001 116.04 0.75001C115.85 0.62001 115.64 0.58001 115.43 0.57001H115.33H115.18C115 0.57001 114.73 0.57001 114.43 0.55001C114.19 0.54001 113.95 0.52001 113.73 0.52001H113.61L113.19 0.55001L113.07 0.58001H113.04L113.01 0.61001L112.99 0.65001L112.98 0.71001L112.95 0.95001C112.95 1.15001 112.95 1.43001 112.94 1.74001C112.94 2.11001 112.94 2.51001 112.94 2.89001C112.94 3.11001 112.94 3.33001 112.94 3.53001C112.94 4.09001 112.97 4.83001 112.97 4.83001C112.98 5.18001 112.98 5.82001 112.98 6.66001C112.98 10.14 112.92 16.98 112.92 20.22C112.92 20.94 112.92 21.48 112.94 21.77V21.94V21.99V22.39V22.43L112.96 22.67L112.98 22.73L113.02 22.77L113.17 22.83C113.25 22.84 113.37 22.85 113.55 22.85C113.79 22.85 114.05 22.85 114.32 22.85H114.78C115.09 22.85 115.36 22.85 115.61 22.83L115.73 22.71V22.64C115.73 22.48 115.73 22.26 115.73 21.98V21.71C115.7 19.36 115.74 14.89 115.76 13.95V13.62C115.76 13.31 115.76 12.79 115.76 12.17C115.76 11.2 115.74 9.98001 115.72 8.89001C115.72 8.30001 115.71 7.75001 115.7 7.30001V7.19001C115.7 6.79001 115.7 6.47001 115.72 6.28001L115.73 6.16001L115.85 6.00001L116.05 6.03001C116.32 6.25001 116.55 6.52001 116.76 6.82001L116.8 6.89001C117.15 7.44001 119.29 10.94 121.43 14.42C122.5 16.16 123.56 17.89 124.39 19.24C125.22 20.59 125.83 21.56 125.97 21.78C126.14 22.04 126.28 22.23 126.39 22.34L126.48 22.43L126.52 22.45L126.74 22.48C127.05 22.5 127.59 22.52 128.09 22.52C128.38 22.52 128.65 22.52 128.86 22.5L129.14 22.48H129.23L129.29 22.45L129.39 22.35L129.45 22.15V21.93V21.65C129.46 19.85 129.46 18.06 129.46 16.27C129.46 14.24 129.46 12.2 129.46 10.17C129.46 9.66001 129.46 9.15001 129.46 8.64001C129.48 7.74001 129.51 6.84001 129.54 5.91001C129.55 5.36001 129.58 3.75001 129.58 3.10001V2.90001L129.54 2.88001Z" fill="#3D3935"/>
<path d="M107.61 5.26003C107.03 4.06003 106.27 3.07003 105.23 2.34003C104.27 1.68003 103.03 1.20003 101.65 1.08003H101.63C101.33 1.05003 101.04 1.03003 100.75 1.03003H100.55C98.4501 1.08003 96.4701 1.82003 94.9401 3.49003C94.4001 4.08003 93.9301 4.73003 93.5401 5.41003C92.3301 7.51003 91.8101 10.03 91.8101 12.36V12.48C91.8101 13.46 91.9301 14.43 92.1801 15.4C92.6101 17.12 93.5101 18.72 94.7401 19.95C95.9901 21.15 97.5501 21.98 99.2801 22.23C99.6301 22.28 99.9901 22.31 100.35 22.31H100.45C103.28 22.31 106.01 20.76 107.53 18.36C108.47 16.81 108.99 15 109.12 13.16C109.15 12.73 109.17 12.31 109.17 11.88C109.17 9.59003 108.65 7.27003 107.61 5.26003ZM106.06 15.52C105.6 16.71 104.79 17.77 103.8 18.53C102.81 19.29 101.63 19.76 100.44 19.76C100.09 19.76 99.7301 19.72 99.3801 19.64C97.8101 19.27 96.4301 18.27 95.5801 16.86C94.7201 15.44 94.3601 13.74 94.3501 12.05V12C94.3501 10.02 94.8501 8.02003 95.9801 6.47003C96.6101 5.60003 97.4501 4.90003 98.4101 4.45003C99.1701 4.10003 99.9901 3.90003 100.83 3.89003H100.86H100.87C101.77 3.89003 102.55 4.13003 103.22 4.53003C104.23 5.14003 105 6.13003 105.54 7.28003C106.09 8.43003 106.43 9.74003 106.57 10.96C106.62 11.39 106.65 11.81 106.65 12.24C106.65 13.36 106.47 14.48 106.07 15.51" fill="#3D3935"/>
<path d="M22.96 21.1201L22.9 21.0501L22.84 20.9901L22.63 20.7901L22.56 20.7201L22.51 20.6801L22.02 20.4401L21.52 20.3601L21.15 20.3401H21.08H21.07C20.87 20.3401 20.68 20.3401 20.49 20.3401C20.12 20.3401 19.74 20.3501 19.31 20.3701C17.81 20.4101 16.31 20.4201 14.84 20.4401H14.77H14.74H14.73L14.37 20.4201H14.33L13.99 20.2901L13.94 20.2601L13.77 20.1001L13.74 20.0501L13.65 19.7701V19.7301L13.62 19.4201C13.62 18.0101 13.62 16.6101 13.57 15.2001C13.49 12.1301 13.43 9.04006 13.43 5.83006C13.43 4.52006 13.43 3.20006 13.46 1.84006V1.72006L13.44 1.64006C13.41 1.44006 13.38 1.29006 13.27 1.11006L12.99 0.780059L12.64 0.520059C12.09 0.220059 11.52 0.110059 10.97 0.0600586H10.95H10.87H10.78H10.76L10.73 0.0700586L10.66 0.100059L10.62 0.130059H10.61L10.54 0.240059L10.47 0.530059C10.56 4.18006 10.58 7.58006 10.65 10.9901C10.66 11.4501 10.67 11.9001 10.68 12.3601C10.73 14.1701 10.75 15.9901 10.75 17.8001V18.0201C10.75 18.9601 10.75 19.9001 10.75 20.8401C10.75 21.1201 10.7 21.4801 10.7 21.8101L10.75 22.2901C10.81 22.5001 10.91 22.6501 11.04 22.7401L11.52 22.8601C11.75 22.8601 12 22.8101 12.26 22.8101C13.42 22.7801 14.59 22.7601 15.75 22.7401C18.08 22.7101 20.42 22.6901 22.75 22.6701L23.11 22.6301L23.4 22.5001L23.5 22.3501L23.53 22.1701C23.52 22.0101 23.43 21.8301 23.31 21.6401C23.2 21.4701 23.07 21.3001 22.98 21.1501" fill="#3D3935"/>
<path d="M2.96 1.56005C2.93 1.36005 2.9 1.22005 2.8 1.05005L2.52 0.750049L2.17 0.520049C1.61 0.250049 1.04 0.110049 0.48 0.0500488H0.39H0.3H0.28L0.25 0.0600488L0.18 0.0900488L0.15 0.110049H0.13L0.06 0.230049L0 0.530049C0.1 4.17005 0.11 7.58005 0.18 10.98C0.18 11.44 0.2 11.89 0.21 12.35C0.25 14.11 0.27 15.8601 0.27 17.6201V18C0.27 18.94 0.27 19.88 0.27 20.83C0.27 21.1 0.22 21.47 0.19 21.83L0.13 22.33C0.13 22.55 0.19 22.6801 0.32 22.7701C0.45 22.8601 0.62 22.89 0.81 22.9H0.91C1.28 22.9 2.32 22.8801 3.02 22.8601L3.31 22.71L3.45 22.4501V22.3701L3.38 21.88C3.35 21.7 3.31 21.52 3.28 21.34C3.09 20.24 3.12 16.07 3.09 15.19C3.01 12.07 2.94 8.93005 2.94 5.64005C2.94 4.38005 2.94 3.09005 2.97 1.77005V1.66005L2.95 1.57005L2.96 1.56005Z" fill="#3D3935"/>
<path d="M47.1399 1.66005V1.56005C47.0999 1.36005 47.0699 1.22005 46.9699 1.05005L46.6899 0.750049L46.3399 0.520049C45.7899 0.240049 45.2199 0.100049 44.6599 0.0500488H44.5699H44.4799H44.4599L44.4299 0.0600488L44.3599 0.0900488L44.3299 0.110049L44.3099 0.130049L44.2499 0.230049L44.1799 0.520049C44.2799 4.17005 44.2799 7.57005 44.3599 10.98C44.3599 11.44 44.3799 11.89 44.3899 12.35C44.4299 14.11 44.4599 15.8701 44.4599 17.6201V18C44.4599 18.94 44.4599 19.88 44.4599 20.83C44.4599 21.1 44.4099 21.47 44.3799 21.83L44.3199 22.33C44.3199 22.55 44.3899 22.6801 44.5099 22.7701C44.6399 22.8601 44.8099 22.89 44.9899 22.89H45.0899C45.4599 22.89 46.4999 22.87 47.1999 22.85L47.4899 22.7001L47.6299 22.43V22.35L47.5599 21.8601C47.5299 21.6801 47.4899 21.5 47.4599 21.32C47.2699 20.22 47.2999 16.05 47.2699 15.17C47.1899 12.04 47.1299 8.88005 47.1299 5.57005C47.1299 4.32005 47.1299 3.05005 47.1599 1.75005V1.65005L47.1399 1.66005Z" fill="#3D3935"/>
<path d="M39.6601 21.11L39.6201 21.04L39.5701 20.98L39.4001 20.79L39.3201 20.7L39.3001 20.68L38.8701 20.45L38.3601 20.37H38.2101H38.1901H38.1701L37.9601 20.35H37.8801H37.8701C37.6501 20.35 37.4401 20.35 37.2201 20.35C36.8001 20.35 36.3801 20.36 35.9201 20.38C34.4001 20.42 32.9001 20.43 31.4301 20.45H31.3601H31.3301L30.9701 20.43H30.9301L30.5901 20.3L30.5401 20.27L30.3801 20.11L30.3501 20.06L30.2501 19.78V19.74L30.2301 19.43C30.2301 18.02 30.2301 16.62 30.1801 15.21C30.1001 12.33 30.0501 9.43997 30.0501 6.42997C30.0501 4.91997 30.0601 3.38997 30.1001 1.81997V1.69997L30.0801 1.61997C30.0501 1.42997 30.0201 1.27997 29.9201 1.10997L29.6401 0.799966L29.2801 0.559966C28.7201 0.269966 28.1401 0.139966 27.5901 0.0899658H27.5801H27.5001H27.4101H27.3901L27.3601 0.0999658L27.2901 0.129966L27.2601 0.149966L27.2401 0.169966L27.1701 0.269966L27.1001 0.559966C27.1901 4.20997 27.2001 7.60997 27.2801 11.02C27.2901 11.48 27.3001 11.93 27.3101 12.39C27.3501 14.2 27.3801 16.02 27.3801 17.83V18.05C27.3801 18.99 27.3801 19.93 27.3801 20.87C27.3801 21.14 27.3301 21.5 27.3301 21.84L27.3801 22.32C27.4401 22.53 27.5401 22.68 27.6701 22.76L28.1501 22.88C28.3901 22.88 28.6301 22.83 28.8901 22.83C30.0501 22.8 31.2201 22.78 32.3801 22.76C34.7101 22.73 37.0501 22.71 39.3801 22.69L39.7401 22.65L40.0301 22.52L40.1301 22.37L40.1601 22.18C40.1401 22.01 40.0701 21.84 39.9701 21.65C39.8801 21.48 39.7901 21.31 39.7101 21.15" fill="#3D3935"/>
</g>
<mask id="mask1_99_2" style="mask-type:luminance" maskUnits="userSpaceOnUse" x="0" y="0" width="149" height="43">
<path d="M148.6 0H0V42.02H148.6V0Z" fill="white"/>
</mask>
<g mask="url(#mask1_99_2)">
<path d="M2.6 39.35H4.24V40.21H2.6V41.97H1.67V40.21H0V39.35H1.67V38.61H0.34V35.12H1.66V34.38H0.09V33.53H1.66V32.51H2.59V33.53H4.16V34.38H2.59V35.13H3.96V38.61H2.6V39.35ZM1.18 36.5H3.1V35.87H1.18V36.5ZM1.18 37.87H3.1V37.21H1.18V37.87ZM9.41 34.76V35.51H4.19V34.76H5.66C5.69 34.55 5.72 34.31 5.76 34.06H4.69V33.32H5.84C5.87 33.05 5.9 32.77 5.92 32.53L6.81 32.58C6.79 32.82 6.76 33.06 6.73 33.32H8.66V34.76H9.41ZM7.68 40.16H9.4V40.91H7.68V41.97H6.8V40.91H4.73C4.86 40.48 5.02 39.87 5.14 39.32H4.51V38.57H6.8V38.08H4.88V35.92H8.88V38.08H7.68V38.57H9.21V39.32H7.68V40.16ZM5.76 37.43H7.95V36.55H5.76V37.43ZM6.79 40.16V39.32H5.98C5.92 39.59 5.86 39.89 5.78 40.16H6.79ZM6.63 34.06C6.6 34.31 6.57 34.55 6.53 34.76H7.81V34.06H6.63Z" fill="#3D3935"/>
<path d="M21.2499 32.97V42H20.2999V41.55H13.5599V42H12.6499V32.97H21.2399H21.2499ZM20.2999 33.84H13.5599V40.69H20.2999V33.84ZM19.5399 36.29C19.2899 37.23 18.9099 38.04 18.4399 38.73C18.6199 39.17 18.8399 39.45 19.1099 39.5C19.2299 39.54 19.3299 39.12 19.3899 38.48C19.5499 38.63 19.8299 38.84 19.9999 38.93C19.8599 40.11 19.4199 40.51 18.8299 40.27C18.4499 40.17 18.1399 39.87 17.8899 39.42C17.5299 39.81 17.1199 40.16 16.6599 40.45C16.5599 40.31 16.2799 40 16.1299 39.86C16.4099 39.7 16.6799 39.51 16.9199 39.3C15.9099 39.46 14.8699 39.66 14.0499 39.81L13.9499 39.09C14.6999 38.99 15.8199 38.81 16.9399 38.64L16.9599 39.28C17.1899 39.08 17.3899 38.87 17.5799 38.63C17.3299 37.85 17.1799 36.85 17.0799 35.75H14.0599V35.04H17.0199C16.9999 34.71 16.9799 34.38 16.9599 34.05H17.7499C17.7599 34.38 17.7799 34.72 17.7999 35.04H19.2499C19.0399 34.8 18.5999 34.51 18.2299 34.33L18.6699 33.89C19.0399 34.06 19.4899 34.34 19.7199 34.57L19.2699 35.04H19.8999V35.75H17.8599C17.9299 36.49 18.0399 37.19 18.1599 37.77C18.4399 37.28 18.6399 36.73 18.7999 36.13L19.5599 36.28L19.5399 36.29ZM16.6299 38.28H14.3499V36.3H16.6299V38.28ZM15.9599 36.85H14.9899V37.74H15.9599V36.85Z" fill="#3D3935"/>
<path d="M26.58 35.19C26.46 36.05 26.07 36.55 24.92 36.85C24.86 36.67 24.66 36.4 24.52 36.26C25.42 36.06 25.72 35.76 25.83 35.19H24.72V34.5H26.53V33.85H25.09V33.17H26.53V32.54H27.37V33.17H28.82V33.85H27.37V34.5H29.16V35.19H27.97V35.61C27.97 35.83 27.98 35.9 28.12 35.9H28.65C28.76 35.9 29 35.88 29.12 35.85C29.13 36.03 29.15 36.25 29.17 36.43C29.06 36.48 28.84 36.48 28.67 36.48H27.99C27.38 36.48 27.26 36.22 27.26 35.61V35.19H26.58ZM24.57 41.6C25.05 41.21 25.52 40.49 25.8 39.82L26.72 40.06C26.45 40.76 25.99 41.51 25.48 41.99L24.57 41.61V41.6ZM33.21 38.66C33.27 38.66 33.32 38.65 33.35 38.61C33.38 38.57 33.4 38.47 33.42 38.29C33.44 38.08 33.45 37.65 33.45 37.08C33.61 37.22 33.86 37.36 34.07 37.42C34.06 37.93 34.03 38.58 33.98 38.81C33.93 39.04 33.83 39.19 33.72 39.28C33.6 39.37 33.4 39.41 33.23 39.41H32.81C32.62 39.41 32.39 39.35 32.24 39.2C32.09 39.05 32.04 38.86 32.04 38.15V34.74H31.22C31.19 35.36 31.13 35.94 31.05 36.45C31.43 36.73 31.78 36.98 32.01 37.18L31.59 37.99C31.4 37.81 31.14 37.6 30.85 37.37C30.58 38.29 30.14 39.03 29.43 39.61C29.33 39.46 29.12 39.22 28.95 39.06C27.42 39.22 25.84 39.39 24.71 39.5L24.64 38.7C25.17 38.66 25.82 38.61 26.55 38.55V37.76H24.97V37.06H26.55V36.39H27.39V37.06H28.9V37.76H27.39V38.48C27.97 38.43 28.56 38.38 29.15 38.32V38.7C29.65 38.19 29.94 37.58 30.13 36.82C29.82 36.59 29.51 36.36 29.24 36.17L29.64 35.47L30.29 35.91C30.34 35.54 30.37 35.15 30.39 34.73H29.38V33.89H30.41C30.42 33.45 30.43 32.98 30.43 32.5H31.29C31.29 32.98 31.28 33.45 31.27 33.89H32.92V38.15C32.92 38.4 32.92 38.54 32.95 38.59C32.97 38.62 33.01 38.63 33.06 38.63H33.21V38.66ZM28.44 40.02C28.56 40.59 28.67 41.32 28.68 41.75L27.72 41.87C27.72 41.42 27.65 40.69 27.53 40.11L28.44 40.02ZM30.51 39.94C30.76 40.5 31.01 41.22 31.09 41.68L30.14 41.86C30.07 41.41 29.85 40.66 29.6 40.1L30.51 39.95V39.94ZM32.61 39.78C33.07 40.35 33.64 41.14 33.89 41.66L32.92 41.99C32.69 41.49 32.16 40.67 31.7 40.09L32.62 39.79L32.61 39.78Z" fill="#3D3935"/>
<path d="M40.5501 40.82C39.2801 41.11 37.9501 41.42 36.9401 41.63L36.7201 40.76C37.1601 40.69 37.7301 40.6 38.3601 40.48V37.67H36.8601V36.86H38.3601V35.89H37.4801V35.56C37.3501 35.69 37.2001 35.82 37.0701 35.94C37.0101 35.72 36.7701 35.21 36.6101 34.97C37.3701 34.37 38.1201 33.45 38.5601 32.48L39.3901 32.77C39.3301 32.88 39.2801 33.01 39.2001 33.13C39.7901 33.62 40.4701 34.21 40.8401 34.58L40.3001 35.31C39.9601 34.93 39.3401 34.36 38.7901 33.86C38.5301 34.3 38.2201 34.7 37.9101 35.08H40.0201V35.89H39.1901V36.86H40.4301V37.67H39.1901V40.34L40.4901 40.11L40.5301 40.81L40.5501 40.82ZM37.5901 38.14C37.7601 38.73 37.9301 39.48 38.0101 39.96L37.3201 40.16C37.2601 39.66 37.0801 38.89 36.9301 38.31L37.5901 38.14ZM39.4201 39.85C39.5701 39.36 39.7801 38.57 39.8701 38.04L40.6101 38.24C40.4201 38.87 40.1901 39.58 40.0001 40.03L39.4101 39.85H39.4201ZM45.7801 40.87C45.7801 41.34 45.6801 41.62 45.3501 41.76C45.0301 41.91 44.5101 41.92 43.7401 41.92C43.7101 41.67 43.5901 41.27 43.4701 41.02C44.0001 41.05 44.5101 41.05 44.6601 41.04C44.8101 41.03 44.8701 40.99 44.8701 40.84V39.26C43.9001 39.52 42.9301 39.75 42.1501 39.95L41.8701 39.22C41.8201 40.2 41.6601 41.25 41.2101 42.01C41.0601 41.85 40.6701 41.58 40.4601 41.47C40.9701 40.58 41.0101 39.34 41.0101 38.35V35.38H42.9301V32.51H43.8501V35.38H45.7901V40.85L45.7801 40.87ZM41.6801 35.12C41.5501 34.6 41.1501 33.79 40.7301 33.2L41.5101 32.83C41.9201 33.41 42.3501 34.18 42.5101 34.69L41.6701 35.11L41.6801 35.12ZM41.9001 38.36C41.9001 38.61 41.9001 38.87 41.8801 39.14C42.6601 38.98 43.7601 38.74 44.8801 38.48V36.22H41.9001V38.35V38.36ZM42.3901 36.81C43.1401 36.96 44.1301 37.28 44.6501 37.55L44.2501 38.23C43.7601 37.93 42.7901 37.58 42.0001 37.41L42.3901 36.81ZM46.1001 33.11C45.7701 33.79 45.3801 34.53 45.0401 35.04L44.2501 34.72C44.5801 34.19 45.0001 33.37 45.2201 32.77L46.1101 33.11H46.1001Z" fill="#3D3935"/>
<path d="M62.7301 36.61H53.3601V37.66H62.7301V36.61Z" fill="#3D3935"/>
<path d="M68.9899 38.71C68.9599 38.54 68.9299 38.37 68.8699 38.15C66.5799 38.53 66.2199 38.61 66.0199 38.74C65.9799 38.55 65.8199 38.1 65.7099 37.86C65.9699 37.81 66.1999 37.56 66.5099 37.18C66.6599 37.02 66.9499 36.65 67.2799 36.17C66.3199 36.28 66.0899 36.35 65.9399 36.42C65.8899 36.24 65.7399 35.79 65.6399 35.55C65.8299 35.5 66.0099 35.3 66.2199 34.99C66.4499 34.69 67.1299 33.56 67.5199 32.47L68.4099 32.83C68.0099 33.73 67.4699 34.66 66.9299 35.42L67.8599 35.34C68.1399 34.91 68.3999 34.44 68.6199 33.98L69.4199 34.48C68.7799 35.6 67.9899 36.73 67.1799 37.63L68.6499 37.43C68.5399 37.13 68.4199 36.84 68.2999 36.59L68.9799 36.35C69.2999 37.01 69.6299 37.87 69.7299 38.41L68.9899 38.7V38.71ZM66.8599 39.27C66.7599 40.16 66.5799 41.12 66.3699 41.75C66.1999 41.67 65.8399 41.54 65.6499 41.48C65.8899 40.87 66.0199 39.95 66.0999 39.13L66.8599 39.26V39.27ZM67.9099 39.09C68.0299 39.74 68.1499 40.57 68.1799 41.13L67.4599 41.32C67.4599 40.75 67.3499 39.91 67.2299 39.25L67.9099 39.1V39.09ZM74.7799 36.06C74.5199 37.56 74.0299 38.82 73.3599 39.83C73.8299 40.39 74.3999 40.83 75.0699 41.12C74.8399 41.31 74.5699 41.67 74.4199 41.92C73.7799 41.59 73.2299 41.14 72.7799 40.59C72.2899 41.16 71.7199 41.62 71.1199 41.99C70.9899 41.75 70.7199 41.42 70.5099 41.25C71.1399 40.92 71.7199 40.43 72.2099 39.8C71.7899 39.1 71.4699 38.31 71.2099 37.43C71.0099 39.24 70.6199 40.75 69.8099 41.92C69.6699 41.76 69.2099 41.44 68.9899 41.31C69.1899 41.05 69.3499 40.77 69.5099 40.48L68.8199 40.72C68.7399 40.28 68.5299 39.58 68.3499 39.05L69.0099 38.85C69.2199 39.35 69.4299 40.03 69.5199 40.48C70.2999 38.86 70.4699 36.59 70.4899 33.9H69.5399V33H73.0999L73.2399 32.96L73.8999 33.04C73.7899 33.9 73.6099 34.99 73.4399 35.89H74.0099L74.1899 35.85L74.7899 36.07L74.7799 36.06ZM71.4099 33.89C71.3999 34.59 71.3699 35.25 71.3399 35.89H72.5399C72.6699 35.25 72.7899 34.51 72.8899 33.89H71.4199H71.4099ZM71.8499 36.74C72.0699 37.55 72.3699 38.33 72.7699 39.01C73.1699 38.34 73.4799 37.58 73.6899 36.74H71.8599H71.8499Z" fill="#3D3935"/>
<path d="M80.76 36.74H82.37V37.5299H80.76V38.47H82.2V41.6199H81.29V41.33H79.29V41.83H78.43V38.47H79.86V37.5299H78.17V36.74H79.86V35.86H78.87V35.13C78.65 35.31 78.44 35.4699 78.21 35.6199C78.15 35.4199 77.92 34.9399 77.78 34.7299C78.66 34.1799 79.57 33.35 80.08 32.45L80.88 32.75C80.83 32.85 80.77 32.9499 80.7 33.0499C81.44 33.5599 82.21 34.2 82.62 34.68L82.07 35.4199C81.69 34.9499 80.93 34.2499 80.23 33.7099C79.85 34.1899 79.41 34.67 78.94 35.06H81.66V35.8499H80.75V36.7299L80.76 36.74ZM81.3 39.2599H79.3V40.5499H81.3V39.2599ZM87.25 36.31C87.02 37.07 86.75 37.96 86.5 38.52L85.73 38.34C85.86 38.01 86.01 37.5299 86.15 37.0499H85.19V40.9399C85.19 41.3999 85.12 41.67 84.81 41.81C84.5 41.95 84.05 41.9599 83.39 41.9599C83.36 41.7099 83.24 41.32 83.12 41.07C83.55 41.09 84 41.09 84.12 41.09C84.26 41.09 84.3 41.05 84.3 40.93V37.0499H82.51V36.18H84.88C84.39 35.68 83.64 35.11 82.99 34.72L83.62 34.18C83.94 34.37 84.28 34.6 84.61 34.83C84.94 34.54 85.27 34.16 85.54 33.79H82.82V32.95H86.2L86.4 32.9L86.98 33.31C86.53 34.01 85.89 34.77 85.23 35.32C85.47 35.54 85.69 35.7399 85.85 35.9399L85.54 36.1899H86.49L86.63 36.16L87.27 36.32L87.25 36.31Z" fill="#3D3935"/>
<path d="M94.46 40.37C94.39 40.98 94.29 41.31 94.17 41.48C93.99 41.74 93.8 41.83 93.5 41.87C93.24 41.91 92.82 41.91 92.4 41.88C92.38 41.65 92.3 41.29 92.17 41.07C92.56 41.11 92.91 41.12 93.09 41.11C93.24 41.12 93.33 41.09 93.41 40.96C93.47 40.87 93.53 40.69 93.59 40.37H90.49C90.57 39.78 90.66 39 90.75 38.18H90.09V37.39H90.82C90.87 36.85 90.91 36.32 90.94 35.81C90.87 35.92 90.79 36.04 90.7 36.14C90.55 35.99 90.14 35.72 89.95 35.59C90.57 34.86 91.03 33.68 91.3 32.51L92.19 32.7C92.12 33.01 92.03 33.32 91.93 33.62H95.25V34.45H91.62C91.5 34.75 91.37 35.02 91.24 35.28H94.7C94.7 35.28 94.69 35.58 94.69 35.69C94.67 36.32 94.65 36.87 94.63 37.38H95.37V38.17H94.6C94.58 38.72 94.55 39.19 94.52 39.58H95.31V40.36H94.45L94.46 40.37ZM93.67 39.59C93.7 39.22 93.73 38.74 93.75 38.18H91.6C91.56 38.67 91.51 39.17 91.47 39.59H92.7C92.53 39.25 92.24 38.82 91.93 38.5L92.51 38.19C92.84 38.53 93.19 39.01 93.33 39.34L92.92 39.59H93.68H93.67ZM91.78 36.07C91.74 36.49 91.71 36.95 91.67 37.39H92.75C92.62 37.07 92.35 36.65 92.06 36.35L92.6 36.07H91.79H91.78ZM93.79 37.39C93.8 37 93.81 36.55 93.83 36.07H92.63C92.95 36.4 93.25 36.84 93.37 37.16L92.94 37.39H93.8H93.79ZM98.96 35.32C98.73 36.94 98.36 38.28 97.79 39.39C98.26 40.17 98.86 40.79 99.6 41.22C99.38 41.38 99.09 41.74 98.95 41.99C98.26 41.55 97.71 40.96 97.24 40.25C96.75 40.93 96.14 41.49 95.38 41.95C95.27 41.77 94.95 41.4 94.75 41.24C95.62 40.77 96.26 40.16 96.76 39.39C96.39 38.6 96.1 37.69 95.86 36.68C95.72 36.96 95.58 37.21 95.43 37.43C95.29 37.27 94.94 36.95 94.73 36.79C95.46 35.78 95.94 34.16 96.2 32.51L97.09 32.66C96.98 33.26 96.84 33.86 96.7 34.44H99.49V35.3H98.96V35.32ZM96.44 35.32C96.63 36.44 96.89 37.49 97.29 38.4C97.67 37.52 97.91 36.5 98.06 35.32H96.44Z" fill="#3D3935"/>
<path d="M105.61 32.8299C105.31 33.5599 104.96 34.2899 104.56 34.9799V41.9399H103.64V36.3799C103.35 36.7699 103.04 37.1399 102.73 37.4499C102.64 37.2199 102.37 36.7099 102.19 36.4799C103.19 35.5299 104.14 34.0499 104.7 32.5299L105.6 32.8199L105.61 32.8299ZM107.42 38.9799C106.97 39.8599 106.31 40.8499 105.75 41.4899C105.59 41.3399 105.22 41.0699 105.01 40.9599C105.57 40.3699 106.16 39.5099 106.56 38.7099L107.43 38.9799H107.42ZM108.96 38.2999V41.9799H108V38.2999H105.16V37.4199H108V36.3399H105.88V32.9799H111.21V36.3399H108.96V37.4199H111.76V38.2999H108.96ZM106.78 35.4899H110.25V33.8299H106.78V35.4899ZM110.17 38.6999C110.8 39.4099 111.49 40.3399 111.83 40.9399L111.06 41.4099C110.75 40.7799 110.05 39.7999 109.45 39.0899L110.17 38.6899V38.6999Z" fill="#3D3935"/>
<path d="M116.27 37.2099C115.9 36.8799 115.15 36.4099 114.57 36.1199L115.01 35.3999C115.57 35.6499 116.34 36.0899 116.72 36.4099L116.27 37.2099ZM117.08 38.5599C116.62 39.6199 116.04 40.8299 115.52 41.7899L114.83 41.1299C115.29 40.3699 115.96 39.0699 116.48 37.9199L117.09 38.5599H117.08ZM116.79 34.5099C116.42 34.1599 115.67 33.6799 115.1 33.3599L115.56 32.6499C116.12 32.9399 116.89 33.3899 117.26 33.7199L116.79 34.5099ZM116.88 41.5799C117.33 41.1399 117.72 40.3999 117.94 39.7999L118.69 40.1199C118.44 40.7299 118.09 41.4799 117.64 41.9499L116.88 41.5799ZM119.89 38.0599C120.16 38.5199 120.42 39.1599 120.52 39.5899L119.97 39.8299C119.94 39.6899 119.89 39.5099 119.83 39.3199C118.11 39.5099 117.78 39.5699 117.58 39.6399C117.53 39.5399 117.4 39.2299 117.3 39.0799C117.49 39.0599 117.7 38.9099 117.94 38.6599C118.07 38.5599 118.35 38.2499 118.67 37.8699C117.88 37.9299 117.65 37.9699 117.5 38.0199C117.46 37.8999 117.33 37.6299 117.24 37.4899C117.39 37.4599 117.51 37.3699 117.65 37.1999C117.79 37.0599 118.21 36.4999 118.44 35.9399H117.66V32.8799H123.24V35.9399H118.58L119.18 36.1899C118.98 36.5499 118.73 36.9199 118.45 37.2399L119.16 37.1999C119.28 37.0199 119.42 36.8299 119.52 36.6299L120.2 36.9999C119.79 37.6099 119.25 38.2599 118.67 38.7899L119.59 38.7099C119.52 38.5599 119.45 38.3899 119.36 38.2499L119.88 38.0499L119.89 38.0599ZM118.54 34.1099H122.33V33.5399H118.54V34.1099ZM118.54 35.3099H122.33V34.7199H118.54V35.3099ZM119.98 40.0199C120.13 40.5699 120.27 41.2899 120.29 41.7499L119.51 41.8999C119.5 41.4299 119.37 40.6899 119.23 40.1399L119.98 40.0199ZM123.41 39.8599C123.37 39.7199 123.31 39.5299 123.22 39.3399C121.38 39.5399 121.04 39.5999 120.83 39.6799C120.79 39.5599 120.66 39.2699 120.55 39.1199C120.76 39.0899 120.95 38.9399 121.2 38.6999C121.33 38.5999 121.6 38.3099 121.91 37.9499C121.1 38.0099 120.87 38.0499 120.72 38.0999C120.67 37.9899 120.56 37.7099 120.45 37.5699C120.6 37.5399 120.72 37.4399 120.87 37.2899C121 37.1299 121.46 36.5499 121.68 35.9899L122.4 36.2899C122.19 36.6399 121.95 36.9999 121.67 37.3199L122.4 37.2799C122.54 37.0699 122.68 36.8699 122.8 36.6599L123.48 37.0399C123.06 37.6399 122.53 38.2699 121.95 38.8099L122.93 38.7199C122.85 38.5899 122.76 38.4399 122.68 38.3099L123.19 38.0699C123.51 38.5399 123.82 39.1599 123.95 39.5799L123.39 39.8399L123.41 39.8599ZM121.38 39.9499C121.66 40.4699 121.95 41.1699 122.06 41.6199L121.31 41.8799C121.21 41.4299 120.94 40.7199 120.67 40.1799L121.38 39.9499ZM122.87 39.7699C123.32 40.3499 123.77 41.1299 123.97 41.6499L123.22 41.9899C123.04 41.4599 122.58 40.6599 122.16 40.0699L122.87 39.7599V39.7699Z" fill="#3D3935"/>
<path d="M127.32 37.4599H131.05V41.9H130.1V41.4399H128.22V41.9799H127.31V37.47L127.32 37.4599ZM128.23 40.52H130.11V38.38H128.23V40.52ZM134.54 36.4599H128.78V32.95H134.54V36.4599ZM133.56 33.86H129.7V35.54H133.56V33.86ZM135.98 37.4599V41.9199H135.02V41.4399H132.98V41.9799H132.06V37.47H135.97L135.98 37.4599ZM135.02 38.38H132.98V40.52H135.02V38.38Z" fill="#3D3935"/>
<path d="M141.61 32.5199H142.4V36.1099H140.66V36.6199C140.66 36.8899 140.66 37.1499 140.66 37.4499H142.4V41.9699H141.52V38.2599H140.62C140.54 39.5299 140.36 40.8999 139.94 41.9699C139.73 41.8799 139.33 41.7399 139.09 41.6699C139.7 40.2099 139.79 38.0699 139.79 36.6099V32.7499H140.67V35.2799H141.62V32.5199H141.61ZM148.59 39.9299H146.89V41.9599H146.02V39.9299H142.67V39.0899H143.71C143.58 38.9699 143.42 38.8399 143.29 38.7599C143.77 38.4399 144.14 38.0799 144.41 37.7099H143.03V33.5799H144.46C144.61 33.2499 144.8 32.8399 144.88 32.5399L145.95 32.6799C145.78 32.9999 145.62 33.3099 145.48 33.5799H148.11V37.7099H145.37C145.11 38.1899 144.75 38.6799 144.25 39.0899H146.02V37.9399H146.89V39.0899H148.58V39.9299H148.59ZM143.92 35.2699H145.16V34.3399H143.92V35.2699ZM144.85 36.9399C144.99 36.6099 145.08 36.2799 145.12 35.9999H143.93V36.9399H144.86H144.85ZM147.19 35.9999H145.97C145.92 36.2599 145.85 36.5899 145.73 36.9399H147.18V35.9999H147.19ZM147.19 34.3399H146.02V35.2699H147.19V34.3399Z" fill="#3D3935"/>
</g>
</g>
<defs>
<clipPath id="clip0_99_2">
<rect width="148.6" height="42.02" fill="white"/>
</clipPath>
</defs>
</svg>
