<svg width="130" height="98" viewBox="0 0 130 98" fill="none" xmlns="http://www.w3.org/2000/svg">
<g clip-path="url(#clip0_99_68)">
<mask id="mask0_99_68" style="mask-type:luminance" maskUnits="userSpaceOnUse" x="0" y="0" width="130" height="99">
<path d="M129.43 0H0V98.01H129.43V0Z" fill="white"/>
</mask>
<g mask="url(#mask0_99_68)">
<path d="M52.34 29.3L52.19 29.33C52.12 29.33 52.05 29.31 51.99 29.27C51.89 29.2 51.82 29.09 51.82 28.96V20.87L51.54 20.18V19.82H57.34C57.4 19.77 57.44 19.74 57.5 19.69L58.35 15.36C58.35 15.36 58.31 15.13 58.28 15.1C58.22 15.03 58.13 14.99 58.04 14.99H56.28C56.2 14.99 56.13 15.05 56.12 15.13C56.08 15.51 55.84 15.84 55.49 15.99H54C53.8 15.99 53.63 15.83 53.63 15.63V7.9H64.84C64.93 7.9 65 7.83 65 7.74V6.88L67.15 7.83C67.36 7.9 67.5 8.1 67.5 8.33V16.45C67.5 16.57 67.43 16.69 67.33 16.76C67.27 16.8 67.2 16.82 67.13 16.82L65.64 15.98C65.29 15.83 65.05 15.5 65.01 15.12C65.01 15.04 64.93 14.98 64.85 14.98H61.16C61.11 15.02 61.07 15.04 61.02 15.08L59.26 19.56C59.26 19.56 59.22 19.67 59.25 19.73C59.28 19.78 59.33 19.82 59.39 19.82H66.64C66.73 19.82 66.8 19.75 66.8 19.66V18.81L68.98 19.93C69.18 20.01 69.31 20.21 69.31 20.42V28.1C69.31 28.3 69.14 28.47 68.93 28.47H67.67C67.21 28.47 66.82 28.11 66.8 27.66C66.74 27.59 66.7 27.56 66.64 27.49H54.5C54.42 27.49 54.35 27.56 54.34 27.64L52.35 29.3H52.34ZM54.48 20.97C54.39 20.97 54.32 21.04 54.32 21.13V26.18C54.32 26.27 54.39 26.34 54.48 26.34H66.62C66.62 26.34 66.7 26.32 66.73 26.29C66.76 26.26 66.78 26.22 66.78 26.18V21.13C66.72 21.07 66.68 21.03 66.62 20.97H54.49H54.48ZM56.27 9.05C56.18 9.05 56.11 9.12 56.11 9.21V13.68C56.11 13.77 56.18 13.84 56.27 13.84H64.82C64.91 13.84 64.98 13.77 64.98 13.68V9.21C64.98 9.12 64.91 9.05 64.82 9.05H56.27Z" fill="#221E1F"/>
<path d="M60.51 -1.95317e-05L60.55 0.97998C62.68 0.97998 63.13 1.01998 63.2 1.01998C70.72 1.23998 74.52 6.98998 74.49 18.11C74.46 31.12 69.71 33.91 65.59 34.9C64.81 35.09 64 35.15 63.31 35.18C62.29 35.23 61.29 35.26 60.33 35.26C59.51 35.26 58.71 35.24 57.94 35.2C54.56 35.04 51.55 33.81 49.89 31.93C47.34 29.04 46.35 22.59 46.33 19.21C46.3 14.77 46.46 12.27 47.56 8.28998C48.7 4.15998 53.06 1.10998 57.93 1.02998L58.93 1.00998C59.44 0.99998 59.89 0.98998 60.49 0.98998V-1.95317e-05H60.51ZM60.51 -1.95317e-05C59.56 -1.95317e-05 58.97 0.0299805 57.93 0.0399805C52.66 0.11998 47.91 3.38998 46.63 8.00998C45.5 12.11 45.33 14.66 45.36 19.2C45.39 22.87 46.42 29.45 49.17 32.56C51 34.64 54.27 35.98 57.9 36.16C58.68 36.2 59.5 36.22 60.34 36.22C61.32 36.22 62.33 36.19 63.36 36.14C64.09 36.1 64.95 36.04 65.81 35.83C74.33 33.8 75.44 25.28 75.46 18.09C75.49 6.49998 71.26 0.25998 63.22 0.0199805C63.22 0.0199805 62.81 -0.0200195 60.54 -0.0200195H60.5L60.51 -1.95317e-05Z" fill="#221E1F"/>
<path d="M61.03 0.0300293H59.99V0.980029H61.03V0.0300293Z" fill="#221E1F"/>
<path d="M19.38 76.41C18.92 73.81 22.15 72.64 25.9 71.28C31.02 69.43 37.39 67.12 37.58 60.2C37.65 57.5 36.86 55.28 35.22 53.6C32.66 50.97 28.09 49.63 21.65 49.63H0V97.12H7.93V52.14L18.87 52.12C23.91 52.22 29.26 54.59 29.16 60.94C29.09 65.33 25.52 67.51 22.08 69.61C18.48 71.81 15.09 73.88 15.29 78.25C15.42 81.13 17.62 85.06 21.83 89.94C25.27 93.94 28.7 96.98 28.74 97.02L28.81 97.08L40.37 97.11H40.53H42.33L41.51 96.55C37.99 94.14 20.37 81.84 19.4 76.4" fill="#221E1F"/>
<path d="M105.43 48.78C91.0701 48.78 81.4301 58.67 81.4301 73.39C81.4301 88.11 91.0801 98 105.43 98C119.78 98 129.43 88.11 129.43 73.39C129.43 58.67 119.78 48.78 105.43 48.78ZM109.24 94.87C108.31 95.06 107.36 95.16 106.43 95.16C103.14 95.16 100.04 93.95 97.4601 91.67C93.8201 88.45 91.2901 83.22 90.1401 76.56C88.9801 69.89 89.5601 64.02 91.8101 59.59C93.9101 55.46 97.3001 52.81 101.61 51.92C102.55 51.73 103.49 51.63 104.42 51.63C107.71 51.63 110.81 52.84 113.39 55.13C117.03 58.35 119.56 63.58 120.72 70.23C122.98 83.29 118.48 92.96 109.24 94.88" fill="#221E1F"/>
<path d="M81.46 50.08L81.71 49.63H77.58L63.99 73.54C63.85 73.78 63.64 73.94 63.38 74C63.12 74.06 62.84 74.02 62.62 73.88C62.48 73.8 62.38 73.69 62.3 73.56L47.58 49.74L47.51 49.63H39.1L57.18 78.66V97.13H64.95V78.88L65 78.57L81.45 50.09L81.46 50.08Z" fill="#221E1F"/>
</g>
</g>
<defs>
<clipPath id="clip0_99_68">
<rect width="129.43" height="98.01" fill="white"/>
</clipPath>
</defs>
</svg>
