<svg width="21" height="18" viewBox="0 0 21 18" fill="none" xmlns="http://www.w3.org/2000/svg">
<path fill-rule="evenodd" clip-rule="evenodd" d="M0 1C0 0.447715 0.447715 0 1 0H19.1C19.6523 0 20.1 0.447715 20.1 1C20.1 1.55228 19.6523 2 19.1 2H1C0.447715 2 0 1.55228 0 1ZM0 8.99805C0 8.44576 0.447715 7.99805 1 7.99805H19.1C19.6523 7.99805 20.1 8.44576 20.1 8.99805C20.1 9.55033 19.6523 9.99805 19.1 9.99805H1C0.447715 9.99805 0 9.55033 0 8.99805ZM0 16.999C0 16.4467 0.447715 15.999 1 15.999H19.1C19.6523 15.999 20.1 16.4467 20.1 16.999C20.1 17.5513 19.6523 17.999 19.1 17.999H1C0.447715 17.999 0 17.5513 0 16.999Z" fill="#8DA24C"/>
</svg>
