<svg width="1467" height="671" viewBox="0 0 1467 671" fill="none" xmlns="http://www.w3.org/2000/svg">
<g opacity="0.58">
<mask id="mask0_102_497" style="mask-type:luminance" maskUnits="userSpaceOnUse" x="62" y="8" width="1406" height="655">
<path d="M1467.01 72.4166L90.5054 8.22461L62.993 598.188L1439.5 662.38L1467.01 72.4166Z" fill="white"/>
</mask>
<g mask="url(#mask0_102_497)">
<path d="M1420.06 70.2272L1074.55 54.1145C1073.85 69.1469 1061.02 80.8325 1045.99 80.1315C1030.95 79.4304 1019.5 66.6125 1020.2 51.5801L137.453 10.414C111.319 9.19525 89.5239 29.2699 88.316 55.1719L65.1823 551.241C63.9744 577.143 84.0383 599.169 109.94 600.377L992.688 641.543C993.389 626.511 1006.22 614.825 1021.25 615.526C1036.28 616.228 1047.97 629.056 1047.27 644.089L1392.78 660.201C1418.68 661.409 1440.71 641.345 1441.92 615.443L1465.05 119.375C1466.03 93.4619 1445.96 71.4351 1420.06 70.2272Z" fill="white"/>
</g>
<mask id="mask1_102_497" style="mask-type:luminance" maskUnits="userSpaceOnUse" x="62" y="8" width="1406" height="655">
<path d="M1467.01 72.4166L90.5054 8.22461L62.993 598.188L1439.5 662.38L1467.01 72.4166Z" fill="white"/>
</mask>
<g mask="url(#mask1_102_497)">
<path d="M1461.96 180.65L1464.82 119.364C1466.03 93.4619 1445.96 71.4351 1420.06 70.2272L1074.55 54.1145C1073.85 69.1469 1061.02 80.8325 1045.99 80.1315C1030.95 79.4304 1019.5 66.6125 1020.2 51.5801L137.453 10.414C111.319 9.19525 89.5239 29.2699 88.316 55.1719L85.458 116.458L1461.96 180.65Z" fill="#A2B361"/>
</g>
<path d="M1417.97 115.515C1418.2 110.748 1420.66 108.134 1425.22 108.346C1429.77 108.558 1431.99 111.391 1431.76 116.158L1431.72 117.094L1427.29 116.888L1427.35 115.654C1427.45 113.526 1426.64 112.677 1425.15 112.608C1423.66 112.538 1422.77 113.307 1422.67 115.435C1422.57 117.606 1423.43 119.267 1426.37 122.091C1430.12 125.721 1431.24 128.247 1431.08 131.651C1430.86 136.418 1428.35 139.03 1423.75 138.816C1419.16 138.602 1416.9 135.767 1417.12 131L1417.21 129.17L1421.64 129.377L1421.54 131.505C1421.44 133.633 1422.34 134.442 1423.83 134.512C1425.32 134.581 1426.29 133.859 1426.39 131.731C1426.49 129.56 1425.63 127.899 1422.69 125.075C1418.93 121.446 1417.82 118.92 1417.97 115.515Z" fill="#E4E9B8"/>
<path d="M1402.06 114.772C1402.28 110.006 1404.75 107.391 1409.3 107.604C1413.85 107.816 1416.07 110.649 1415.85 115.415L1415.8 116.352L1411.38 116.145L1411.43 114.911C1411.53 112.783 1410.72 111.935 1409.23 111.865C1407.74 111.796 1406.85 112.565 1406.75 114.693C1406.65 116.863 1407.51 118.524 1410.45 121.348C1414.21 124.978 1415.32 127.504 1415.17 130.909C1414.94 135.675 1412.43 138.288 1407.84 138.074C1403.24 137.859 1400.98 135.024 1401.21 130.258L1401.29 128.428L1405.72 128.634L1405.62 130.762C1405.52 132.89 1406.42 133.7 1407.91 133.769C1409.4 133.839 1410.37 133.116 1410.47 130.988C1410.57 128.818 1409.71 127.157 1406.77 124.333C1403.02 120.703 1401.9 118.177 1402.06 114.772Z" fill="#E4E9B8"/>
<path d="M1396.04 107.326L1399.42 137.34L1394.69 137.12L1394.14 131.677L1388.39 131.409L1387.33 136.776L1383.03 136.576L1389.19 107.007L1396.04 107.326ZM1392.09 112.431L1389.17 127.394L1393.69 127.604L1392.17 112.435L1392.09 112.431Z" fill="#E4E9B8"/>
<path d="M1377.05 106.441C1381.73 106.659 1383.91 109.362 1383.68 114.129L1383.5 118.002C1383.28 122.768 1380.86 125.257 1376.18 125.039L1373.97 124.936L1373.44 136.129L1368.76 135.91L1370.15 106.119L1377.05 106.441ZM1376.85 110.697L1374.64 110.593L1374.16 120.68L1376.38 120.783C1377.87 120.852 1378.71 120.209 1378.81 118.081L1379.02 113.613C1379.11 111.485 1378.34 110.766 1376.85 110.697Z" fill="#E4E9B8"/>
<path d="M1353.17 122.814L1353.37 118.558L1359.92 118.864L1359.48 128.312C1359.26 133.079 1356.75 135.691 1352.15 135.477C1347.56 135.263 1345.3 132.428 1345.52 127.661L1346.24 112.17C1346.47 107.403 1348.98 104.791 1353.57 105.005C1358.17 105.219 1360.43 108.054 1360.2 112.821L1360.07 115.715L1355.64 115.508L1355.79 112.316C1355.89 110.189 1354.99 109.336 1353.5 109.267C1352.01 109.197 1351.04 109.962 1350.94 112.09L1350.19 128.177C1350.09 130.305 1350.99 131.115 1352.48 131.185C1353.97 131.254 1354.94 130.532 1355.04 128.404L1355.3 122.914L1353.17 122.814Z" fill="#E4E9B8"/>
<path d="M1337.41 134.448L1332.67 112.603L1332.59 112.599L1331.58 134.176L1327.37 133.98L1328.76 104.189L1334.63 104.463L1338.52 122.515L1338.61 122.519L1339.44 104.687L1343.61 104.881L1342.22 134.673L1337.41 134.448Z" fill="#E4E9B8"/>
<path d="M1319.31 133.604L1320.69 103.813L1325.38 104.031L1323.99 133.822L1319.31 133.604Z" fill="#E4E9B8"/>
<path d="M1301.93 132.794L1303.32 103.003L1310.73 103.348C1315.41 103.566 1317.59 106.27 1317.36 111.036L1316.66 126.102C1316.44 130.869 1314.02 133.357 1309.34 133.139L1301.93 132.794ZM1310.44 107.6L1307.81 107.477L1306.81 128.756L1309.45 128.879C1310.94 128.949 1311.87 128.224 1311.97 126.096L1312.69 110.605C1312.79 108.477 1311.93 107.669 1310.44 107.6Z" fill="#E4E9B8"/>
<path d="M1299.36 132.674L1294.6 132.452C1294.38 131.674 1294.23 131.198 1294.34 128.772L1294.56 124.09C1294.69 121.324 1293.8 120.259 1291.67 120.16L1290.06 120.084L1289.49 132.214L1284.81 131.995L1286.2 102.204L1293.26 102.534C1298.12 102.76 1300.1 105.113 1299.88 109.709L1299.77 112.05C1299.63 115.114 1298.56 117.026 1296.43 117.908L1296.42 117.993C1298.72 119.081 1299.38 121.33 1299.24 124.436L1299.02 129.033C1298.96 130.48 1298.95 131.546 1299.36 132.674ZM1292.94 106.783L1290.68 106.678L1290.26 115.828L1292.09 115.914C1293.83 115.995 1294.93 115.279 1295.04 112.895L1295.18 109.959C1295.28 107.831 1294.6 106.861 1292.94 106.783Z" fill="#E4E9B8"/>
<path d="M1279.25 101.88L1282.63 131.894L1277.91 131.673L1277.35 126.231L1271.6 125.963L1270.54 131.33L1266.24 131.13L1272.4 101.561L1279.25 101.88ZM1275.3 106.985L1272.39 121.947L1276.9 122.158L1275.39 106.989L1275.3 106.985Z" fill="#E4E9B8"/>
<path d="M1256.01 107.663L1255.26 123.75C1255.17 125.878 1256.06 126.731 1257.55 126.8C1259.04 126.87 1260.02 126.105 1260.12 123.977L1260.87 107.889C1260.97 105.762 1260.07 104.909 1258.58 104.84C1257.09 104.77 1256.11 105.535 1256.01 107.663ZM1250.6 123.234L1251.32 107.743C1251.54 102.976 1254.18 100.37 1258.78 100.584C1263.37 100.798 1265.76 103.639 1265.53 108.406L1264.81 123.897C1264.59 128.664 1261.95 131.27 1257.36 131.056C1252.76 130.842 1250.37 128.001 1250.6 123.234Z" fill="#E4E9B8"/>
<path d="M1241.81 100.134C1246.66 100.36 1248.64 102.713 1248.43 107.309L1248.38 108.373C1248.24 111.438 1247.21 113.309 1245.08 114.191L1245.07 114.276C1247.54 115.372 1248.42 117.63 1248.27 120.78L1248.16 123.206C1247.94 127.802 1245.4 130.157 1240.72 129.939L1233.36 129.596L1234.75 99.8044L1241.81 100.134ZM1240.75 116.505L1238.66 116.408L1238.24 125.558L1240.92 125.683C1242.49 125.756 1243.38 125.073 1243.48 122.86L1243.6 120.264C1243.73 117.497 1242.88 116.604 1240.75 116.505ZM1241.48 104.384L1239.23 104.279L1238.86 112.152L1240.69 112.237C1242.44 112.319 1243.54 111.602 1243.65 109.219L1243.72 107.559C1243.82 105.431 1243.14 104.461 1241.48 104.384Z" fill="#E4E9B8"/>
<path d="M1017.42 603.296C1017.5 601.446 1018.96 600.123 1020.81 600.209C1022.66 600.295 1023.98 601.748 1023.89 603.598C1023.81 605.448 1022.35 606.771 1020.5 606.685C1018.88 606.609 1017.33 605.146 1017.42 603.296ZM1018.03 590.114C1018.12 588.264 1019.57 586.941 1021.42 587.027C1023.27 587.113 1024.59 588.566 1024.51 590.416C1024.42 592.266 1022.97 593.589 1021.12 593.502C1019.49 593.658 1017.95 591.964 1018.03 590.114ZM1018.64 577.163C1018.72 575.313 1020.17 573.99 1022.02 574.076C1023.87 574.162 1025.2 575.615 1025.11 577.465C1025.03 579.315 1023.57 580.638 1021.72 580.551C1020.1 580.476 1018.55 579.013 1018.64 577.163ZM1019.25 563.981C1019.34 562.13 1020.79 560.807 1022.64 560.894C1024.49 560.98 1025.81 562.432 1025.73 564.282C1025.64 566.133 1024.19 567.456 1022.34 567.369C1020.72 567.294 1019.16 565.831 1019.25 563.981ZM1019.87 550.798C1019.95 548.948 1021.4 547.625 1023.25 547.711C1025.1 547.798 1026.43 549.25 1026.34 551.1C1026.25 552.95 1024.8 554.273 1022.95 554.187C1021.32 554.343 1019.78 552.648 1019.87 550.798ZM1020.47 537.847C1020.56 535.997 1022.01 534.674 1023.86 534.761C1025.71 534.847 1027.03 536.299 1026.94 538.149C1026.86 539.999 1025.41 541.322 1023.56 541.236C1021.94 541.161 1020.38 539.697 1020.47 537.847ZM1021.08 524.665C1021.17 522.815 1022.62 521.492 1024.47 521.578C1026.32 521.665 1027.65 523.117 1027.56 524.967C1027.47 526.817 1026.02 528.14 1024.17 528.054C1022.55 527.978 1021 526.515 1021.08 524.665ZM1021.7 511.483C1021.78 509.633 1023.24 508.31 1025.09 508.396C1026.94 508.482 1028.26 509.935 1028.17 511.785C1028.09 513.635 1026.64 514.958 1024.79 514.872C1023.16 515.027 1021.61 513.333 1021.7 511.483ZM1022.3 498.532C1022.39 496.682 1023.84 495.359 1025.69 495.445C1027.54 495.531 1028.86 496.984 1028.78 498.834C1028.69 500.684 1027.24 502.007 1025.39 501.921C1023.77 501.845 1022.23 500.151 1022.3 498.532ZM1022.92 485.35C1023 483.499 1024.46 482.177 1026.31 482.263C1028.16 482.349 1029.48 483.801 1029.39 485.652C1029.31 487.502 1027.85 488.825 1026 488.738C1024.39 488.663 1022.83 487.2 1022.92 485.35ZM1023.53 472.167C1023.62 470.317 1025.07 468.994 1026.92 469.081C1028.77 469.167 1030.09 470.619 1030.01 472.469C1029.92 474.319 1028.47 475.642 1026.62 475.556C1025 475.481 1023.45 474.017 1023.53 472.167ZM1024.15 458.985C1024.23 457.135 1025.69 455.812 1027.54 455.898C1029.39 455.985 1030.71 457.437 1030.62 459.287C1030.54 461.137 1029.08 462.46 1027.23 462.374C1025.6 462.53 1024.06 460.835 1024.15 458.985ZM1024.75 446.034C1024.84 444.184 1026.29 442.861 1028.14 442.947C1029.99 443.034 1031.31 444.486 1031.23 446.336C1031.14 448.186 1029.69 449.509 1027.84 449.423C1026.22 449.347 1024.66 447.884 1024.75 446.034ZM1025.37 432.852C1025.45 431.002 1026.9 429.679 1028.75 429.765C1030.6 429.851 1031.93 431.304 1031.84 433.154C1031.75 435.004 1030.3 436.327 1028.45 436.241C1026.83 436.165 1025.28 434.702 1025.37 432.852ZM1025.98 419.67C1026.07 417.819 1027.52 416.497 1029.37 416.583C1031.22 416.669 1032.54 418.121 1032.46 419.972C1032.37 421.822 1030.92 423.145 1029.07 423.058C1027.44 423.214 1025.89 421.52 1025.98 419.67ZM1026.58 406.719C1026.67 404.868 1028.12 403.546 1029.97 403.632C1031.82 403.718 1033.15 405.17 1033.06 407.021C1032.97 408.871 1031.52 410.194 1029.67 410.107C1028.05 410.032 1026.5 408.569 1026.58 406.719ZM1027.2 393.536C1027.29 391.686 1028.74 390.363 1030.59 390.45C1032.44 390.536 1033.76 391.988 1033.67 393.838C1033.59 395.688 1032.14 397.011 1030.29 396.925C1028.67 396.85 1027.11 395.386 1027.2 393.536ZM1027.81 380.354C1027.9 378.504 1029.35 377.181 1031.2 377.267C1033.05 377.354 1034.38 378.806 1034.29 380.656C1034.2 382.506 1032.75 383.829 1030.9 383.743C1029.27 383.899 1027.73 382.204 1027.81 380.354ZM1028.42 367.403C1028.5 365.553 1029.96 364.23 1031.81 364.316C1033.66 364.403 1034.98 365.855 1034.89 367.705C1034.81 369.555 1033.35 370.878 1031.5 370.792C1029.89 370.716 1028.34 369.022 1028.42 367.403ZM1029.03 354.221C1029.12 352.371 1030.57 351.048 1032.42 351.134C1034.27 351.22 1035.59 352.673 1035.51 354.523C1035.42 356.373 1033.97 357.696 1032.12 357.61C1030.5 357.534 1028.95 356.071 1029.03 354.221ZM1029.65 341.039C1029.73 339.189 1031.19 337.866 1033.04 337.952C1034.89 338.038 1036.21 339.49 1036.12 341.341C1036.04 343.191 1034.58 344.514 1032.73 344.427C1031.1 344.583 1029.56 342.889 1029.65 341.039ZM1030.25 328.088C1030.34 326.238 1031.79 324.915 1033.64 325.001C1035.49 325.087 1036.81 326.54 1036.73 328.39C1036.64 330.24 1035.19 331.563 1033.34 331.476C1031.72 331.401 1030.16 329.938 1030.25 328.088ZM1030.87 314.905C1030.95 313.055 1032.4 311.732 1034.25 311.819C1036.1 311.905 1037.43 313.357 1037.34 315.207C1037.26 317.058 1035.8 318.38 1033.95 318.294C1032.33 318.219 1030.78 316.756 1030.87 314.905ZM1031.48 301.723C1031.57 299.873 1033.02 298.55 1034.87 298.636C1036.72 298.723 1038.04 300.175 1037.96 302.025C1037.87 303.875 1036.42 305.198 1034.57 305.112C1032.94 305.268 1031.39 303.573 1031.48 301.723ZM1032.1 288.541C1032.18 286.691 1033.63 285.368 1035.48 285.454C1037.33 285.54 1038.66 286.993 1038.57 288.843C1038.48 290.693 1037.03 292.016 1035.18 291.93C1033.55 292.085 1032.01 290.391 1032.1 288.541ZM1032.7 275.59C1032.79 273.74 1034.24 272.417 1036.09 272.503C1037.94 272.589 1039.26 274.042 1039.17 275.892C1039.09 277.742 1037.64 279.065 1035.79 278.979C1034.17 278.903 1032.61 277.44 1032.7 275.59ZM1033.31 262.408C1033.4 260.558 1034.85 259.235 1036.7 259.321C1038.55 259.407 1039.88 260.86 1039.79 262.71C1039.7 264.56 1038.25 265.883 1036.4 265.796C1034.78 265.721 1033.23 264.258 1033.31 262.408ZM1033.93 249.225C1034.02 247.375 1035.47 246.052 1037.32 246.139C1039.17 246.225 1040.49 247.677 1040.4 249.527C1040.32 251.378 1038.87 252.7 1037.02 252.614C1035.39 252.77 1033.84 251.076 1033.93 249.225ZM1034.53 236.274C1034.62 234.424 1036.07 233.101 1037.92 233.188C1039.77 233.274 1041.09 234.726 1041.01 236.576C1040.92 238.427 1039.47 239.75 1037.62 239.663C1036 239.588 1034.45 238.125 1034.53 236.274ZM1035.15 223.092C1035.23 221.242 1036.69 219.919 1038.54 220.005C1040.39 220.092 1041.71 221.544 1041.62 223.394C1041.54 225.244 1040.08 226.567 1038.23 226.481C1036.62 226.405 1035.06 224.942 1035.15 223.092ZM1035.76 209.91C1035.85 208.06 1037.3 206.737 1039.15 206.823C1041 206.91 1042.32 208.362 1042.24 210.212C1042.15 212.062 1040.7 213.385 1038.85 213.299C1037.22 213.455 1035.68 211.76 1035.76 209.91ZM1036.37 196.959C1036.45 195.109 1037.9 193.786 1039.75 193.872C1041.61 193.959 1042.93 195.411 1042.84 197.261C1042.76 199.111 1041.3 200.434 1039.45 200.348C1037.83 200.272 1036.29 198.578 1036.37 196.959ZM1036.98 183.777C1037.07 181.927 1038.52 180.604 1040.37 180.69C1042.22 180.776 1043.54 182.229 1043.46 184.079C1043.37 185.929 1041.92 187.252 1040.07 187.165C1038.45 187.09 1036.89 185.627 1036.98 183.777ZM1037.6 170.595C1037.68 168.744 1039.13 167.421 1040.98 167.508C1042.83 167.594 1044.16 169.046 1044.07 170.897C1043.98 172.747 1042.53 174.07 1040.68 173.983C1039.05 174.139 1037.51 172.445 1037.6 170.595ZM1038.2 157.644C1038.29 155.793 1039.74 154.471 1041.59 154.557C1043.44 154.643 1044.76 156.095 1044.68 157.946C1044.59 159.796 1043.14 161.119 1041.29 161.032C1039.67 160.957 1038.12 159.262 1038.2 157.644ZM1038.81 144.461C1038.9 142.611 1040.35 141.288 1042.2 141.375C1044.05 141.461 1045.38 142.913 1045.29 144.763C1045.2 146.613 1043.75 147.936 1041.9 147.85C1040.28 147.775 1038.73 146.311 1038.81 144.461ZM1039.43 131.279C1039.52 129.429 1040.97 128.106 1042.82 128.192C1044.67 128.279 1045.99 129.731 1045.9 131.581C1045.82 133.431 1044.37 134.754 1042.52 134.668C1040.9 134.592 1039.34 133.129 1039.43 131.279ZM1040.04 118.097C1040.13 116.247 1041.58 114.924 1043.43 115.01C1045.28 115.096 1046.61 116.549 1046.52 118.399C1046.43 120.249 1044.98 121.572 1043.13 121.486C1041.5 121.641 1039.96 119.947 1040.04 118.097ZM1040.65 105.146C1040.73 103.296 1042.19 101.973 1044.04 102.059C1045.89 102.145 1047.21 103.598 1047.12 105.448C1047.04 107.298 1045.58 108.621 1043.73 108.535C1042.12 108.459 1040.56 106.996 1040.65 105.146ZM1041.26 91.9636C1041.35 90.1134 1042.8 88.7905 1044.65 88.8768C1046.5 88.9631 1047.82 90.4154 1047.74 92.2656C1047.65 94.1157 1046.2 95.4386 1044.35 95.3523C1042.73 95.2768 1041.18 93.8137 1041.26 91.9636Z" fill="#E3EAB8"/>
<mask id="mask2_102_497" style="mask-type:luminance" maskUnits="userSpaceOnUse" x="65" y="10" width="936" height="631">
<path d="M137.453 10.414C111.319 9.19525 89.5239 29.2699 88.316 55.1719L65.1823 551.241C63.9744 577.143 84.0383 599.169 109.94 600.377L972.799 640.616L1000.31 50.6526L137.453 10.414Z" fill="white"/>
</mask>
<g mask="url(#mask2_102_497)">
<path d="M911.846 605.789L915.574 600.4L929.165 602.193L922.052 625.502L922.756 625.303C924.859 624.937 926.774 623.636 928.017 621.84L931.018 617.112L934.256 617.263C935.181 617.307 935.676 616.634 935.708 615.941L935.73 615.478C935.773 614.553 935.101 614.058 934.407 614.026L933.251 613.972L934.757 611.493L938.226 611.654C939.151 611.697 939.646 611.025 939.678 610.331L939.7 609.869C939.743 608.944 939.071 608.449 938.377 608.417L936.989 608.352L940.486 602.952C956.368 605.315 958.455 600.314 958.455 600.314C958.455 600.314 956.843 595.14 940.81 596.014L937.831 590.313L939.218 590.378C940.143 590.421 940.638 589.749 940.671 589.055L940.692 588.592C940.735 587.667 940.063 587.172 939.369 587.14L935.9 586.978L934.631 584.37L935.788 584.423C936.713 584.467 937.208 583.794 937.24 583.101L937.261 582.638C937.305 581.713 936.632 581.218 935.939 581.186L932.701 581.035L930.152 576.049C929.082 574.145 927.528 572.682 925.237 572.111L924.554 571.848L929.467 595.717L915.768 596.237L912.558 590.525C911.929 589.105 910.353 588.105 908.965 588.04L907.357 587.733L909.271 596.398L906.883 597.909L909.12 599.636L906.408 608.085L908.038 607.929C909.657 608.004 911.087 607.144 911.846 605.789Z" fill="#D6DC9C"/>
</g>
<mask id="mask3_102_497" style="mask-type:luminance" maskUnits="userSpaceOnUse" x="65" y="10" width="936" height="631">
<path d="M137.453 10.414C111.319 9.19525 89.5239 29.2699 88.316 55.1719L65.1823 551.241C63.9744 577.143 84.0383 599.169 109.94 600.377L972.799 640.616L1000.31 50.6526L137.453 10.414Z" fill="white"/>
</mask>
<g mask="url(#mask3_102_497)">
<path d="M918.478 597.755L910.846 597.399L910.889 596.474L888.919 595.449L887.951 596.331L31.1048 556.373C30.6422 556.351 30.4002 556.572 30.3786 557.034C30.357 557.497 30.5775 557.739 31.0401 557.761L918.413 599.142C918.876 599.164 919.118 598.943 919.14 598.481C919.161 598.018 918.941 597.776 918.478 597.755Z" fill="#D6DC9C"/>
</g>
<mask id="mask4_102_497" style="mask-type:luminance" maskUnits="userSpaceOnUse" x="65" y="10" width="936" height="631">
<path d="M137.453 10.414C111.319 9.19525 89.5239 29.2699 88.316 55.1719L65.1823 551.241C63.9744 577.143 84.0383 599.169 109.94 600.377L972.799 640.616L1000.31 50.6526L137.453 10.414Z" fill="white"/>
</mask>
<g mask="url(#mask4_102_497)">
<path d="M912.083 600.701L911.158 600.658L911.201 599.733L885.068 598.514L884.099 599.396L28.4097 559.492C27.9472 559.47 27.7051 559.691 27.6835 560.153C27.662 560.616 27.8825 560.858 28.345 560.879L911.787 602.078C912.249 602.099 912.491 601.879 912.513 601.416C912.766 600.965 912.314 600.712 912.083 600.701Z" fill="#D6DC9C"/>
</g>
<mask id="mask5_102_497" style="mask-type:luminance" maskUnits="userSpaceOnUse" x="65" y="10" width="936" height="631">
<path d="M137.453 10.414C111.319 9.19525 89.5239 29.2699 88.316 55.1719L65.1823 551.241C63.9744 577.143 84.0383 599.169 109.94 600.377L972.799 640.616L1000.31 50.6526L137.453 10.414Z" fill="white"/>
</mask>
<g mask="url(#mask5_102_497)">
<path d="M908.312 607.015C908.322 606.784 908.322 606.784 908.312 607.015L907.849 606.993L907.892 606.068L876.902 604.623L875.934 605.505L23.4822 565.752C23.0197 565.73 22.7776 565.951 22.756 566.413C22.7345 566.876 22.955 567.118 23.4175 567.139L906.628 608.327C906.892 607.644 907.838 607.224 908.312 607.015Z" fill="#D6DC9C"/>
</g>
<mask id="mask6_102_497" style="mask-type:luminance" maskUnits="userSpaceOnUse" x="65" y="10" width="936" height="631">
<path d="M137.453 10.414C111.319 9.19525 89.5239 29.2699 88.316 55.1719L65.1823 551.241C63.9744 577.143 84.0383 599.169 109.94 600.377L972.799 640.616L1000.31 50.6526L137.453 10.414Z" fill="white"/>
</mask>
<g mask="url(#mask6_102_497)">
<path d="M880.017 602.451L25.946 562.622C25.4835 562.6 25.2414 562.821 25.2199 563.283C25.1983 563.746 25.4188 563.988 25.8813 564.009L910.017 605.24C910.479 605.262 910.721 605.041 910.743 604.579L911.437 604.611L911.523 602.761L880.996 601.337L880.017 602.451Z" fill="#D6DC9C"/>
</g>
<mask id="mask7_102_497" style="mask-type:luminance" maskUnits="userSpaceOnUse" x="65" y="10" width="936" height="631">
<path d="M137.453 10.414C111.319 9.19525 89.5239 29.2699 88.316 55.1719L65.1823 551.241C63.9744 577.143 84.0383 599.169 109.94 600.377L972.799 640.616L1000.31 50.6526L137.453 10.414Z" fill="white"/>
</mask>
<g mask="url(#mask7_102_497)">
<path d="M345 77.5715L348.497 72.1721L361.856 73.954L355.007 96.5798L355.712 96.3809C357.815 96.0154 359.719 94.9454 360.73 93.1384L363.721 88.6424L366.727 88.7826C367.421 88.815 368.147 88.1536 368.18 87.4597L368.201 86.9972C368.234 86.3034 367.572 85.5773 366.878 85.5449L365.722 85.491L367.217 83.243L370.455 83.394C371.149 83.4264 371.875 82.7649 371.907 82.0711L371.929 81.6086C371.961 80.9148 371.3 80.1886 370.606 80.1563L369.219 80.0915L372.473 74.9126C387.893 77.2541 389.98 72.2525 389.98 72.2525C389.98 72.2525 388.356 67.3096 372.797 67.9746L370.038 62.5152L371.426 62.5799C372.12 62.6123 372.846 61.9508 372.878 61.257L372.9 60.7945C372.932 60.1007 372.271 59.3745 371.577 59.3422L368.339 59.1912L367.059 56.8138L368.216 56.8677C368.909 56.9001 369.636 56.2386 369.668 55.5448L369.69 55.0823C369.722 54.3885 369.06 53.6623 368.367 53.63L365.36 53.4898L362.801 48.735C361.731 46.831 360.166 45.5991 358.106 45.0395L357.423 44.7759L362.137 67.941L348.669 68.4718L345.69 62.7704C345.061 61.3504 343.706 60.5919 342.098 60.2852L340.721 59.9892L342.414 68.4119L340.257 69.9337L342.263 71.6496L339.794 79.8782L341.192 79.7116C342.822 79.5559 344.242 78.9268 345 77.5715Z" fill="#E4E9B8"/>
</g>
<mask id="mask8_102_497" style="mask-type:luminance" maskUnits="userSpaceOnUse" x="65" y="10" width="936" height="631">
<path d="M137.453 10.414C111.319 9.19525 89.5239 29.2699 88.316 55.1719L65.1823 551.241C63.9744 577.143 84.0383 599.169 109.94 600.377L972.799 640.616L1000.31 50.6526L137.453 10.414Z" fill="white"/>
</mask>
<g mask="url(#mask8_102_497)">
<path d="M351.391 69.7575L343.99 69.4124L344.033 68.4874L322.757 67.4951L321.788 68.3771L28.7725 54.7126C28.31 54.691 28.0679 54.9115 28.0463 55.374C28.0248 55.8365 28.2452 56.0786 28.7078 56.1002L351.326 71.1451C351.788 71.1667 352.031 70.9462 352.052 70.4837C352.074 70.0212 351.853 69.7791 351.391 69.7575Z" fill="#E4E9B8"/>
</g>
<mask id="mask9_102_497" style="mask-type:luminance" maskUnits="userSpaceOnUse" x="65" y="10" width="936" height="631">
<path d="M137.453 10.414C111.319 9.19525 89.5239 29.2699 88.316 55.1719L65.1823 551.241C63.9744 577.143 84.0383 599.169 109.94 600.377L972.799 640.616L1000.31 50.6526L137.453 10.414Z" fill="white"/>
</mask>
<g mask="url(#mask9_102_497)">
<path d="M345.237 72.4839L344.312 72.4408L344.356 71.5157L318.916 70.3294L317.948 71.2113L26.3196 57.6115C25.8571 57.5899 25.615 57.8104 25.5935 58.2729C25.5719 58.7355 25.7924 58.9775 26.2549 58.9991L345.173 73.8715C345.635 73.8931 345.877 73.6726 345.899 73.2101C345.678 72.968 345.469 72.4947 345.237 72.4839Z" fill="#E4E9B8"/>
</g>
<mask id="mask10_102_497" style="mask-type:luminance" maskUnits="userSpaceOnUse" x="65" y="10" width="936" height="631">
<path d="M137.453 10.414C111.319 9.19525 89.5239 29.2699 88.316 55.1719L65.1823 551.241C63.9744 577.143 84.0383 599.169 109.94 600.377L972.799 640.616L1000.31 50.6526L137.453 10.414Z" fill="white"/>
</mask>
<g mask="url(#mask10_102_497)">
<path d="M341.477 78.5662L341.015 78.5446L341.058 77.6195L310.762 76.2067L309.794 77.0886L21.4031 63.6398C20.9406 63.6182 20.6985 63.8387 20.6769 64.3012C20.6554 64.7638 20.8759 65.0058 21.3384 65.0274L339.794 79.8783C340.278 79.4373 340.993 79.0071 341.477 78.5662Z" fill="#E4E9B8"/>
</g>
<mask id="mask11_102_497" style="mask-type:luminance" maskUnits="userSpaceOnUse" x="65" y="10" width="936" height="631">
<path d="M137.453 10.414C111.319 9.19525 89.5239 29.2699 88.316 55.1719L65.1823 551.241C63.9744 577.143 84.0383 599.169 109.94 600.377L972.799 640.616L1000.31 50.6526L137.453 10.414Z" fill="white"/>
</mask>
<g mask="url(#mask11_102_497)">
<path d="M313.865 74.2659L23.856 60.7416C23.3934 60.72 23.1514 60.9405 23.1298 61.403C23.1083 61.8656 23.3287 62.1076 23.7913 62.1292L343.172 77.0232C343.634 77.0448 343.876 76.8243 343.898 76.3618L344.592 76.3941L344.667 74.7752L315.065 73.3948L313.865 74.2659Z" fill="#E4E9B8"/>
</g>
<mask id="mask12_102_497" style="mask-type:luminance" maskUnits="userSpaceOnUse" x="65" y="10" width="936" height="631">
<path d="M137.453 10.414C111.319 9.19525 89.5239 29.2699 88.316 55.1719L65.1823 551.241C63.9744 577.143 84.0383 599.169 109.94 600.377L972.799 640.616L1000.31 50.6526L137.453 10.414Z" fill="white"/>
</mask>
<g mask="url(#mask12_102_497)">
<path d="M340.332 102.724C339.435 102.682 338.567 102.555 337.725 102.343C336.899 102.147 336.147 101.891 335.468 101.575C334.805 101.261 334.245 100.927 333.789 100.575L335.483 97.699C335.985 98.085 336.521 98.4252 337.091 98.7196C337.676 98.9991 338.288 99.2247 338.927 99.3963C339.566 99.5522 340.207 99.6451 340.852 99.6752C341.56 99.7082 342.169 99.6578 342.68 99.524C343.206 99.391 343.609 99.1891 343.89 98.9185C344.186 98.6486 344.344 98.3093 344.363 97.9004C344.381 97.5229 344.245 97.2093 343.958 96.9595C343.67 96.7096 343.286 96.4947 342.806 96.3147C342.342 96.1197 341.823 95.93 341.248 95.7456C340.674 95.5612 340.092 95.3529 339.504 95.1206C338.933 94.8732 338.41 94.581 337.938 94.2437C337.481 93.8914 337.115 93.4567 336.84 92.9395C336.565 92.4224 336.445 91.7863 336.48 91.0315C336.533 89.8992 336.885 88.9305 337.537 88.1256C338.205 87.3215 339.116 86.7178 340.27 86.3145C341.424 85.8955 342.764 85.7216 344.289 85.7927C345.406 85.8448 346.454 86.0197 347.433 86.3176C348.412 86.5997 349.246 86.9853 349.932 87.4743L348.357 90.3323C347.747 89.8784 347.062 89.5312 346.301 89.2908C345.541 89.0347 344.752 88.8876 343.934 88.8495C343.195 88.815 342.554 88.8718 342.011 89.0199C341.484 89.1687 341.072 89.3937 340.774 89.695C340.493 89.9814 340.343 90.3211 340.324 90.7143C340.306 91.1075 340.433 91.4364 340.704 91.7013C340.992 91.9511 341.375 92.1739 341.855 92.3696C342.335 92.5496 342.862 92.7318 343.437 92.9162C344.012 93.1006 344.585 93.3086 345.157 93.5402C345.73 93.7718 346.252 94.0562 346.725 94.3934C347.198 94.7307 347.572 95.1501 347.848 95.6515C348.125 96.1373 348.247 96.7418 348.213 97.4652C348.16 98.5976 347.8 99.5737 347.131 100.394C346.463 101.198 345.544 101.809 344.374 102.227C343.22 102.63 341.873 102.796 340.332 102.724Z" fill="#E4E9B8"/>
<path d="M323.542 101.657L326.832 88.3827L321.548 88.1363L322.33 85.0522L336.72 85.7232L335.938 88.8074L330.677 88.562L327.363 101.836L323.542 101.657Z" fill="#E4E9B8"/>
<path d="M316.465 84.7787L320.287 84.9569L316.214 101.316L312.393 101.138L316.465 84.7787ZM304.915 100.789L301.07 100.61L305.142 84.2507L308.988 84.43L304.915 100.789ZM314.36 94.4443L306.316 94.0692L307.103 90.8671L315.147 91.2422L314.36 94.4443Z" fill="#E4E9B8"/>
<path d="M291.539 100.449C289.872 100.371 288.439 100.005 287.24 99.35C286.058 98.6802 285.153 97.7949 284.527 96.6939C283.917 95.578 283.645 94.3123 283.711 92.8969C283.776 91.4973 284.081 90.2034 284.625 89.0152C285.185 87.8277 285.941 86.8149 286.894 85.9767C287.848 85.1229 288.974 84.474 290.271 84.0302C291.569 83.5863 292.996 83.4007 294.553 83.4733C296.125 83.5466 297.474 83.8617 298.598 84.4185C299.739 84.9603 300.642 85.7116 301.307 86.6725L298.467 88.7623C297.947 88.0761 297.34 87.575 296.646 87.2589C295.967 86.9436 295.164 86.7642 294.236 86.721C293.261 86.6755 292.372 86.7996 291.57 87.0932C290.785 87.3717 290.104 87.7892 289.526 88.3454C288.949 88.9016 288.492 89.5659 288.157 90.3383C287.822 91.0949 287.633 91.9293 287.591 92.8415C287.552 93.675 287.699 94.4147 288.031 95.0606C288.364 95.6908 288.876 96.1954 289.568 96.5744C290.275 96.9541 291.148 97.1682 292.186 97.2166C292.972 97.2533 293.733 97.1548 294.469 96.9212C295.205 96.6875 295.924 96.3034 296.627 95.7688L297.954 98.7386C297.091 99.3445 296.1 99.7948 294.983 100.089C293.882 100.385 292.734 100.505 291.539 100.449ZM294.632 97.9926L296.148 91.8457L299.639 92.0085L297.954 98.7386L294.632 97.9926Z" fill="#E4E9B8"/>
<path d="M275.131 99.3998L279.203 83.041L283.048 83.2203L278.976 99.5791L275.131 99.3998Z" fill="#E4E9B8"/>
<path d="M260.894 98.736L264.966 82.3772L268.812 82.5565L265.497 95.83L273.777 96.2162L272.995 99.3003L260.894 98.736Z" fill="#E4E9B8"/>
<path d="M251.606 89.201L259.556 89.5717L258.776 92.6087L250.85 92.2391L251.606 89.201ZM249.673 98.2126L245.828 98.0333L249.9 81.6745L262.379 82.2565L261.599 85.2934L252.965 84.8908L249.673 98.2126Z" fill="#E4E9B8"/>
<path d="M220.096 96.8334L224.168 80.4746L227.329 80.622L233.872 92.9131L232.625 92.784L235.539 81.0048L239.313 81.1808L235.24 97.5396L232.103 97.3933L225.536 85.1011L226.807 85.2313L223.87 97.0094L220.096 96.8334Z" fill="#E4E9B8"/>
<path d="M208.742 96.5876C207.075 96.5099 205.649 96.144 204.466 95.4899C203.3 94.8209 202.419 93.9366 201.824 92.8371C201.23 91.7219 200.966 90.4566 201.032 89.0412C201.098 87.6259 201.403 86.3319 201.946 85.1594C202.49 83.9712 203.23 82.9577 204.168 82.1188C205.122 81.2649 206.232 80.6153 207.498 80.17C208.779 79.7255 210.183 79.5387 211.708 79.6099C213.375 79.6876 214.792 80.061 215.959 80.7301C217.142 81.3842 218.03 82.2688 218.625 83.384C219.219 84.4835 219.484 85.7409 219.418 87.1563C219.352 88.5717 219.047 89.8735 218.503 91.0617C217.96 92.2342 217.211 93.2473 216.257 94.1012C215.32 94.9401 214.21 95.5818 212.929 96.0264C211.663 96.4717 210.267 96.6588 208.742 96.5876ZM209.224 93.3477C210.151 93.3909 210.993 93.2647 211.747 92.9689C212.518 92.6581 213.177 92.216 213.724 91.6426C214.271 91.0692 214.696 90.4034 214.999 89.6453C215.319 88.8722 215.499 88.0531 215.539 87.1882C215.577 86.3704 215.438 85.6468 215.12 85.0173C214.804 84.3721 214.315 83.8608 213.655 83.4832C213.011 83.1065 212.201 82.8953 211.226 82.8499C210.298 82.8066 209.457 82.9407 208.701 83.2522C207.947 83.548 207.288 83.9822 206.726 84.5549C206.179 85.1283 205.746 85.8016 205.426 86.5747C205.123 87.3328 204.951 88.1444 204.91 89.0093C204.872 89.8271 205.012 90.5586 205.328 91.2038C205.661 91.834 206.15 92.3375 206.794 92.7143C207.455 93.0918 208.264 93.3029 209.224 93.3477Z" fill="#E4E9B8"/>
<path d="M183.441 95.1239L184.052 92.6701L197.176 80.9415L197.441 82.3487L186.991 81.8613L187.773 78.7772L201.644 79.424L201.033 81.8779L187.933 93.6076L187.667 92.2004L198.66 92.713L197.878 95.7972L183.441 95.1239Z" fill="#E4E9B8"/>
<path d="M176.786 94.8136L180.859 78.4548L184.704 78.6341L180.631 94.9929L176.786 94.8136Z" fill="#E4E9B8"/>
<path d="M159.439 94.0045L163.512 77.6457L170.235 77.9592C172.295 78.0553 173.863 78.5776 174.937 79.5261C176.028 80.4753 176.535 81.7598 176.46 83.3796C176.395 84.7636 176.009 85.9512 175.301 86.9427C174.609 87.9191 173.645 88.6543 172.408 89.1482C171.187 89.6429 169.759 89.8521 168.124 89.7759L162.745 89.525L164.828 87.9437L163.284 94.1838L159.439 94.0045ZM170.055 94.4996L166.961 88.3505L170.971 88.5375L174.088 94.6877L170.055 94.4996ZM164.713 88.3875L163.477 86.5095L168.407 86.7394C169.681 86.7988 170.677 86.5615 171.395 86.0277C172.13 85.4788 172.523 84.6539 172.575 83.5531C172.612 82.751 172.364 82.1484 171.831 81.7453C171.315 81.3272 170.569 81.0955 169.594 81.05L164.947 80.8333L167.039 79.0632L164.713 88.3875Z" fill="#E4E9B8"/>
<path d="M148.085 93.759C146.418 93.6813 144.993 93.3154 143.81 92.6613C142.643 91.9922 141.763 91.108 141.168 90.0085C140.573 88.8933 140.309 87.628 140.375 86.2126C140.441 84.7972 140.746 83.5033 141.289 82.3308C141.833 81.1426 142.574 80.1291 143.511 79.2902C144.465 78.4363 145.575 77.7867 146.841 77.3414C148.123 76.8968 149.526 76.7101 151.052 76.7813C152.719 76.859 154.136 77.2324 155.302 77.9015C156.485 78.5556 157.374 79.4402 157.968 80.5554C158.563 81.6549 158.827 82.9123 158.761 84.3277C158.695 85.7431 158.39 87.0449 157.846 88.2331C157.303 89.4055 156.555 90.4187 155.601 91.2726C154.663 92.1115 153.554 92.7532 152.272 93.1978C151.006 93.6431 149.611 93.8302 148.085 93.759ZM148.567 90.5191C149.495 90.5623 150.336 90.4361 151.091 90.1403C151.862 89.8295 152.521 89.3874 153.068 88.814C153.614 88.2406 154.039 87.5748 154.343 86.8167C154.662 86.0436 154.842 85.2245 154.883 84.3596C154.921 83.5418 154.781 82.8182 154.464 82.1887C154.147 81.5435 153.659 81.0322 152.999 80.6546C152.354 80.2778 151.545 80.0667 150.57 80.0213C149.642 79.978 148.8 80.1121 148.045 80.4236C147.29 80.7194 146.632 81.1536 146.069 81.7263C145.522 82.2997 145.089 82.973 144.769 83.7461C144.466 84.5042 144.294 85.3158 144.254 86.1807C144.216 86.9985 144.355 87.73 144.672 88.3752C145.005 89.0054 145.494 89.5089 146.138 89.8857C146.798 90.2632 147.608 90.4743 148.567 90.5191Z" fill="#E4E9B8"/>
<path d="M135.88 76.3571L139.701 76.5353L135.629 92.8941L131.807 92.7159L135.88 76.3571ZM124.329 92.3672L120.484 92.1879L124.557 75.8291L128.402 76.0084L124.329 92.3672ZM133.774 86.0227L125.73 85.6475L126.518 82.4454L134.562 82.8206L133.774 86.0227Z" fill="#E4E9B8"/>
</g>
</g>
<mask id="mask13_102_497" style="mask-type:luminance" maskUnits="userSpaceOnUse" x="0" y="0" width="1412" height="671">
<path d="M1376.45 0.00852959L0.834473 81.0125L35.5524 670.596L1411.17 589.592L1376.45 0.00852959Z" fill="white"/>
</mask>
<g mask="url(#mask13_102_497)">
<path d="M1329.53 2.77126L984.244 23.1039C985.128 38.1266 973.6 51.0972 958.578 51.9818C943.555 52.8664 930.815 41.3248 929.931 26.3021L47.7515 78.2497C21.6351 79.7876 2.07294 102.044 3.59721 127.929L32.7896 623.679C34.3139 649.564 56.5842 669.357 82.4694 667.833L964.649 615.885C963.764 600.863 975.292 587.892 990.315 587.007C1005.34 586.123 1018.31 597.651 1019.19 612.674L1364.48 592.341C1390.37 590.817 1410.16 568.546 1408.64 542.661L1379.45 46.912C1377.69 21.0403 1355.42 1.24699 1329.53 2.77126Z" fill="white"/>
</g>
<mask id="mask14_102_497" style="mask-type:luminance" maskUnits="userSpaceOnUse" x="0" y="0" width="1412" height="671">
<path d="M1376.45 0.00852959L0.834473 81.0125L35.5524 670.596L1411.17 589.592L1376.45 0.00852959Z" fill="white"/>
</mask>
<g mask="url(#mask14_102_497)">
<path d="M1382.82 108.172L1379.21 46.9256C1377.69 21.0403 1355.42 1.24699 1329.53 2.77126L984.244 23.1039C985.128 38.1266 973.6 51.0972 958.578 51.9818C943.555 52.8664 930.815 41.3248 929.931 26.3021L47.7515 78.2497C21.6351 79.7876 2.07294 102.044 3.59721 127.929L7.20373 189.176L1382.82 108.172Z" fill="#A2B361"/>
</g>
<path d="M1332.22 48.0271C1331.94 43.2636 1334.12 40.4038 1338.67 40.1358C1343.22 39.8679 1345.72 42.4521 1346 47.2156L1346.06 48.1513L1341.64 48.4118L1341.56 47.1784C1341.44 45.0518 1340.54 44.2938 1339.05 44.3815C1337.56 44.4691 1336.76 45.3273 1336.88 47.4539C1337.01 49.623 1338.04 51.1841 1341.26 53.6832C1345.38 56.8978 1346.76 59.292 1346.96 62.6945C1347.24 67.458 1345.02 70.3203 1340.42 70.5908C1335.83 70.8613 1333.29 68.2795 1333.01 63.516L1332.9 61.6871L1337.32 61.4267L1337.45 63.5532C1337.57 65.6798 1338.55 66.3903 1340.04 66.3026C1341.53 66.215 1342.42 65.3943 1342.3 63.2677C1342.17 61.0986 1341.14 59.5375 1337.92 57.0384C1333.8 53.8238 1332.42 51.4296 1332.22 48.0271Z" fill="#E4E9B8"/>
<path d="M1316.32 48.9638C1316.04 44.2003 1318.21 41.3406 1322.77 41.0726C1327.32 40.8046 1329.82 43.3889 1330.1 48.1524L1330.15 49.0881L1325.73 49.3485L1325.66 48.1151C1325.53 45.9886 1324.63 45.2306 1323.14 45.3182C1321.65 45.4059 1320.85 46.2641 1320.98 48.3906C1321.1 50.5597 1322.14 52.1208 1325.36 54.62C1329.47 57.8346 1330.85 60.2288 1331.05 63.6313C1331.33 68.3948 1329.11 71.2571 1324.52 71.5275C1319.92 71.798 1317.38 69.2163 1317.1 64.4528L1316.99 62.6239L1321.42 62.3634L1321.54 64.49C1321.67 66.6166 1322.65 67.3271 1324.14 67.2394C1325.62 67.1517 1326.51 66.3311 1326.39 64.2045C1326.26 62.0354 1325.23 60.4743 1322.01 57.9752C1317.89 54.7605 1316.52 52.3663 1316.32 48.9638Z" fill="#E4E9B8"/>
<path d="M1309.55 42.1923L1316.06 71.6837L1311.34 71.9617L1310.22 66.6078L1304.48 66.9459L1303.99 72.395L1299.69 72.6479L1302.7 42.5955L1309.55 42.1923ZM1306.16 47.684L1304.83 62.8704L1309.34 62.6049L1306.24 47.679L1306.16 47.684Z" fill="#E4E9B8"/>
<path d="M1290.57 43.3099C1295.25 43.0344 1297.7 45.4935 1297.98 50.257L1298.21 54.1274C1298.49 58.8909 1296.34 61.6206 1291.66 61.896L1289.45 62.0263L1290.11 73.212L1285.43 73.4875L1283.68 43.7156L1290.57 43.3099ZM1290.82 47.563L1288.61 47.6932L1289.2 57.7731L1291.41 57.6429C1292.9 57.5553 1293.67 56.8272 1293.54 54.7006L1293.28 50.2348C1293.16 48.1082 1292.31 47.4753 1290.82 47.563Z" fill="#E4E9B8"/>
<path d="M1268.55 62.105L1268.3 57.8519L1274.85 57.4662L1275.4 66.9081C1275.68 71.6717 1273.46 74.5339 1268.87 74.8044C1264.28 75.0749 1261.73 72.4931 1261.45 67.7296L1260.54 52.2482C1260.26 47.4847 1262.48 44.6224 1267.08 44.352C1271.67 44.0815 1274.21 46.6632 1274.49 51.4267L1274.66 54.3189L1270.24 54.5793L1270.05 51.3895C1269.93 49.2629 1268.94 48.5099 1267.45 48.5976C1265.96 48.6852 1265.08 49.5484 1265.2 51.675L1266.15 67.7518C1266.27 69.8784 1267.25 70.5889 1268.74 70.5012C1270.23 70.4136 1271.12 69.5929 1271 67.4663L1270.67 61.9798L1268.55 62.105Z" fill="#E4E9B8"/>
<path d="M1254.1 75.3325L1247.09 54.1072L1247 54.1122L1248.27 75.6756L1244.06 75.9236L1242.31 46.1516L1248.18 45.806L1253.95 63.3486L1254.03 63.3436L1252.98 45.523L1257.15 45.2775L1258.91 75.0495L1254.1 75.3325Z" fill="#E4E9B8"/>
<path d="M1236.01 76.3982L1234.25 46.6262L1238.93 46.3507L1240.68 76.1227L1236.01 76.3982Z" fill="#E4E9B8"/>
<path d="M1218.64 77.4204L1216.89 47.6484L1224.29 47.2127C1228.97 46.9372 1231.42 49.3963 1231.7 54.1598L1232.59 69.2159C1232.87 73.9795 1230.72 76.7091 1226.04 76.9846L1218.64 77.4204ZM1224.46 51.4708L1221.82 51.6261L1223.07 72.8918L1225.71 72.7365C1227.2 72.6488 1228.05 71.8307 1227.92 69.7041L1227.01 54.2227C1226.88 52.0961 1225.95 51.3831 1224.46 51.4708Z" fill="#E4E9B8"/>
<path d="M1216.08 77.5717L1211.31 77.8522C1211.01 77.1016 1210.82 76.6438 1210.67 74.2195L1210.4 69.5411C1210.23 66.7765 1209.24 65.8109 1207.11 65.9361L1205.5 66.0313L1206.21 78.1527L1201.53 78.4282L1199.78 48.6562L1206.84 48.2405C1211.69 47.955 1213.9 50.0864 1214.17 54.6798L1214.31 57.019C1214.49 60.0813 1213.63 62.0953 1211.6 63.1963L1211.61 63.2814C1214 64.1218 1214.9 66.2884 1215.08 69.3932L1215.35 73.9865C1215.44 75.4326 1215.54 76.4934 1216.08 77.5717ZM1206.96 52.5012L1204.71 52.6339L1205.25 61.7781L1207.07 61.6704C1208.82 61.5678 1209.84 60.7396 1209.7 58.3578L1209.52 55.4232C1209.4 53.2966 1208.62 52.4035 1206.96 52.5012Z" fill="#E4E9B8"/>
<path d="M1192.84 49.0648L1199.35 78.5563L1194.63 78.8342L1193.51 73.4804L1187.76 73.8185L1187.27 79.2675L1182.98 79.5205L1185.99 49.468L1192.84 49.0648ZM1189.45 54.5566L1188.12 69.7429L1192.63 69.4774L1189.53 54.5516L1189.45 54.5566Z" fill="#E4E9B8"/>
<path d="M1170.34 57.2612L1171.28 73.338C1171.41 75.4646 1172.39 76.2176 1173.88 76.1299C1175.37 76.0423 1176.26 75.1791 1176.13 73.0525L1175.19 56.9757C1175.06 54.8491 1174.08 54.0961 1172.59 54.1838C1171.1 54.2714 1170.21 55.1346 1170.34 57.2612ZM1166.59 73.3158L1165.68 57.8344C1165.4 53.0709 1167.74 50.2011 1172.34 49.9306C1176.93 49.6601 1179.6 52.2344 1179.88 56.9979L1180.79 72.4793C1181.07 77.2428 1178.72 80.1126 1174.13 80.3831C1169.54 80.6535 1166.87 78.0793 1166.59 73.3158Z" fill="#E4E9B8"/>
<path d="M1155.42 51.2683C1160.27 50.9828 1162.48 53.1143 1162.75 57.7077L1162.82 58.7709C1163 61.8332 1162.17 63.8022 1160.15 64.9031L1160.15 64.9882C1162.72 65.8187 1163.83 67.9727 1164.01 71.12L1164.16 73.5443C1164.43 78.1377 1162.15 80.7473 1157.47 81.0227L1150.11 81.456L1148.36 51.6841L1155.42 51.2683ZM1156.09 67.6604L1154 67.7832L1154.54 76.9274L1157.22 76.7696C1158.79 76.6769 1159.6 75.9038 1159.47 73.6922L1159.32 71.0978C1159.16 68.3332 1158.21 67.5352 1156.09 67.6604ZM1155.54 55.529L1153.29 55.6617L1153.75 63.53L1155.58 63.4223C1157.32 63.3196 1158.34 62.4915 1158.2 60.1097L1158.1 58.451C1157.98 56.3244 1157.2 55.4313 1155.54 55.529Z" fill="#E4E9B8"/>
<path d="M985.216 575.248C985.107 573.399 986.412 571.931 988.261 571.822C990.11 571.713 991.578 573.018 991.687 574.867C991.796 576.716 990.491 578.184 988.642 578.293C987.024 578.388 985.325 577.097 985.216 575.248ZM984.44 562.074C984.331 560.225 985.636 558.757 987.485 558.648C989.334 558.539 990.803 559.844 990.911 561.693C991.02 563.542 989.715 565.011 987.866 565.119C986.262 565.446 984.549 563.923 984.44 562.074ZM983.678 549.132C983.569 547.283 984.874 545.814 986.723 545.705C988.572 545.597 990.04 546.902 990.149 548.751C990.258 550.6 988.953 552.068 987.104 552.177C985.486 552.272 983.787 550.981 983.678 549.132ZM982.902 535.958C982.793 534.109 984.098 532.641 985.947 532.532C987.796 532.423 989.265 533.728 989.374 535.577C989.482 537.426 988.177 538.894 986.328 539.003C984.711 539.098 983.011 537.807 982.902 535.958ZM982.126 522.784C982.018 520.935 983.323 519.467 985.172 519.358C987.02 519.249 988.489 520.554 988.598 522.403C988.707 524.252 987.402 525.72 985.553 525.829C983.948 526.156 982.235 524.633 982.126 522.784ZM981.364 509.842C981.255 507.993 982.56 506.524 984.409 506.415C986.258 506.306 987.727 507.612 987.836 509.461C987.945 511.309 986.639 512.778 984.79 512.887C983.173 512.982 981.473 511.691 981.364 509.842ZM980.589 496.668C980.48 494.819 981.785 493.35 983.634 493.242C985.483 493.133 986.951 494.438 987.06 496.287C987.169 498.136 985.864 499.604 984.015 499.713C982.397 499.808 980.697 498.517 980.589 496.668ZM979.813 483.494C979.704 481.645 981.009 480.177 982.858 480.068C984.707 479.959 986.175 481.264 986.284 483.113C986.393 484.962 985.088 486.43 983.239 486.539C981.635 486.866 979.922 485.343 979.813 483.494ZM979.051 470.551C978.942 468.702 980.247 467.234 982.096 467.125C983.945 467.016 985.413 468.321 985.522 470.17C985.631 472.019 984.326 473.488 982.477 473.597C980.859 473.692 979.146 472.169 979.051 470.551ZM978.275 457.378C978.166 455.529 979.471 454.06 981.32 453.951C983.169 453.843 984.637 455.148 984.746 456.997C984.855 458.846 983.55 460.314 981.701 460.423C980.083 460.518 978.384 459.227 978.275 457.378ZM977.499 444.204C977.39 442.355 978.695 440.887 980.544 440.778C982.393 440.669 983.862 441.974 983.971 443.823C984.079 445.672 982.774 447.14 980.925 447.249C979.308 447.344 977.608 446.053 977.499 444.204ZM976.723 431.03C976.615 429.181 977.92 427.713 979.769 427.604C981.617 427.495 983.086 428.8 983.195 430.649C983.304 432.498 981.999 433.966 980.15 434.075C978.545 434.402 976.832 432.879 976.723 431.03ZM975.961 418.088C975.852 416.239 977.157 414.77 979.006 414.661C980.855 414.552 982.324 415.858 982.433 417.706C982.542 419.555 981.236 421.024 979.387 421.133C977.77 421.228 976.07 419.936 975.961 418.088ZM975.186 404.914C975.077 403.065 976.382 401.596 978.231 401.488C980.08 401.379 981.548 402.684 981.657 404.533C981.766 406.382 980.461 407.85 978.612 407.959C976.994 408.054 975.294 406.763 975.186 404.914ZM974.41 391.74C974.301 389.891 975.606 388.423 977.455 388.314C979.304 388.205 980.772 389.51 980.881 391.359C980.99 393.208 979.685 394.676 977.836 394.785C976.232 395.112 974.519 393.589 974.41 391.74ZM973.648 378.797C973.539 376.948 974.844 375.48 976.693 375.371C978.542 375.262 980.01 376.567 980.119 378.416C980.228 380.265 978.923 381.734 977.074 381.843C975.456 381.938 973.757 380.646 973.648 378.797ZM972.872 365.624C972.763 363.775 974.068 362.306 975.917 362.197C977.766 362.089 979.234 363.394 979.343 365.243C979.452 367.092 978.147 368.56 976.298 368.669C974.68 368.764 972.981 367.473 972.872 365.624ZM972.096 352.45C971.987 350.601 973.292 349.133 975.141 349.024C976.99 348.915 978.459 350.22 978.568 352.069C978.676 353.918 977.371 355.386 975.522 355.495C973.918 355.821 972.205 354.299 972.096 352.45ZM971.334 339.507C971.225 337.658 972.53 336.19 974.379 336.081C976.228 335.972 977.697 337.277 977.805 339.126C977.914 340.975 976.609 342.444 974.76 342.552C973.142 342.648 971.429 341.125 971.334 339.507ZM970.558 326.334C970.449 324.485 971.754 323.016 973.603 322.907C975.452 322.798 976.921 324.103 977.03 325.952C977.139 327.801 975.833 329.27 973.984 329.379C972.367 329.474 970.667 328.182 970.558 326.334ZM969.783 313.16C969.674 311.311 970.979 309.842 972.828 309.734C974.677 309.625 976.145 310.93 976.254 312.779C976.363 314.628 975.058 316.096 973.209 316.205C971.605 316.531 969.891 315.009 969.783 313.16ZM969.02 300.217C968.912 298.368 970.217 296.9 972.066 296.791C973.914 296.682 975.383 297.987 975.492 299.836C975.601 301.685 974.296 303.153 972.447 303.262C970.829 303.358 969.129 302.066 969.02 300.217ZM968.245 287.043C968.136 285.194 969.441 283.726 971.29 283.617C973.139 283.508 974.607 284.813 974.716 286.662C974.825 288.511 973.52 289.98 971.671 290.089C970.053 290.184 968.354 288.892 968.245 287.043ZM967.469 273.87C967.36 272.021 968.665 270.552 970.514 270.443C972.363 270.335 973.831 271.64 973.94 273.489C974.049 275.338 972.744 276.806 970.895 276.915C969.291 277.241 967.578 275.719 967.469 273.87ZM966.693 260.696C966.584 258.847 967.889 257.379 969.738 257.27C971.587 257.161 973.056 258.466 973.165 260.315C973.273 262.164 971.968 263.632 970.119 263.741C968.515 264.067 966.802 262.545 966.693 260.696ZM965.931 247.753C965.822 245.904 967.127 244.436 968.976 244.327C970.825 244.218 972.294 245.523 972.402 247.372C972.511 249.221 971.206 250.689 969.357 250.798C967.739 250.894 966.04 249.602 965.931 247.753ZM965.155 234.579C965.046 232.731 966.351 231.262 968.2 231.153C970.049 231.044 971.518 232.349 971.627 234.198C971.736 236.047 970.43 237.516 968.582 237.625C966.964 237.72 965.264 236.428 965.155 234.579ZM964.38 221.406C964.271 219.557 965.576 218.088 967.425 217.98C969.274 217.871 970.742 219.176 970.851 221.025C970.96 222.874 969.655 224.342 967.806 224.451C966.202 224.777 964.488 223.255 964.38 221.406ZM963.617 208.463C963.509 206.614 964.814 205.146 966.663 205.037C968.512 204.928 969.98 206.233 970.089 208.082C970.198 209.931 968.893 211.399 967.044 211.508C965.426 211.604 963.726 210.312 963.617 208.463ZM962.842 195.289C962.733 193.44 964.038 191.972 965.887 191.863C967.736 191.754 969.204 193.059 969.313 194.908C969.422 196.757 968.117 198.226 966.268 198.334C964.65 198.43 962.951 197.138 962.842 195.289ZM962.066 182.116C961.957 180.267 963.262 178.798 965.111 178.689C966.96 178.581 968.428 179.886 968.537 181.735C968.646 183.583 967.341 185.052 965.492 185.161C963.888 185.487 962.175 183.965 962.066 182.116ZM961.304 169.173C961.195 167.324 962.5 165.856 964.349 165.747C966.198 165.638 967.666 166.943 967.775 168.792C967.884 170.641 966.579 172.109 964.73 172.218C963.112 172.313 961.399 170.791 961.304 169.173ZM960.528 155.999C960.419 154.15 961.724 152.682 963.573 152.573C965.422 152.464 966.891 153.769 966.999 155.618C967.108 157.467 965.803 158.935 963.954 159.044C962.336 159.14 960.637 157.848 960.528 155.999ZM959.752 142.825C959.643 140.977 960.949 139.508 962.797 139.399C964.646 139.29 966.115 140.595 966.224 142.444C966.333 144.293 965.027 145.762 963.179 145.871C961.574 146.197 959.861 144.674 959.752 142.825ZM958.99 129.883C958.881 128.034 960.186 126.566 962.035 126.457C963.884 126.348 965.353 127.653 965.462 129.502C965.57 131.351 964.265 132.819 962.416 132.928C960.799 133.023 959.085 131.501 958.99 129.883ZM958.214 116.709C958.106 114.86 959.411 113.392 961.26 113.283C963.109 113.174 964.577 114.479 964.686 116.328C964.795 118.177 963.49 119.645 961.641 119.754C960.023 119.849 958.323 118.558 958.214 116.709ZM957.439 103.535C957.33 101.686 958.635 100.218 960.484 100.109C962.333 100 963.801 101.305 963.91 103.154C964.019 105.003 962.714 106.472 960.865 106.58C959.247 106.676 957.548 105.384 957.439 103.535ZM956.663 90.3616C956.554 88.5126 957.859 87.0442 959.708 86.9354C961.557 86.8265 963.025 88.1315 963.134 89.9805C963.243 91.8294 961.938 93.2978 960.089 93.4067C958.485 93.7331 956.772 92.2105 956.663 90.3616ZM955.901 77.4189C955.792 75.57 957.097 74.1016 958.946 73.9927C960.795 73.8839 962.263 75.1889 962.372 77.0379C962.481 78.8868 961.176 80.3552 959.327 80.4641C957.709 80.5593 956.01 79.2679 955.901 77.4189ZM955.125 64.2452C955.016 62.3962 956.321 60.9279 958.17 60.819C960.019 60.7101 961.488 62.0152 961.596 63.8641C961.705 65.7131 960.4 67.1814 958.551 67.2903C956.933 67.3856 955.234 66.0941 955.125 64.2452Z" fill="#E3EAB8"/>
<mask id="mask15_102_497" style="mask-type:luminance" maskUnits="userSpaceOnUse" x="3" y="27" width="942" height="641">
<path d="M47.7515 78.2497C21.6351 79.7876 2.07294 102.044 3.59721 127.929L32.7896 623.679C34.3139 649.564 56.5842 669.357 82.4694 667.833L944.772 617.056L910.054 27.4726L47.7515 78.2497Z" fill="white"/>
</mask>
<g mask="url(#mask15_102_497)">
<path d="M880.493 588.836L883.633 583.085L897.337 583.437L892.716 607.365L893.396 607.093C895.449 606.509 897.216 605.013 898.263 603.096L900.75 598.079L903.986 597.889C904.911 597.834 905.332 597.114 905.291 596.42L905.264 595.958C905.209 595.034 904.489 594.612 903.796 594.653L902.64 594.721L903.877 592.097L907.344 591.893C908.268 591.839 908.69 591.118 908.649 590.425L908.622 589.962C908.567 589.038 907.847 588.617 907.153 588.657L905.766 588.739L908.676 583.002C924.718 583.68 926.268 578.487 926.268 578.487C926.268 578.487 924.119 573.511 908.267 576.068L904.705 570.712L906.092 570.63C907.016 570.576 907.438 569.855 907.397 569.162L907.37 568.7C907.315 567.775 906.594 567.354 905.901 567.395L902.434 567.599L900.898 565.138L902.054 565.07C902.978 565.016 903.399 564.295 903.359 563.602L903.331 563.139C903.277 562.215 902.556 561.793 901.863 561.834L898.627 562.025L895.568 557.335C894.304 555.554 892.604 554.262 890.266 553.936L889.559 553.746L896.956 576.966L883.388 578.925L879.595 573.582C878.82 572.236 877.147 571.407 875.761 571.489L874.129 571.353L876.944 579.768L874.728 581.522L877.135 583.004L875.327 591.691L876.931 591.365C878.549 591.269 879.881 590.263 880.493 588.836Z" fill="#D6DC9C"/>
</g>
<mask id="mask16_102_497" style="mask-type:luminance" maskUnits="userSpaceOnUse" x="3" y="27" width="942" height="641">
<path d="M47.7515 78.2497C21.6351 79.7876 2.07294 102.044 3.59721 127.929L32.7896 623.679C34.3139 649.564 56.5842 669.357 82.4694 667.833L944.772 617.056L910.054 27.4726L47.7515 78.2497Z" fill="white"/>
</mask>
<g mask="url(#mask16_102_497)">
<path d="M886.243 580.148L878.616 580.597L878.561 579.673L856.605 580.966L855.735 581.945L-0.55885 632.368C-1.02109 632.395 -1.23859 632.64 -1.21137 633.102C-1.18416 633.564 -0.939429 633.782 -0.477192 633.755L886.324 581.535C886.787 581.508 887.004 581.263 886.977 580.801C886.95 580.339 886.705 580.121 886.243 580.148Z" fill="#D6DC9C"/>
</g>
<mask id="mask17_102_497" style="mask-type:luminance" maskUnits="userSpaceOnUse" x="3" y="27" width="942" height="641">
<path d="M47.7515 78.2497C21.6351 79.7876 2.07294 102.044 3.59721 127.929L32.7896 623.679C34.3139 649.564 56.5842 669.357 82.4694 667.833L944.772 617.056L910.054 27.4726L47.7515 78.2497Z" fill="white"/>
</mask>
<g mask="url(#mask17_102_497)">
<path d="M880.193 583.751L879.269 583.806L879.214 582.881L853.098 584.419L852.228 585.398L-2.91065 635.753C-3.37289 635.781 -3.5904 636.025 -3.56318 636.487C-3.53596 636.95 -3.29123 637.167 -2.829 637.14L880.044 585.152C880.506 585.124 880.723 584.88 880.696 584.417C880.9 583.942 880.424 583.738 880.193 583.751Z" fill="#D6DC9C"/>
</g>
<mask id="mask18_102_497" style="mask-type:luminance" maskUnits="userSpaceOnUse" x="3" y="27" width="942" height="641">
<path d="M47.7515 78.2497C21.6351 79.7876 2.07294 102.044 3.59721 127.929L32.7896 623.679C34.3139 649.564 56.5842 669.357 82.4694 667.833L944.772 617.056L910.054 27.4726L47.7515 78.2497Z" fill="white"/>
</mask>
<g mask="url(#mask18_102_497)">
<path d="M877.107 590.427C877.094 590.196 877.094 590.196 877.107 590.427L876.645 590.454L876.59 589.53L845.621 591.353L844.751 592.332L-7.15211 642.497C-7.61435 642.524 -7.83186 642.769 -7.80464 643.231C-7.77742 643.693 -7.53269 643.911 -7.07045 643.884L875.571 591.909C875.761 591.202 876.658 590.685 877.107 590.427Z" fill="#D6DC9C"/>
</g>
<mask id="mask19_102_497" style="mask-type:luminance" maskUnits="userSpaceOnUse" x="3" y="27" width="942" height="641">
<path d="M47.7515 78.2497C21.6351 79.7876 2.07294 102.044 3.59721 127.929L32.7896 623.679C34.3139 649.564 56.5842 669.357 82.4694 667.833L944.772 617.056L910.054 27.4726L47.7515 78.2497Z" fill="white"/>
</mask>
<g mask="url(#mask19_102_497)">
<path d="M848.489 588.865L-5.03132 639.125C-5.49356 639.152 -5.71107 639.397 -5.68385 639.859C-5.65663 640.321 -5.4119 640.539 -4.94966 640.512L878.616 588.483C879.078 588.455 879.296 588.211 879.269 587.748L879.962 587.707L879.853 585.859L849.346 587.655L848.489 588.865Z" fill="#D6DC9C"/>
</g>
<mask id="mask20_102_497" style="mask-type:luminance" maskUnits="userSpaceOnUse" x="3" y="27" width="942" height="641">
<path d="M47.7515 78.2497C21.6351 79.7876 2.07294 102.044 3.59721 127.929L32.7896 623.679C34.3139 649.564 56.5842 669.357 82.4694 667.833L944.772 617.056L910.054 27.4726L47.7515 78.2497Z" fill="white"/>
</mask>
<g mask="url(#mask20_102_497)">
<path d="M261.213 123.196L264.122 117.458L277.595 117.825L273.165 141.046L273.844 140.774C275.897 140.189 277.678 138.924 278.494 137.021L280.995 132.235L284 132.058C284.693 132.018 285.345 131.283 285.305 130.59L285.277 130.128C285.237 129.434 284.502 128.782 283.809 128.823L282.653 128.891L283.904 126.498L287.14 126.307C287.833 126.267 288.486 125.532 288.445 124.839L288.417 124.377C288.377 123.684 287.642 123.031 286.949 123.072L285.562 123.153L288.254 117.661C303.834 118.367 305.384 113.173 305.384 113.173C305.384 113.173 303.249 108.429 287.846 110.727L284.528 105.588L285.915 105.507C286.608 105.466 287.261 104.732 287.22 104.038L287.193 103.576C287.152 102.883 286.418 102.23 285.724 102.271L282.489 102.462L280.966 100.232L282.121 100.164C282.815 100.123 283.467 99.3891 283.426 98.6957L283.399 98.2335C283.358 97.5402 282.624 96.8876 281.931 96.9285L278.926 97.1054L275.881 92.6463C274.616 90.8654 272.93 89.8051 270.823 89.4653L270.116 89.2751L277.241 111.816L263.905 113.76L260.342 108.404C259.567 107.058 258.14 106.447 256.508 106.311L255.108 106.161L257.678 114.359L255.693 116.099L257.869 117.595L256.278 126.037L257.652 125.725C259.256 125.398 260.602 124.623 261.213 123.196Z" fill="#E4E9B8"/>
</g>
<mask id="mask21_102_497" style="mask-type:luminance" maskUnits="userSpaceOnUse" x="3" y="27" width="942" height="641">
<path d="M47.7515 78.2497C21.6351 79.7876 2.07294 102.044 3.59721 127.929L32.7896 623.679C34.3139 649.564 56.5842 669.357 82.4694 667.833L944.772 617.056L910.054 27.4726L47.7515 78.2497Z" fill="white"/>
</mask>
<g mask="url(#mask21_102_497)">
<path d="M266.746 114.753L259.35 115.188L259.296 114.264L238.033 115.516L237.163 116.495L-55.6641 133.738C-56.1263 133.765 -56.3438 134.01 -56.3166 134.472C-56.2894 134.935 -56.0447 135.152 -55.5824 135.125L266.828 116.14C267.29 116.112 267.508 115.868 267.48 115.405C267.453 114.943 267.208 114.726 266.746 114.753Z" fill="#E4E9B8"/>
</g>
<mask id="mask22_102_497" style="mask-type:luminance" maskUnits="userSpaceOnUse" x="3" y="27" width="942" height="641">
<path d="M47.7515 78.2497C21.6351 79.7876 2.07294 102.044 3.59721 127.929L32.7896 623.679C34.3139 649.564 56.5842 669.357 82.4694 667.833L944.772 617.056L910.054 27.4726L47.7515 78.2497Z" fill="white"/>
</mask>
<g mask="url(#mask22_102_497)">
<path d="M260.914 118.111L259.99 118.166L259.935 117.241L234.512 118.738L233.642 119.717L-57.7983 136.879C-58.2606 136.906 -58.4781 137.151 -58.4509 137.613C-58.4237 138.075 -58.1789 138.293 -57.7167 138.265L260.996 119.498C261.458 119.471 261.675 119.226 261.648 118.764C261.403 118.546 261.145 118.098 260.914 118.111Z" fill="#E4E9B8"/>
</g>
<mask id="mask23_102_497" style="mask-type:luminance" maskUnits="userSpaceOnUse" x="3" y="27" width="942" height="641">
<path d="M47.7515 78.2497C21.6351 79.7876 2.07294 102.044 3.59721 127.929L32.7896 623.679C34.3139 649.564 56.5842 669.357 82.4694 667.833L944.772 617.056L910.054 27.4726L47.7515 78.2497Z" fill="white"/>
</mask>
<g mask="url(#mask23_102_497)">
<path d="M257.815 124.556L257.352 124.583L257.298 123.658L227.022 125.441L226.151 126.42L-62.0532 143.391C-62.5155 143.418 -62.733 143.663 -62.7058 144.125C-62.6785 144.588 -62.4338 144.805 -61.9716 144.778L256.279 126.038C256.714 125.548 257.38 125.045 257.815 124.556Z" fill="#E4E9B8"/>
</g>
<mask id="mask24_102_497" style="mask-type:luminance" maskUnits="userSpaceOnUse" x="3" y="27" width="942" height="641">
<path d="M47.7515 78.2497C21.6351 79.7876 2.07294 102.044 3.59721 127.929L32.7896 623.679C34.3139 649.564 56.5842 669.357 82.4694 667.833L944.772 617.056L910.054 27.4726L47.7515 78.2497Z" fill="white"/>
</mask>
<g mask="url(#mask24_102_497)">
<path d="M229.904 123.184L-59.919 140.251C-60.3812 140.278 -60.5987 140.523 -60.5715 140.985C-60.5443 141.447 -60.2995 141.665 -59.8373 141.638L259.337 122.843C259.8 122.816 260.017 122.571 259.99 122.109L260.683 122.068L260.588 120.45L231.005 122.192L229.904 123.184Z" fill="#E4E9B8"/>
</g>
<mask id="mask25_102_497" style="mask-type:luminance" maskUnits="userSpaceOnUse" x="3" y="27" width="942" height="641">
<path d="M47.7515 78.2497C21.6351 79.7876 2.07294 102.044 3.59721 127.929L32.7896 623.679C34.3139 649.564 56.5842 669.357 82.4694 667.833L944.772 617.056L910.054 27.4726L47.7515 78.2497Z" fill="white"/>
</mask>
<g mask="url(#mask25_102_497)">
<path d="M259.217 148.7C258.321 148.753 257.444 148.718 256.585 148.595C255.743 148.487 254.968 148.312 254.26 148.069C253.567 147.826 252.975 147.554 252.484 147.251L253.867 144.213C254.407 144.544 254.975 144.826 255.573 145.059C256.185 145.275 256.817 145.435 257.47 145.538C258.121 145.626 258.77 145.651 259.414 145.613C260.121 145.572 260.722 145.457 261.215 145.271C261.725 145.083 262.105 144.84 262.355 144.541C262.621 144.242 262.742 143.887 262.718 143.479C262.696 143.102 262.529 142.804 262.216 142.586C261.904 142.368 261.499 142.194 261.003 142.066C260.521 141.921 259.985 141.787 259.394 141.664C258.803 141.541 258.203 141.395 257.594 141.226C257 141.04 256.45 140.804 255.944 140.519C255.453 140.216 255.043 139.822 254.715 139.337C254.387 138.852 254.201 138.232 254.156 137.478C254.09 136.346 254.338 135.346 254.902 134.477C255.482 133.607 256.324 132.91 257.429 132.388C258.532 131.85 259.847 131.536 261.371 131.446C262.487 131.38 263.547 131.444 264.552 131.637C265.556 131.815 266.425 132.111 267.159 132.525L265.894 135.533C265.24 135.145 264.522 134.872 263.74 134.713C262.957 134.538 262.157 134.475 261.339 134.523C260.601 134.567 259.969 134.691 259.445 134.895C258.937 135.098 258.55 135.366 258.286 135.697C258.036 136.011 257.923 136.365 257.946 136.758C257.969 137.15 258.13 137.464 258.427 137.699C258.74 137.917 259.145 138.098 259.642 138.243C260.139 138.371 260.682 138.497 261.273 138.62C261.864 138.743 262.456 138.889 263.05 139.059C263.643 139.229 264.193 139.457 264.698 139.743C265.204 140.028 265.621 140.406 265.948 140.876C266.274 141.33 266.459 141.918 266.501 142.641C266.568 143.773 266.312 144.781 265.733 145.667C265.154 146.537 264.304 147.241 263.185 147.78C262.08 148.303 260.757 148.609 259.217 148.7Z" fill="#E4E9B8"/>
<path d="M242.408 149.406L244.284 135.859L239.003 136.17L239.456 133.02L253.837 132.174L253.384 135.323L248.126 135.632L246.227 149.181L242.408 149.406Z" fill="#E4E9B8"/>
<path d="M233.595 133.365L237.414 133.141L235.086 149.837L231.267 150.062L233.595 133.365ZM223.793 150.502L219.951 150.728L222.279 134.032L226.122 133.805L223.793 150.502ZM232.518 143.199L224.479 143.672L224.926 140.405L232.965 139.932L232.518 143.199Z" fill="#E4E9B8"/>
<path d="M210.456 151.572C208.79 151.67 207.326 151.456 206.065 150.931C204.819 150.389 203.827 149.604 203.088 148.575C202.364 147.53 201.96 146.3 201.877 144.885C201.795 143.486 201.961 142.168 202.377 140.929C202.809 139.689 203.455 138.602 204.314 137.668C205.173 136.719 206.224 135.955 207.468 135.377C208.711 134.799 210.111 134.465 211.667 134.373C213.238 134.281 214.613 134.452 215.79 134.887C216.981 135.306 217.958 135.958 218.72 136.844L216.116 139.221C215.527 138.593 214.87 138.159 214.146 137.917C213.438 137.675 212.621 137.581 211.693 137.636C210.719 137.693 209.848 137.91 209.082 138.287C208.33 138.646 207.697 139.133 207.181 139.747C206.665 140.361 206.281 141.07 206.029 141.873C205.775 142.661 205.676 143.51 205.729 144.422C205.778 145.255 206.002 145.975 206.401 146.582C206.798 147.174 207.361 147.622 208.088 147.926C208.832 148.229 209.722 148.35 210.759 148.289C211.545 148.243 212.292 148.065 212.999 147.755C213.706 147.445 214.381 146.988 215.023 146.382L216.656 149.196C215.861 149.889 214.923 150.441 213.844 150.852C212.779 151.261 211.65 151.501 210.456 151.572ZM213.273 148.803L214.134 142.531L217.623 142.326L216.656 149.196L213.273 148.803Z" fill="#E4E9B8"/>
<path d="M194.028 152.255L196.357 135.558L200.2 135.332L197.871 152.029L194.028 152.255Z" fill="#E4E9B8"/>
<path d="M179.801 153.093L182.13 136.396L185.972 136.17L184.073 149.718L192.348 149.231L191.895 152.38L179.801 153.093Z" fill="#E4E9B8"/>
<path d="M169.561 144.588L177.506 144.12L177.05 147.222L169.129 147.689L169.561 144.588ZM168.587 153.753L164.744 153.979L167.073 137.283L179.544 136.548L179.088 139.651L170.459 140.159L168.587 153.753Z" fill="#E4E9B8"/>
<path d="M139.029 155.493L141.358 138.797L144.517 138.611L152.316 150.145L151.063 150.148L152.72 138.128L156.492 137.906L154.164 154.602L151.028 154.787L143.205 143.254L144.482 143.25L142.801 155.271L139.029 155.493Z" fill="#E4E9B8"/>
<path d="M127.712 156.444C126.046 156.542 124.59 156.328 123.345 155.802C122.115 155.26 121.146 154.473 120.438 153.442C119.73 152.396 119.334 151.165 119.251 149.751C119.168 148.336 119.335 147.017 119.751 145.794C120.167 144.555 120.797 143.47 121.641 142.537C122.5 141.587 123.535 140.824 124.747 140.248C125.975 139.671 127.351 139.338 128.876 139.248C130.542 139.15 131.99 139.372 133.22 139.915C134.466 140.441 135.443 141.227 136.151 142.274C136.858 143.304 137.253 144.527 137.337 145.942C137.42 147.356 137.254 148.683 136.838 149.922C136.421 151.145 135.783 152.231 134.924 153.181C134.08 154.113 133.044 154.868 131.817 155.445C130.605 156.021 129.236 156.354 127.712 156.444ZM127.85 153.171C128.778 153.117 129.601 152.903 130.32 152.529C131.054 152.139 131.663 151.63 132.146 151.002C132.63 150.374 132.983 149.668 133.204 148.882C133.441 148.079 133.534 147.246 133.483 146.381C133.435 145.564 133.22 144.859 132.838 144.267C132.455 143.658 131.916 143.201 131.22 142.895C130.539 142.588 129.712 142.464 128.737 142.521C127.81 142.576 126.987 142.798 126.269 143.187C125.55 143.56 124.94 144.061 124.441 144.69C123.958 145.318 123.598 146.033 123.361 146.835C123.139 147.621 123.054 148.446 123.105 149.311C123.153 150.128 123.368 150.841 123.751 151.449C124.149 152.041 124.688 152.49 125.368 152.797C126.064 153.103 126.892 153.228 127.85 153.171Z" fill="#E4E9B8"/>
<path d="M102.398 157.651L102.747 155.146L114.564 142.102L114.976 143.473L104.533 144.088L104.986 140.939L118.848 140.123L118.499 142.627L106.705 155.67L106.293 154.299L117.279 153.652L116.826 156.801L102.398 157.651Z" fill="#E4E9B8"/>
<path d="M95.7471 158.042L98.0758 141.346L101.918 141.119L99.5898 157.816L95.7471 158.042Z" fill="#E4E9B8"/>
<path d="M78.4117 159.063L80.7404 142.366L87.4591 141.971C89.518 141.85 91.1317 142.204 92.3003 143.034C93.4846 143.863 94.1245 145.087 94.2198 146.706C94.3012 148.089 94.042 149.311 93.4421 150.371C92.8569 151.415 91.9755 152.248 90.7977 152.869C89.6356 153.489 88.2374 153.848 86.6029 153.944L81.2279 154.261L83.1331 152.469L82.2543 158.837L78.4117 159.063ZM89.0202 158.438L85.2965 152.649L89.3041 152.413L93.0515 158.201L89.0202 158.438ZM83.0652 152.922L81.6381 151.185L86.5652 150.895C87.8383 150.82 88.8039 150.479 89.4621 149.872C90.1351 149.249 90.4392 148.388 90.3744 147.287C90.3272 146.486 90.0174 145.913 89.4452 145.568C88.8877 145.206 88.1217 145.054 87.1473 145.112L82.5031 145.385L84.3973 143.405L83.0652 152.922Z" fill="#E4E9B8"/>
<path d="M67.0948 160.014C65.4288 160.112 63.9732 159.898 62.7279 159.372C61.4973 158.829 60.5284 158.042 59.8211 157.012C59.1129 155.965 58.7171 154.735 58.6338 153.32C58.5505 151.906 58.7173 150.587 59.1342 149.364C59.5501 148.125 60.1801 147.039 61.0241 146.106C61.8829 145.157 62.9183 144.394 64.1303 143.818C65.358 143.241 66.7341 142.908 68.2586 142.818C69.9245 142.72 71.3727 142.942 72.6033 143.485C73.8486 144.011 74.8254 144.797 75.5336 145.843C76.2409 146.874 76.6362 148.097 76.7195 149.511C76.8028 150.926 76.6365 152.252 76.2205 153.491C75.8036 154.714 75.1658 155.801 74.307 156.75C73.463 157.683 72.4271 158.438 71.1995 159.015C69.9875 159.591 68.6192 159.924 67.0948 160.014ZM67.2332 156.741C68.1605 156.686 68.9837 156.472 69.703 156.099C70.437 155.708 71.0458 155.199 71.5292 154.572C72.0127 153.944 72.3654 153.237 72.5872 152.451C72.8238 151.649 72.9167 150.815 72.8658 149.951C72.8176 149.134 72.6026 148.429 72.2208 147.836C71.838 147.228 71.2985 146.771 70.6024 146.465C69.9219 146.158 69.0945 146.033 68.1201 146.091C67.1928 146.145 66.37 146.367 65.6517 146.756C64.9325 147.13 64.3233 147.631 63.8241 148.26C63.3406 148.887 62.9806 149.603 62.744 150.405C62.5221 151.191 62.4367 152.016 62.4876 152.88C62.5357 153.698 62.7511 154.41 63.1339 155.019C63.5315 155.61 64.0705 156.06 64.7509 156.367C65.4471 156.673 66.2745 156.797 67.2332 156.741Z" fill="#E4E9B8"/>
<path d="M53.126 143.993L56.9451 143.768L54.6164 160.464L50.7973 160.689L53.126 143.993ZM43.3242 161.129L39.4815 161.355L41.8102 144.659L45.6529 144.433L43.3242 161.129ZM52.0491 153.826L44.0102 154.299L44.4565 151.032L52.4954 150.559L52.0491 153.826Z" fill="#E4E9B8"/>
</g>
</svg>
