<svg width="185" height="37" viewBox="0 0 185 37" fill="none" xmlns="http://www.w3.org/2000/svg">
<g clip-path="url(#clip0_101_2)">
<mask id="mask0_101_2" style="mask-type:luminance" maskUnits="userSpaceOnUse" x="0" y="0" width="185" height="37">
<path d="M184.991 0H0V37H184.991V0Z" fill="white"/>
</mask>
<g mask="url(#mask0_101_2)">
<path d="M21.8579 0C9.15949 0 0 6.97823 0 22.6453V32.9181H177.189C182.049 29.3068 184.991 23.2246 184.991 14.3456V0H21.8579Z" fill="#009E96"/>
<path d="M163.124 37C168.627 37 173.469 35.6786 177.189 32.9181H0V37H163.124Z" fill="#E72410"/>
<path d="M67.8998 24.5008C67.8998 25.4421 68.0265 25.8494 68.4247 26.2657C68.7777 26.6277 69.2665 26.8269 69.8095 26.8269C70.9047 26.8269 71.6016 25.9127 71.6016 24.5008V18.2738C71.6016 12.798 68.0265 9.53062 62.0439 9.53062C56.559 9.53062 52.5766 13.1691 52.5766 18.1833C52.5766 23.1975 56.4776 26.9083 61.6456 26.9083C64.6686 26.9083 66.7322 25.5869 67.8364 24.4465L67.8907 24.5098L67.8998 24.5008ZM61.9986 23.4237C58.5774 23.4237 56.197 21.2968 56.197 18.2466V18.1742C56.197 15.106 58.5864 12.97 61.9986 12.97C65.8543 12.97 68.0627 14.8525 68.0627 18.1199C68.0627 21.3873 65.5647 23.4147 61.9986 23.4147M88.6806 22.9712C87.4768 22.9712 86.7256 23.6047 86.7256 24.6275C86.7256 25.5235 87.332 26.1842 88.3457 26.3834C90.1468 26.7273 92.4548 26.7544 94.6632 26.7544C97.1522 26.7544 99.062 26.2385 100.338 25.2158C101.596 24.2111 102.031 22.9078 102.031 21.5411C102.031 18.6268 99.8222 17.1605 94.4189 16.4907C91.1243 16.0744 90.3641 15.7305 90.3641 14.6082C90.3641 13.8298 90.8257 13.1057 94.1473 13.1057C96.039 13.1057 97.5686 13.2505 98.89 13.2505C100.094 13.2505 100.872 12.5898 100.872 11.5671C100.872 10.5443 100.012 9.89266 98.4012 9.76594H98.3741C97.2337 9.69354 93.8848 9.62113 93.5319 9.63018C89.2599 9.63018 86.8071 11.4766 86.8071 14.6806C86.8071 17.8846 88.8345 19.3508 93.5862 19.8215C96.2652 20.0749 98.4827 20.3917 98.4827 21.5773C98.4827 22.763 97.1522 23.297 94.1654 23.297C91.8032 23.297 89.7214 22.9712 88.6987 22.9712M133.727 13.1057C136.931 13.1057 138.469 14.5267 138.469 17.423V24.5551C138.469 25.958 139.212 26.8631 140.361 26.8631C141.293 26.8631 142.226 26.139 142.226 24.537V16.9071C142.226 12.4812 138.904 9.62113 133.754 9.62113C128.604 9.62113 125.174 12.4812 125.174 16.9071V24.5551C125.174 25.958 125.916 26.8631 127.056 26.8631C127.98 26.8631 128.921 26.139 128.921 24.537V17.423C128.921 14.5539 130.541 13.1057 133.727 13.1057ZM76.3352 6.93302C75.1948 6.93302 74.4526 7.83811 74.4526 9.24099V21.3511C74.4526 24.8809 76.5434 26.7454 80.4986 26.7454C81.277 26.7454 81.992 26.673 82.5803 26.5372C83.8836 26.2657 84.5534 25.6683 84.5534 24.7633C84.5534 23.8582 84.0013 23.0164 82.4988 23.1069C82.3359 23.116 80.9874 23.2427 80.5439 23.2427C78.5436 23.2427 78.1273 22.2019 78.1273 20.6451V13.7212H82.0282C83.4944 13.7212 84.2638 13.1329 84.2638 12.0196C84.2638 10.9697 83.422 10.3361 82.0282 10.3361H78.1273V9.25004C78.1273 7.82906 77.4213 6.91492 76.3262 6.91492M113.245 9.52157C107.76 9.52157 103.777 13.16 103.777 18.1742C103.777 23.1884 107.76 26.8269 113.245 26.8269C118.73 26.8269 122.712 23.1884 122.712 18.1742C122.712 13.16 118.73 9.52157 113.245 9.52157ZM113.245 23.3785C109.796 23.3785 107.398 21.2425 107.398 18.1742C107.398 15.106 109.805 12.979 113.245 12.979C116.684 12.979 119.092 15.115 119.092 18.1742C119.092 21.2334 116.684 23.3785 113.245 23.3785ZM37.3802 17.9298L39.8058 24.184C40.4394 25.8222 41.96 26.8812 43.6706 26.8812C45.3812 26.8812 46.9922 25.786 47.5262 24.0754L51.2914 11.9201C51.5991 10.9335 51.047 9.87455 50.0514 9.56682C49.1011 9.2772 48.024 9.77499 47.6982 10.8068L43.9783 22.8173C43.9149 23.0074 43.7973 23.1341 43.6525 23.1341C43.5077 23.1341 43.3809 23.0164 43.3085 22.8264L40.1769 14.7711C39.7063 13.5492 39.118 12.0287 37.3802 12.0287C35.6424 12.0287 35.0541 13.5492 34.5835 14.7711L31.4519 22.8264C31.3795 23.0164 31.2528 23.1341 31.108 23.1341C30.9631 23.1341 30.8364 23.0164 30.7731 22.8173L27.0532 10.8068C26.7454 9.82025 25.7136 9.25909 24.6999 9.56682C23.7134 9.87455 23.1613 10.9245 23.46 11.9201L27.2251 24.0754C27.7591 25.8041 29.3159 26.8812 31.0808 26.8812C32.8457 26.8812 34.3029 25.8222 34.9365 24.184L37.3621 17.9298H37.3802ZM151.901 23.288C154.888 23.288 156.218 22.763 156.218 21.5683C156.218 20.3736 154.001 20.0658 151.322 19.8124C146.57 19.3327 144.543 17.8031 144.543 14.6715C144.543 11.5399 146.995 9.62113 151.267 9.62113C151.62 9.62113 154.969 9.68449 156.11 9.75689H156.137C157.757 9.88361 158.608 10.5081 158.608 11.558C158.608 12.6079 157.829 13.2415 156.626 13.2415C155.304 13.2415 153.775 13.0967 151.883 13.0967C148.561 13.0967 148.1 13.8207 148.1 14.5991C148.1 15.7124 148.86 16.0654 152.154 16.4817C157.567 17.1515 159.766 18.6177 159.766 21.5321C159.766 22.8988 159.332 24.2021 158.074 25.2067C156.798 26.2295 154.879 26.7454 152.399 26.7454C150.19 26.7454 147.882 26.7182 146.081 26.3743C145.068 26.1752 144.461 25.5235 144.461 24.6184C144.461 23.5957 145.212 22.9621 146.416 22.9621C147.43 22.9621 149.512 23.288 151.874 23.288" fill="white"/>
</g>
</g>
<defs>
<clipPath id="clip0_101_2">
<rect width="184.991" height="37" fill="white"/>
</clipPath>
</defs>
</svg>
