<svg width="1653" height="340" viewBox="0 0 1653 340" fill="none" xmlns="http://www.w3.org/2000/svg">
<mask id="mask0_116_4" style="mask-type:alpha" maskUnits="userSpaceOnUse" x="0" y="0" width="1653" height="340">
<rect width="1653" height="340" fill="#D9D9D9"/>
</mask>
<g mask="url(#mask0_116_4)">
<path d="M1617.98 173.564C1617.18 151.616 1598.89 134.467 1577.14 135.26C1575.23 135.33 1573.35 135.539 1571.53 135.871C1570.42 133.571 1569.11 131.395 1567.61 129.371C1567.16 123.366 1565.4 117.752 1562.62 112.808C1563.98 110.455 1564.97 107.865 1565.51 105.117C1582.91 95.0653 1594.33 75.8524 1593.55 54.2256C1592.41 23.1753 1566.54 -1.08699 1535.76 0.0375651C1504.98 1.16008 1480.95 27.2424 1482.08 58.2927C1482.09 58.3821 1482.09 58.4696 1482.1 58.5591C1478.98 57.3105 1475.57 56.678 1472 56.8082C1461.55 57.1905 1452.84 64.011 1449.48 73.3531C1446.61 72.5519 1443.57 72.1716 1440.43 72.2855C1426.96 72.7776 1415.91 82.1848 1412.64 94.6769C1408.09 92.1838 1402.85 90.8478 1397.3 91.0491C1393.22 91.1975 1389.36 92.1675 1385.88 93.7903C1382.73 79.9744 1370.22 69.9022 1355.66 70.433C1344.47 70.8417 1334.95 77.408 1330.17 86.7847C1316.22 87.5249 1304.95 97.8472 1302.42 111.177C1297 106.728 1290.02 104.165 1282.49 104.44C1268.78 104.94 1257.57 114.683 1254.53 127.513C1248.35 120.767 1239.41 116.676 1229.6 117.034C1224.1 117.235 1218.98 118.811 1214.53 121.42C1213.47 118.638 1212.03 116.045 1210.29 113.701C1208.99 96.3261 1194.3 82.9434 1176.89 83.5799C1169.1 83.8646 1162.06 86.9068 1156.65 91.7425C1152.32 88.7491 1147.24 86.7949 1141.78 86.2194C1141.78 85.7476 1141.77 85.2758 1141.75 84.802C1140.73 56.859 1117.45 35.0268 1089.75 36.0375C1072.46 36.6679 1057.53 46.0588 1049 59.826C1045.62 58.7665 1042 58.254 1038.26 58.3903C1020.43 59.041 1006.5 74.1523 1007.16 92.1411C1007.26 94.8803 1007.7 97.53 1008.42 100.05C1007.41 100.043 1006.38 100.096 1005.35 100.214C996.241 101.249 988.782 106.945 985.041 114.679C982.8 114.325 980.475 114.262 978.114 114.53C969.138 115.551 961.769 121.093 957.972 128.651C950.11 122.801 940.132 119.81 929.669 120.999C907.69 123.498 891.916 143.5 894.438 165.674C894.787 168.753 895.473 171.71 896.451 174.516C892.174 175.901 888.441 178.404 885.551 181.66C880.644 177.591 874.208 175.395 867.392 176.035C857.881 176.928 850.127 183.102 846.706 191.419C844.27 190.095 841.616 189.082 838.781 188.444C827.617 185.926 816.492 189.837 809.212 197.739C805.012 192.69 799.194 188.942 792.317 187.393C782.869 185.263 773.452 187.736 766.365 193.335C762.497 184.763 754.835 178.065 745.008 175.85C733.844 173.333 722.719 177.243 715.439 185.148C711.239 180.098 705.421 176.35 698.544 174.801C687.618 172.338 676.726 176.031 669.442 183.6C654.719 173.021 634.062 173.414 619.465 185.743C617.092 187.746 615.006 189.961 613.206 192.334C610.113 190.573 606.713 189.231 603.063 188.409C596.262 186.876 589.474 187.334 583.296 189.396C582.749 172.798 571.215 158.046 554.394 154.254C546.196 152.405 538.015 153.449 530.902 156.712C528.832 154.138 526.381 151.801 523.561 149.792C510.111 140.204 492.397 140.938 479.736 150.388C479.876 133.127 471.941 116.131 456.903 105.412C442.687 95.2789 425.237 92.9728 409.625 97.6215C410.14 85.467 404.739 73.345 394.156 65.8026C388.537 61.7965 382.172 59.5962 375.744 59.0756C372.403 48.4788 365.735 38.8621 356.023 31.9379C332.102 14.8865 298.764 20.6252 281.562 44.7594C276.729 51.5413 273.684 59.0532 272.334 66.7278C257.977 63.2688 242.256 68.6455 233.091 81.5016C228.733 87.6144 226.459 94.5793 226.126 101.54C222.62 101.896 219.102 102.675 215.637 103.913C192.349 112.239 180.273 138.032 188.668 161.526C197.062 185.019 222.75 197.322 246.038 188.999C258.951 184.385 268.413 174.4 272.853 162.412C273.772 163.216 274.736 163.98 275.751 164.702C283.529 170.248 292.735 172.338 301.562 171.291C304.09 177.735 308.442 183.531 314.482 187.838C325.727 195.854 339.952 196.655 351.712 191.181C354.305 197.028 358.439 202.27 364.011 206.242C378.396 216.495 397.658 214.945 410.398 203.551C416.594 205.198 422.982 205.713 429.267 205.152C431.856 211.051 436.011 216.342 441.623 220.342C453.2 228.594 467.935 229.198 479.888 223.181C484.976 230.967 492.95 236.849 502.699 239.045C509.678 240.619 516.645 240.094 522.953 237.89C528.012 246.056 536.185 252.253 546.251 254.522C547.284 254.754 548.317 254.939 549.346 255.081C550.103 260.702 552.411 266.17 556.33 270.813C563.762 279.614 575.093 283.199 585.729 281.204C586.617 286.465 588.874 291.555 592.557 295.917C603.595 308.987 623.235 310.557 636.423 299.419C646.613 290.813 649.964 277.141 645.871 265.339C646.28 264.763 646.672 264.173 647.05 263.573C651.591 264.023 656.055 263.443 660.181 262.004C664.401 268.816 671.217 273.983 679.616 275.876C687.39 277.629 695.144 276.265 701.594 272.606C705.619 276.745 710.839 279.799 716.874 281.16C725.734 283.157 734.57 281.107 741.478 276.226C744.852 276.486 748.175 276.183 751.341 275.382C752.897 276.358 754.554 277.202 756.303 277.896C760.514 283.059 766.403 286.898 773.385 288.47C781.159 290.223 788.913 288.859 795.363 285.2C799.39 289.339 804.608 292.393 810.643 293.753C821.881 296.287 833.079 292.31 840.358 284.301C844.24 287.962 849.112 290.658 854.68 291.913C871.369 295.675 887.977 285.076 891.774 268.238C895.568 251.401 885.116 234.699 868.425 230.937C866.958 230.608 865.494 230.39 864.038 230.274C863.703 228.519 863.221 226.807 862.598 225.154C865.584 226.058 868.789 226.412 872.081 226.103C878.586 225.493 884.268 222.41 888.307 217.863C892.262 221.143 897.209 223.205 902.552 223.547C905.62 236.108 917.535 244.731 930.609 243.244C935.558 242.681 940.02 240.741 943.664 237.847C948.86 242.061 955.654 244.263 962.793 243.451C969.402 242.699 975.143 239.496 979.225 234.841C983.534 236.999 988.487 237.975 993.618 237.391C994.074 237.341 994.525 237.276 994.972 237.2C1002.99 247.63 1017.02 252.226 1029.97 247.598C1035.59 245.589 1040.27 242.109 1043.73 237.741C1050.94 241.237 1059.46 241.953 1067.57 239.055C1074.77 236.482 1080.42 231.492 1083.95 225.308C1084.22 225.078 1084.48 224.844 1084.75 224.611C1090.26 225.857 1096.17 225.609 1101.87 223.571C1112.71 219.696 1120.05 210.341 1121.9 199.681C1123.3 199.952 1124.72 200.127 1126.16 200.2C1129.73 201.406 1133.58 202 1137.57 201.855C1145.88 201.552 1153.34 198.111 1158.87 192.704C1164.03 195.805 1170.1 197.495 1176.55 197.259C1191.62 196.708 1203.91 185.827 1206.95 171.608C1207.96 172.723 1209.05 173.766 1210.21 174.73C1206.85 179.807 1204.99 185.959 1205.23 192.525C1205.83 209.162 1219.7 222.16 1236.18 221.558C1241.94 221.349 1247.25 219.51 1251.7 216.499C1257.31 221.812 1264.94 224.952 1273.24 224.649C1277.81 224.482 1282.1 223.287 1285.91 221.294C1290.8 224.379 1296.62 226.073 1302.82 225.847C1304.05 225.802 1305.26 225.682 1306.44 225.493C1311.82 229.81 1318.7 232.285 1326.11 232.017C1340.86 231.478 1352.72 220.236 1354.62 205.963C1356.83 207.401 1359.27 208.564 1361.9 209.394C1369.23 211.698 1376.8 211.004 1383.29 208.003C1386.83 212.302 1391.6 215.653 1397.3 217.44C1397.34 217.457 1397.39 217.469 1397.44 217.485C1404.96 227.228 1416.85 233.316 1430.01 232.836C1437.6 232.56 1444.61 230.134 1450.48 226.162C1457.89 233.172 1467.95 237.316 1478.9 236.916C1489.03 236.546 1498.13 232.348 1504.88 225.751C1511.17 229.536 1518.59 231.596 1526.45 231.309C1541.1 230.774 1553.58 222.244 1559.94 210.028C1565.9 213.27 1572.77 215.002 1580.03 214.738C1601.79 213.945 1618.77 195.508 1617.97 173.562" fill="#D6DD94"/>
<path fill-rule="evenodd" clip-rule="evenodd" d="M1652.91 239.44C1651.59 221.989 1636.64 208.858 1619.39 209.869C1613.24 200.538 1602.41 194.735 1590.55 195.629C1575.12 196.791 1563.11 208.903 1561.43 223.857C1557.55 222.557 1553.37 221.991 1549.04 222.317C1546.68 222.496 1544.39 222.933 1542.21 223.598C1541.9 220.207 1541.04 216.808 1539.58 213.518C1532.44 197.346 1513.65 189.982 1497.62 197.066C1496.39 197.61 1495.21 198.223 1494.09 198.899C1493.67 197.387 1493.14 195.886 1492.49 194.409C1485.34 178.237 1466.55 170.87 1450.52 177.954C1441.93 181.751 1435.88 188.932 1433.21 197.266C1424.16 189.105 1410.89 186.507 1399.11 191.712C1390.72 195.42 1384.75 202.353 1381.99 210.437C1376.73 205.201 1369.34 202.197 1361.4 202.795C1355.39 203.249 1350.01 205.692 1345.83 209.434C1340.66 201.845 1331.74 197.154 1321.99 197.889C1313.95 198.495 1307.02 202.666 1302.61 208.754C1299.35 200.86 1293.45 194.025 1285.36 189.712C1282.58 188.232 1279.7 187.137 1276.79 186.399C1277.37 180.472 1276.32 174.302 1273.4 168.592C1267.26 156.582 1254.64 150.074 1242.07 151.21C1241.89 144.554 1240.25 137.824 1237.01 131.49C1225.48 108.947 1198.01 99.9362 1175.67 111.368C1166.6 116.009 1159.76 123.307 1155.61 131.846C1150.12 131.483 1144.46 132.55 1139.21 135.237C1129.33 140.293 1123.25 149.865 1122.17 160.203C1109.55 154.327 1094.52 154.1 1081.24 160.892C1067.19 168.078 1058.36 181.453 1056.33 196.061C1046.81 186.496 1031.92 183.665 1019.36 190.092C1016.72 191.44 1014.36 193.109 1012.29 195.025C1006.68 191.379 999.9 189.479 992.741 190.016C978.05 191.124 966.459 202.154 963.928 216.114C958.963 213.601 953.283 212.367 947.343 212.814C944.156 213.054 941.115 213.765 938.279 214.868C937.055 212.637 935.567 210.506 933.811 208.517C923.01 196.275 905.598 193.366 891.834 200.474C886.621 193.167 877.876 188.686 868.332 189.405C862.326 189.859 856.939 192.301 852.76 196.044C847.592 188.455 838.675 183.764 828.926 184.498C820.345 185.144 813.032 189.852 808.693 196.614C807.413 195.256 805.996 194.036 804.465 192.973C800.169 183.723 790.778 177.393 780.001 177.587C772.729 177.719 766.196 180.799 761.501 185.673C758.065 182.578 753.828 180.38 749.152 179.425C749.852 176.347 750.225 173.145 750.229 169.855C750.268 146.154 731.25 126.909 707.758 126.872C696.577 126.855 686.397 131.194 678.794 138.297C673.894 130.771 665.458 125.795 655.864 125.78C653.34 125.775 650.895 126.116 648.571 126.758C643.705 119.039 635.159 113.912 625.419 113.897C624.317 113.897 623.231 113.961 622.164 114.087C622.63 111.342 622.775 108.495 622.557 105.59C621.121 86.5264 604.636 72.2247 585.738 73.6502C581.773 73.9482 578.019 74.9179 574.572 76.4362C563.944 62.9141 547.077 54.7698 528.745 56.152C499.394 58.3636 477.406 84.1615 479.639 113.774C479.678 114.277 479.724 114.776 479.773 115.275C474.076 116.527 468.949 119.19 464.735 122.864C458.454 118.4 450.66 116.022 442.408 116.644C423.959 118.033 410.033 133.898 410.718 152.39C409.161 155.072 407.951 157.977 407.152 161.039C402.155 158.81 396.561 157.752 390.734 158.193C380.341 158.977 371.385 164.352 365.666 172.203C360.936 159.022 347.952 150.066 333.424 151.161C325.443 151.761 318.379 155.292 313.183 160.631C308.939 146.861 295.823 137.302 281.007 138.17C274.854 128.84 264.025 123.037 252.168 123.931C236.737 125.093 224.729 137.204 223.044 152.158C219.17 150.858 214.984 150.292 210.66 150.619C204.786 151.061 199.408 153.094 194.905 156.262C189.972 143.463 177.191 134.842 162.922 135.919C159.596 136.17 156.429 136.93 153.49 138.118C148.838 128.656 138.838 122.488 127.763 123.322C123.986 123.607 120.457 124.678 117.317 126.365C117.315 126.338 117.313 126.311 117.312 126.284L117.308 126.223C117.305 126.176 117.303 126.129 117.3 126.082C114.82 93.1763 86.3657 68.4927 53.7474 70.9505C21.1268 73.4039 -3.30618 102.072 -0.826811 134.978C0.56529 153.442 10.1369 169.316 24.0326 179.259C23.3568 182.231 23 185.324 23 188.5C23 191.753 23.3743 194.919 24.0821 197.956C9.68078 201.503 -1 214.504 -1 230C-1 233.055 -0.584746 236.014 0.192405 238.822C0.0656273 239.696 5.85383e-09 240.591 5.85383e-09 241.5C5.85383e-09 241.667 0.00221789 241.834 0.0066259 242H5.85383e-09V340H69.1721V3141.7H1580.98V340H1653V242C1653 241.153 1652.97 240.299 1652.91 239.44H1652.91Z" fill="white"/>
</g>
</svg>
