<svg width="171" height="205" viewBox="0 0 171 205" fill="none" xmlns="http://www.w3.org/2000/svg">
<g clip-path="url(#clip0_99_79)">
<path d="M162.73 11.22H11.24V162.71H162.73V11.22Z" fill="white"/>
<path d="M87.05 137.37C85.08 137.37 83.48 138.97 83.48 140.94C83.48 142.91 85.08 144.51 87.05 144.51C89.02 144.51 90.62 142.91 90.62 140.94C90.62 138.97 89.02 137.37 87.05 137.37Z" fill="#1C1C1B"/>
<path d="M77.89 88.84C77.89 85.9 75.51 83.52 72.57 83.52C69.63 83.52 67.25 85.9 67.25 88.84V89.09H77.91V88.84H77.89Z" fill="#1C1C1B"/>
<path d="M124.02 39.08C124.02 36.14 121.64 33.76 118.7 33.76C115.76 33.76 113.38 36.14 113.38 39.08V39.33H124.04V39.08H124.02Z" fill="#1C1C1B"/>
<path d="M124.02 88.84C124.02 85.9 121.64 83.52 118.7 83.52C115.76 83.52 113.38 85.9 113.38 88.84V89.09H124.04V88.84H124.02Z" fill="#1C1C1B"/>
<path d="M48.1399 122.35H41.4299V132.65H48.1399V122.35Z" fill="#1C1C1B"/>
<path d="M0 0V170.12H170.13V0H0ZM118.96 30.2C124.59 30.2 128.26 34.61 128.26 39.19C128.26 40.81 128.01 42.7 128.01 42.7H113.38C113.38 46.83 116.1 49.1 118.89 49.48C122.34 49.95 126.63 47.08 126.63 47.08L127.71 50.78C127.71 50.78 123.73 53.57 118.97 53.32C113.14 53.01 108.4 48.15 108.4 41.76C108.4 35.37 112.47 30.2 118.97 30.2H118.96ZM131.86 118.58V136.38H128.13V118.58H131.86ZM118.96 55.08C124.59 55.08 128.26 59.49 128.26 64.07C128.26 65.69 128.01 67.58 128.01 67.58H113.38C113.38 71.71 116.1 73.98 118.89 74.36C122.34 74.83 126.63 71.96 126.63 71.96L127.71 75.66C127.71 75.66 123.73 78.45 118.97 78.2C113.14 77.89 108.4 73.03 108.4 66.64C108.4 60.25 112.47 55.08 118.97 55.08H118.96ZM118.96 79.95C124.59 79.95 128.26 84.36 128.26 88.94C128.26 90.56 128.15 92.45 128.15 92.45H113.38C113.38 96.58 116.1 98.85 118.89 99.23C122.34 99.7 126.63 96.83 126.63 96.83L127.71 100.53C127.71 100.53 123.73 103.32 118.97 103.07C113.14 102.76 108.4 97.9 108.4 91.51C108.4 85.12 112.06 79.95 118.97 79.95H118.96ZM120.1 126.76V123.58L123.11 123.54V118.58H126.85V136.38H123.11V126.76H120.1ZM99.76 46.46C99.03 43.09 88.36 42.78 87.73 36.81C87.31 32.88 91.22 30.19 96.08 30.19C100.6 30.19 104.04 31.81 104.04 31.81L102.68 35.69C102.68 35.69 99.75 33.87 96.08 33.87C94.02 33.87 92.46 34.93 92.95 36.63C93.92 40.01 104.68 40.48 105.26 46.45C105.7 50.96 101.28 53.32 96.08 53.32C90.88 53.32 87.11 51.32 87.11 51.32L88.58 47.12C88.58 47.12 92.62 49.29 96.08 49.29C98.81 49.29 100.12 48.13 99.76 46.44V46.46ZM80.55 21.07C82.19 21.07 83.53 22.4 83.53 24.05C83.53 25.7 82.2 27.03 80.55 27.03C78.9 27.03 77.57 25.7 77.57 24.05C77.57 22.4 78.9 21.07 80.55 21.07ZM83.04 30.64V53.04H78.06V30.64H83.04ZM52.35 99.48C54.62 99.48 56.89 98.45 58.24 96.83L59.31 100.5C59.31 100.5 56.44 103.44 50.57 103.04C44.75 102.65 40 97.89 40 91.51C40 85.13 44.74 80.37 50.57 79.98C56.44 79.58 59.31 82.52 59.31 82.52L58.24 86.19C56.89 84.57 54.62 83.54 52.35 83.54C48.28 83.54 44.98 86.84 44.98 90.91V92.1C44.98 96.17 48.28 99.47 52.35 99.47V99.48ZM28.31 103.08C22.95 103.08 19.34 101.08 19.34 101.08L20.93 96.52C20.93 96.52 24.39 99.05 28.3 99.05C31.03 99.05 32.34 97.89 31.98 96.2C31.25 92.83 20.58 92.52 19.95 86.55C19.53 82.62 23.44 79.93 28.3 79.93C32.82 79.93 36.26 81.55 36.26 81.55L34.84 85.61C34.84 85.61 32.18 83.61 28.3 83.61C26.24 83.61 24.68 84.67 25.17 86.37C26.14 89.75 36.9 90.22 37.48 96.19C37.92 100.7 33.5 103.06 28.3 103.06L28.31 103.08ZM51.78 135.82H37.66V119.16H51.78V135.82ZM59.67 146.55H55.91V118.58H59.67V146.55ZM59.16 38.04V53.06H54.18V37.29C54.18 35.73 52.91 34.62 51.35 34.46C47.19 34.03 44.98 38.03 44.98 38.03V53.05H40V30.65H44.39L44.98 33.34V33.36C46.73 31.43 49.25 30.21 52.07 30.21C54.89 30.21 57.31 31.86 58.45 34.23C60.19 31.8 63.03 30.21 66.24 30.21C70.15 30.21 73.33 33.38 73.33 37.3V53.07H68.35V37.3C68.35 35.74 67.08 34.63 65.52 34.47C61.36 34.04 59.15 38.04 59.15 38.04H59.16ZM76.15 76.73H72.9L67.71 70.83H72.46L76.15 76.73ZM62.27 91.51C62.27 85.13 65.93 79.95 72.84 79.95C78.47 79.95 82.14 84.36 82.14 88.94C82.14 90.56 82.03 92.45 82.03 92.45H67.26C67.26 96.58 69.98 98.85 72.77 99.23C76.22 99.7 80.51 96.83 80.51 96.83L81.59 100.53C81.59 100.53 77.61 103.32 72.85 103.07C67.02 102.76 62.28 97.9 62.28 91.51H62.27ZM73.72 133.73L71.23 131.28C75.29 128.12 76.95 125.06 77.36 122.3H72.25V119.11H86.19V122.3H81.19C81.59 125.02 83.24 128.03 87.22 131.2L84.73 133.65C82.56 131.95 80.42 129.89 79.28 127.53C78.12 129.94 75.94 132.02 73.72 133.73ZM87.05 147.7C83.31 147.7 80.29 144.67 80.29 140.94C80.29 137.21 83.32 134.18 87.05 134.18C90.78 134.18 93.81 137.21 93.81 140.94C93.81 144.67 90.78 147.7 87.05 147.7ZM97.81 124.79H94.23V127.28H97.81V130.46H94.23V133.65H90.49V118.58H94.23V121.61H97.81V124.79ZM105.3 102.81H100.32V87.04C100.32 85.48 99.05 84.37 97.49 84.21C93.33 83.78 91.12 87.78 91.12 87.78V102.8H86.14V80.4H90.53L91.12 83.09V83.11C92.87 81.18 95.39 79.96 98.21 79.96C102.12 79.96 105.3 83.13 105.3 87.05V102.82V102.81ZM108.35 133.73L105.86 131.28C109.45 128.49 111.33 125.77 111.86 123.27C111.98 122.69 112.03 122.1 112.03 121.5V119.11H115.78V121.5C115.78 122.1 115.83 122.69 115.95 123.27C116.48 125.73 118.33 128.41 121.85 131.2L119.36 133.65C117.19 131.95 115.05 130 113.91 127.64C112.75 130.05 110.57 132.02 108.35 133.73ZM132.08 146.55H114.31V136.19H118.07V143.37H132.08V146.55ZM151.16 77.94H146.18V62.17C146.18 60.61 144.91 59.5 143.35 59.34C139.19 58.91 136.98 62.91 136.98 62.91V77.93H132V55.53H136.39L136.98 58.22V58.24C138.73 56.31 141.25 55.09 144.07 55.09C147.98 55.09 151.16 58.26 151.16 62.18V77.95V77.94Z" fill="#1C1C1B"/>
<path d="M124.02 63.97C124.02 61.03 121.64 58.65 118.7 58.65C115.76 58.65 113.38 61.03 113.38 63.97V64.22H124.04V63.97H124.02Z" fill="#1C1C1B"/>
<path d="M33.61 193.31V180.38H36.95C37.02 180.08 37.17 179.63 37.38 179.02C37.52 178.42 37.63 177.96 37.7 177.66L40.5 178L39.64 180.38H45.24V193.31H39.85C39.78 193.99 39.67 194.67 39.53 195.35H41.58V196.94C41.94 196.26 42.33 195.28 42.76 193.99L44.48 194.67C43.98 195.88 43.4 197.01 42.76 198.07C43.69 198.07 44.41 198.03 44.92 197.96L44.27 196.48L45.67 195.8C46.53 197.31 47.21 198.67 47.72 199.88L46.21 200.67L45.67 199.65C45.38 199.65 44.95 199.69 44.38 199.76C43.01 199.76 42.08 199.83 41.58 199.99V200.33C41.51 201.31 42.08 201.77 43.3 201.69H54.4C55.69 201.76 56.37 201.39 56.45 200.56C56.59 199.96 56.7 199.12 56.77 198.06C57.2 198.36 57.95 198.66 59.03 198.97C58.96 200.1 58.81 201.01 58.6 201.69C58.24 203.43 56.98 204.26 54.83 204.18H42.65C40.21 204.26 39.02 203.16 39.09 200.89V196.58C38.3 199.38 36.61 202.18 34.03 204.97L32.52 202.7C35.39 199.75 37.12 196.61 37.69 193.29H33.59L33.61 193.31ZM35.77 185.71H38.36V182.87H35.77V185.71ZM38.03 190.81C38.17 189.9 38.24 188.92 38.24 187.86H35.76V190.81H38.02H38.03ZM40.4 187.86C40.4 188.24 40.36 188.77 40.29 189.45V190.81H42.98V187.86H40.4ZM42.98 182.87H40.5V185.71H42.98V182.87ZM47.08 184.23V181.73H50.96V177.99H53.44V181.73H57.43V184.23H53.44V187.29H58.07V189.79H53.65C54.8 192.13 56.41 194.06 58.5 195.57C58.36 195.8 58.14 196.18 57.85 196.7C57.56 197.15 57.35 197.53 57.2 197.83C55.55 196.32 54.29 194.81 53.43 193.29V200.78H50.95V193.41C50.16 195 49.01 196.47 47.5 197.83C47.28 197.38 46.92 196.74 46.42 195.9C46.35 195.75 46.27 195.64 46.2 195.56C48.21 194.12 49.76 192.2 50.83 189.78H46.41V187.28H50.94V184.22H47.06L47.08 184.23ZM73.43 204.54V185.48H83.45V177.77H86.36V185.48H96.38V200.68C96.52 203.1 95.41 204.31 93.04 204.31H91.31C90.38 204.38 89.66 204.42 89.16 204.42C88.95 203.51 88.73 202.57 88.51 201.58H91.96C93.11 201.58 93.65 201.09 93.58 200.11V188.09H76.23V204.54H73.43ZM78.6 184.91C77.02 183.32 75.4 181.85 73.75 180.49L75.69 178.56C77.34 179.92 79.03 181.36 80.76 182.87L78.6 184.91ZM79.14 190.92H90.67V199.99H79.14V190.92ZM81.83 197.39H87.97V193.42H81.83V197.39ZM90.77 185.03L88.94 182.99C90.81 181.48 92.5 180 94 178.57L95.94 180.5C93.86 182.39 92.13 183.9 90.77 185.04M111.2 181.75V179.48H117.77V177.67H120.57V179.48H127.68V177.67H130.48V179.48H136.95V181.75H130.48V183.34H127.68V181.75H120.57V183.34H117.77V181.75H111.2ZM111.2 201.6H137.06V203.87H111.2V201.6ZM112.06 189.24V184.25H122.94C122.94 184.1 122.87 183.83 122.72 183.45C122.65 183.15 122.57 182.92 122.5 182.77L125.3 182.66L125.73 184.25H136.18V189.24H133.38V186.4H114.84V189.24H112.04H112.06ZM114.54 191.4H133.72V200.02H114.54V191.4ZM116.16 188.11H132V189.81H116.16V188.11ZM117.34 194.92H130.81V193.33H117.34V194.92ZM117.34 198.21H130.81V196.51H117.34V198.21Z" fill="#1C1C1B"/>
</g>
<defs>
<clipPath id="clip0_99_79">
<rect width="170.13" height="204.99" fill="white"/>
</clipPath>
</defs>
</svg>
