<svg width="183" height="41" viewBox="0 0 183 41" fill="none" xmlns="http://www.w3.org/2000/svg">
<g clip-path="url(#clip0_101_83)">
<mask id="mask0_101_83" style="mask-type:luminance" maskUnits="userSpaceOnUse" x="0" y="0" width="183" height="41">
<path d="M182.45 0H0V41H182.45V0Z" fill="white"/>
</mask>
<g mask="url(#mask0_101_83)">
<path fill-rule="evenodd" clip-rule="evenodd" d="M166.278 8.58699C166.87 14.4035 168.853 23.7987 172.001 30.2469C170.619 32.3798 166.857 36.6235 164.685 38.1742L166.87 40.7129C166.87 40.7129 170.717 37.1499 173.877 33.2719C176.018 37.0859 179.279 40.2221 182.45 40.9068V37.0865C180.355 36.6212 177.864 33.8355 175.554 30.2469C177.529 26.5634 179.708 21.3251 180.696 13.958H177.557C177.567 13.9656 177.084 20.9239 173.877 26.6728C172.419 23.5832 169.87 14.2375 169.528 8.58699H180.696C180.655 8.58699 180.656 5.4275 177.733 5.4275H169.102C169.085 5.4473 168.918 2.90678 168.772 1.39341C168.65 0.858874 168.311 0 167.126 0C165.942 0 165.55 0.777353 165.55 1.57159C165.595 3.15076 165.804 5.45312 165.804 5.4275H152.056V20.9379C152.056 35.2522 145.34 37.7939 145.34 37.7939V40.9074C156.006 37.9995 155.292 19.994 155.292 19.994V18.4428H161.569C162.033 18.4428 162.372 18.7823 162.372 19.315V27.9393C162.372 30.1048 161.724 33.5642 158.97 33.2725C158.988 33.2725 157.075 33.1834 155.461 32.2803C155.461 32.2803 154.982 33.821 154.331 35.1515C155.911 36.3149 158.179 36.2759 157.981 36.2759C162.524 37.0515 165.487 33.5619 165.487 28.9088V18.2238C165.487 16.4787 164.237 15.3159 162.524 15.3159H155.293V8.58757H166.278V8.58699ZM143.958 16.2324H140.205V12.9885H143.958V5.6214H147.191V12.9885H149.759V16.2324H147.191V20.2921C147.191 20.2921 147.264 27.1224 146.474 28.9082C147.461 28.3265 148.449 27.5509 149.437 26.5814C149.415 26.6309 147.629 32.5912 142.45 34.7631C142.055 34.957 141.463 35.1509 140.87 35.1509V31.6223C143.267 30.941 143.958 24.6016 143.958 20.3573V16.2318V16.2324ZM172.343 3.92753C172.305 3.87687 172.27 3.8233 172.238 3.76856L172.236 3.76682C172.089 3.51527 172.005 3.22238 172.005 2.91027C172.005 1.96813 172.774 1.20359 173.723 1.20359C174.358 1.20359 174.912 1.54539 175.209 2.05373L176.677 4.47837H172.709L172.343 3.92811V3.92753Z" fill="#D0011B"/>
<path fill-rule="evenodd" clip-rule="evenodd" d="M29.1856 27.8165H20.1194V23.4231H28.7236V20.3423H20.1194V15.9489H28.7236V6.42909C28.7236 4.72765 27.3423 3.34821 25.6199 3.34821L17.001 3.33948V40.8824H20.1194V30.8974H30.629C30.629 30.8974 29.5755 29.2943 29.1856 27.8165ZM20.1194 6.53449H24.0463C24.9122 6.53449 25.6052 7.22624 25.6052 8.07522V12.9822H20.1194V6.53507V6.53449Z" fill="#D0011B"/>
<path fill-rule="evenodd" clip-rule="evenodd" d="M42.717 6.68936C42.717 4.97394 41.3299 3.57471 39.5962 3.57471H30.985V6.68063H38.0356C38.8974 6.68063 39.5956 7.37588 39.5956 8.23359V13.1795H30.9844V16.2855H42.7164V6.68936H42.717Z" fill="#D0011B"/>
<path fill-rule="evenodd" clip-rule="evenodd" d="M10.7635 5.70521H8.5028V1.70082C8.5028 0.850683 7.80572 0.161255 6.94623 0.161255C6.08675 0.161255 5.38966 0.850683 5.38966 1.70082V5.70521H1.55657C0.697086 5.70521 0.0269688 6.39347 0.0269688 7.24361V28.7952H5.38908V37.8032H1.55657C0.697086 37.8038 0 38.4926 0 39.3428C0 40.1929 0.697086 40.8823 1.55657 40.8823H13.8649V35.523C13.8649 34.6728 13.1397 33.9881 12.2802 33.9881C11.4207 33.9881 10.7512 34.6728 10.7512 35.523V37.8038H8.5028V28.7958H13.8649V8.77095C13.8649 7.07067 12.483 5.70521 10.7635 5.70521ZM5.38908 25.7167H3.14011V8.78376H5.38908V25.7167ZM10.7512 25.7167H8.5028V8.78085C8.5028 8.78085 9.85124 8.77969 9.85711 8.77969C10.3642 8.77969 10.7518 9.11508 10.7518 9.74919V25.7173L10.7512 25.7167Z" fill="#D0011B"/>
<path fill-rule="evenodd" clip-rule="evenodd" d="M39.0146 33.5735C43.2668 28.6835 43.455 24.1358 43.3964 23.1314C43.3964 21.4258 42.0157 20.0516 40.312 20.0516H31.0904V23.1395H38.8012C39.6003 23.1622 40.2874 23.84 40.2874 24.6715C40.2762 25.252 39.7773 28.0138 37.0728 31.2642C34.6169 27.7995 34.2118 24.6634 34.2118 24.6634L31.1479 24.6593C31.1479 24.6593 31.4656 28.9222 34.9657 33.4536C33.1184 35.1305 31.604 36.6957 28.2593 38.3157L29.5385 40.9901C33.1283 39.2531 34.8807 37.5453 36.9468 35.6761C39.0239 37.7072 40.6972 39.4884 44.5139 41L45.7984 38.3256C42.2831 37.062 40.8696 35.4456 39.0146 33.5735Z" fill="#D0011B"/>
<path fill-rule="evenodd" clip-rule="evenodd" d="M68.4692 6.99151H56.2647C55.4034 6.99151 54.7298 7.67453 54.7298 8.52118L54.7456 14.6148H68.4692V6.99151ZM71.5701 14.6148H84.1938C85.887 14.6148 87.2507 16.0391 87.2659 17.691C87.2659 17.691 87.3351 24.7361 75.1593 32.4072C83.3197 36.6905 91.1858 37.8894 91.1858 37.8894L90.3333 40.7642C82.6285 39.2386 76.8642 36.9176 72.2478 34.2565C68.4059 36.5973 63.5492 38.6976 55.5054 40.763L54.3698 37.8865C54.3698 37.8865 61.7435 36.227 69.3821 32.3967C59.2365 25.8891 57.0397 19.2289 57.0397 19.2289H60.2226C63.3592 24.7553 67.4351 27.7279 72.232 30.6883C76.8126 27.7634 81.4201 24.2418 83.8081 19.2329C83.8081 19.2329 84.4899 17.691 82.5628 17.691H54.7222L54.711 23.3852C54.711 23.3852 55.1003 34.1866 49.4275 40.5953L46.9839 38.5084C46.9839 38.5084 51.643 33.2055 51.643 21.1452L51.6454 13.5323V8.57067C51.6454 6.022 53.6997 3.91471 56.3227 3.91471H68.4698V1.70027C68.4698 0.850711 69.164 0.161865 70.0205 0.161865C70.8771 0.161865 71.5707 0.850711 71.5707 1.70027V3.91529H85.2011C85.2011 3.91529 87.1698 3.93392 87.973 5.19632C88.5311 6.12856 88.1184 7.72345 88.1184 7.72345C87.7209 9.43479 85.9556 11.7569 85.9556 11.7569L83.5102 9.74165C84.7109 8.11183 84.7021 7.45909 84.7021 7.45909C84.7338 7.03402 84.1727 6.99093 84.0004 6.99093H71.5713V14.6142L71.5701 14.6148Z" fill="#D0011B"/>
<path fill-rule="evenodd" clip-rule="evenodd" d="M94.8189 7.58484C94.8048 4.45854 97.3868 4.45854 97.3868 4.45854H134.817V7.58484H94.8195H94.8189ZM120.205 32.7455V29.4887C120.205 28.5192 120.205 27.7436 118.822 27.7436H110.09V32.7455H120.205ZM123.33 27.1357V35.8601H106.936V25.9723C106.936 25.1967 107.529 24.615 108.121 24.615H120.762C122.342 24.615 123.33 25.7784 123.33 27.1357ZM125.229 19.6166C126.057 19.6533 126.738 20.3358 126.738 21.1673C126.738 21.9988 126.041 22.7068 125.18 22.7068H121.374C119.542 22.7068 118.807 21.6622 118.807 19.9928V16.1334H110.862C110.439 21.6983 106.166 23.0055 105.793 23.108C105.598 23.1954 105.381 23.2443 105.153 23.2443C104.292 23.2443 103.594 22.5514 103.594 21.6966C103.594 21.0438 104.002 20.4848 104.578 20.2577C104.579 20.2554 104.58 20.2537 104.58 20.2519C107.615 19.1706 107.558 16.1334 107.639 16.1334L99.1738 16.226C99.1632 16.226 99.1738 32.47 99.1738 41.0011C95.9938 41.0256 95.9938 38.1939 95.9938 38.1939V14.3545C95.9938 13.385 96.7841 12.9972 97.5738 12.9972H131.745C132.93 12.9972 133.917 13.9341 133.917 15.5179V35.8665C133.917 38.7745 133.501 40.9074 128.76 40.9074V37.6506C129.996 37.667 130.736 37.0713 130.736 35.4397V17.1017C130.736 16.52 130.34 16.1322 129.748 16.1322H121.943V18.8224C121.943 19.4321 122.164 19.6155 122.712 19.6155H125.216M113.1 2.67325C113.083 2.64821 113.067 2.62259 113.052 2.59697L113.049 2.59289C112.902 2.34134 112.817 2.04845 112.817 1.73635C112.817 0.793624 113.586 0.0296631 114.535 0.0296631C115.17 0.0296631 115.724 0.371466 116.022 0.87922H116.022L117.576 3.4867H113.608L113.099 2.67266L113.1 2.67325ZM104.886 10.8538C104.731 10.597 104.641 10.296 104.641 9.97455C104.641 9.0324 105.41 8.26786 106.359 8.26786C107.033 8.26786 107.617 8.65334 107.898 9.21466L109.541 12.196H105.634L104.886 10.8532V10.8538ZM121.944 9.34684C122.196 8.71506 122.817 8.26844 123.542 8.26844C124.492 8.26844 125.261 9.0324 125.261 9.97513C125.261 10.2674 125.187 10.5429 125.056 10.7839L125.066 10.7892L124.281 12.1971H120.374L121.944 9.34742L121.944 9.34684Z" fill="#D0011B"/>
</g>
</g>
<defs>
<clipPath id="clip0_101_83">
<rect width="182.45" height="41" fill="white"/>
</clipPath>
</defs>
</svg>
