<svg width="155" height="116" viewBox="0 0 155 116" fill="none" xmlns="http://www.w3.org/2000/svg">
<g clip-path="url(#clip0_102_498)">
<mask id="mask0_102_498" style="mask-type:luminance" maskUnits="userSpaceOnUse" x="0" y="0" width="155" height="116">
<path d="M154.12 0H0V115.3H154.12V0Z" fill="white"/>
</mask>
<g mask="url(#mask0_102_498)">
<path fill-rule="evenodd" clip-rule="evenodd" d="M59.6698 71.04C62.2298 70.87 63.1098 68.87 65.2498 68.23C65.3198 67.67 66.2798 68.09 66.4898 67.67C66.9798 67.82 67.0498 66.04 66.5498 66.15C66.3698 66.13 66.1898 66.09 66.2598 65.84C64.6598 64.64 63.8598 67.02 62.5598 67.21C62.4898 67.56 62.0698 67.52 61.6398 67.48C61.0498 68.05 60.4098 67.64 60.1398 67.12C59.9098 67.04 59.7998 66.85 59.8598 66.5C59.8298 66.04 60.0098 65.39 59.6098 65.28C59.0298 63.87 58.4398 62.47 57.9598 60.96C58.1098 59.86 57.6898 59.26 57.4498 58.51C57.0898 58.55 56.5898 58.42 56.5298 58.78C56.4998 59.38 55.6898 59.14 55.8698 59.97C55.8698 60.07 55.8698 60.17 55.8598 60.27C57.2498 63.66 58.3498 67.3 59.6898 70.75C59.6898 70.85 59.6898 70.95 59.6798 71.05" fill="#506219"/>
<path fill-rule="evenodd" clip-rule="evenodd" d="M14.1496 85.58C14.3296 85.61 14.4996 85.64 14.4396 85.9C14.3696 86.39 16.2896 86.47 16.2596 85.97C16.2796 85.78 16.3196 85.61 16.5796 85.68C17.0096 85.62 16.9496 85.03 17.2196 84.8C17.8796 84.77 18.1696 85.08 18.0896 85.74C18.3796 86.16 18.5496 86.68 18.9496 86.99C19.3896 87.26 19.5696 87.78 19.4896 88.53C19.7796 88.95 19.9496 89.46 20.3496 89.78C21.3196 90.25 21.0796 91.83 22.6996 91.7C22.8496 91.13 23.3796 90.97 23.3696 90.21C22.4196 88.75 21.0596 87.68 20.5096 85.84C19.6296 85.29 19.5596 83.99 19.1096 83.05C18.8796 82.07 19.9196 82.45 20.0696 81.87C20.1396 81.31 21.0996 81.73 21.3096 81.31C22.5796 80.49 20.7796 78.53 19.8496 79.73C19.7696 79.97 19.5796 80.07 19.2296 80.01C18.8096 80.3 18.2896 80.47 17.9796 80.87C17.7896 81.3 17.4796 81.59 17.0396 81.74C16.2496 82.57 15.5296 83.48 14.5196 84.07C13.9296 83.9 13.4896 85.42 14.1596 85.57" fill="#506219"/>
<path fill-rule="evenodd" clip-rule="evenodd" d="M49.4599 67.1C49.8399 67.24 50.0599 67.51 50.0299 68.03C50.0599 68.49 49.8799 69.14 50.2799 69.26C50.8999 69.56 51.1699 70.19 51.1199 71.12C51.3599 71.87 51.77 72.46 51.63 73.57C51.59 74.1 51.66 74.52 51.88 74.8C51.72 75.29 53.51 75.36 53.4 74.86C54.61 73.84 56.8999 74.02 58.0299 72.92C58.5099 73.16 58.58 71.51 58.08 71.71C57.9 71.69 57.72 71.65 57.79 71.39C57.79 71.29 57.7899 71.19 57.7999 71.09C56.7499 71.74 55.3399 72.01 54.0999 72.46C54.0199 72.69 53.8299 72.8 53.4799 72.74C53.4799 71.57 52.51 71.3 52.68 69.98C52.62 69.38 53.11 69.4 53.32 69.1C53.4 68.86 53.5899 68.75 53.9399 68.82C54.1399 68.41 55.11 68.82 55.18 68.26C55.73 67.93 56.6 67.27 55.86 66.47C55.86 66.37 55.8599 66.27 55.8699 66.17C54.8799 66.15 53.9999 66.25 53.4199 66.68C53.2799 67.06 53 67.29 52.49 67.25C51.52 67.56 51.7699 66.74 51.2999 66.59C50.7099 66.36 50.53 65.75 50.45 65.04C49.66 64.17 50.91 64.78 51.09 64.16C51.17 63.93 51.3599 63.82 51.7099 63.88C52.1599 63.85 52.82 64.03 52.93 63.63C53 63.07 53.9599 63.48 54.1699 63.07C54.2499 62.32 53.7299 62.11 53.6199 61.53C52.7699 61.24 52.82 61.92 52.09 61.77C51.37 62.26 49.94 61.97 49.33 62.57C49.27 62.92 48.84 62.88 48.41 62.84C47.86 63.09 47.44 63.48 47.15 64C45.96 65.69 49.05 65.94 49.45 67.13" fill="#506219"/>
<path fill-rule="evenodd" clip-rule="evenodd" d="M153.81 40.24C153.36 40.39 152.26 39.82 152.28 40.48C152.2 40.82 151.93 40.94 151.65 41.06C150.99 40.98 151.47 42.13 151.28 42.56C150.96 44.96 149.33 45.94 148.63 47.92C148.07 47.94 148.4 48.94 147.97 49.1C147.91 49.88 147.74 50.54 147.29 50.89C145.67 52.51 143.88 53.95 142.54 55.86C142.46 56.09 142.51 56.46 142.21 56.45C140.36 58.35 138.42 60.14 136.52 61.99C136.48 62.1 136.42 62.18 136.32 62.23C136.75 61.89 137.18 61.53 137.6 61.18C137.73 61.07 137.87 60.97 138 60.86C137.87 60.97 137.73 61.08 137.6 61.19C137.18 61.54 136.75 61.9 136.32 62.24C136.32 62.24 136.32 62.24 136.31 62.25C136.21 62.3 136.08 62.31 135.9 62.28C135.48 62.57 134.97 62.74 134.65 63.14C134.24 63.86 133.37 64.07 132.48 64.27C132.06 64.55 131.54 64.73 131.23 65.13C127.91 67.11 124.52 69.04 120.4 70.16C116.26 70.69 112.91 69.73 108.9 69.39C108.12 69.33 107.46 69.16 107.11 68.71C103.03 67.31 96.9198 66.25 92.0198 66.59C91.8998 66.78 91.7198 66.92 91.4998 67.01C91.4998 67.01 91.5098 67.01 91.5198 67.01C91.5198 67.01 91.5098 67.01 91.4998 67.01C91.3598 67.01 91.2198 67.02 91.0898 67.04C90.8698 67.06 90.6598 67.08 90.4898 67.13C90.3898 67.13 90.2898 67.13 90.1898 67.12C89.8898 67.11 89.5798 67.1 89.2798 67.08C88.5298 67.53 87.8998 68.11 87.3898 68.83C86.7298 69.6 86.1898 69.91 85.8698 68.77C85.3798 66.99 84.2798 65.77 83.9398 63.83C83.5098 63.45 83.5198 62.67 83.0898 62.28C82.5498 61.51 81.9998 60.75 81.9898 59.5C81.3498 58.83 81.9898 58.15 82.3698 57.69C82.5998 57 83.7598 57.31 83.9398 56.54C84.4798 55.65 85.3898 55.15 86.1498 54.5C88.0698 54.69 89.2698 54.09 91.3198 54.41C92.1498 54.71 93.1498 54.86 93.7098 55.42C98.8598 56.52 104.08 57.72 110.03 57.29C111.03 57.74 111.64 57.19 112.14 57.68C112.07 58.17 113.99 58.25 113.96 57.75C114.02 57.54 114.08 57.45 114.16 57.43C114.19 57.43 114.21 57.43 114.23 57.43C114.46 57.47 114.78 57.99 115.18 57.8C115.91 57.64 117.36 58.27 117.61 57.59C117.69 57.36 117.88 57.25 118.23 57.31C118.87 57.16 120.21 57.77 120.36 57.09C121.19 56.72 121.9 56.23 122.83 55.98C123.82 56 124.7 55.9 125.28 55.47C126.37 54.76 127.41 53.99 128.41 53.17C128.43 53.13 128.46 53.11 128.48 53.08C128.65 52.97 128.81 52.84 128.98 52.73C129.17 52.66 129.4 52.63 129.65 52.62C130.77 52.57 130.84 51.38 131.54 50.87C131.76 50.16 132.01 49.48 132.82 49.4C133.93 48.6 135.19 47.96 135.96 46.79C136.52 46.77 136.19 45.77 136.62 45.6C136.52 45.6 136.46 45.64 136.38 45.68C136.45 45.65 136.52 45.61 136.62 45.6C136.63 45.41 136.68 45.25 136.74 45.11C136.77 45.06 136.81 45.01 136.84 44.96C137.05 44.63 137.35 44.41 137.59 44.12C137.99 43.29 138.65 42.74 139.19 42.06C139.27 41.83 139.22 41.46 139.52 41.46C140.4 40.53 141.2 39.49 142.07 38.53C142.59 37.4 142.94 36.1 143.14 34.63C143.61 33.56 144.24 32.66 144.78 31.66C145.04 28.98 146.56 26 146.6 24.14C146.42 24.12 146.24 24.08 146.31 23.82C146.2 23.31 144.04 23.23 143.89 23.72C143.86 23.9 143.83 24.08 143.57 24.01C142.59 24.56 143.7 25.61 144.1 25.85C143.45 25.77 143.92 26.92 143.74 27.35C143.68 27.7 143.76 28.21 143.4 28.24C142.69 28.64 143.2 30.35 142.97 31.26C142.96 31.3 142.95 31.34 142.94 31.38C142.96 31.34 142.98 31.3 142.99 31.26C142.97 31.3 142.95 31.34 142.94 31.38C142.88 31.51 142.82 31.64 142.76 31.77C142.76 31.79 142.75 31.8 142.74 31.81C142.71 31.83 142.69 31.85 142.64 31.85C142.22 32.13 142 32.63 141.68 33.03C141.51 33.8 141.2 34.41 140.7 34.81C139.91 35.53 140.76 38.04 139.64 38.41C139.56 38.64 139.61 39.01 139.31 39C138.75 39.76 137.94 40.26 137.41 41.05C137.19 41.87 136.75 42.45 136.12 42.82C135.7 43.1 135.48 43.6 135.16 44C135.1 44.35 135.18 44.86 134.82 44.89C134.08 45.78 133.24 46.55 132.3 47.22C132.07 48.02 131.35 48.29 130.72 48.67C129.73 50.03 128.23 50.83 126.95 51.86C126.72 52.45 126.11 52.64 125.4 52.71C125.02 53.14 124.24 53.14 123.85 53.56C122.63 54.03 121.71 54.82 120.15 54.93C119.7 55.07 118.6 54.51 118.62 55.17C118.54 55.41 118.35 55.51 118 55.45C116.6 55.62 114.87 55.43 113.73 55.89C113.66 56.12 113.46 56.23 113.11 56.17C113.01 56.17 112.91 56.17 112.8 56.16C112.45 56.09 111.94 56.18 111.9 55.82C111.34 55.68 110.77 55.58 110.19 55.48C110.08 55.45 109.97 55.43 109.85 55.41C109.82 55.41 109.8 55.4 109.78 55.39C109.66 55.37 109.53 55.36 109.4 55.36C109.38 55.36 109.37 55.36 109.35 55.36C109.2 55.36 109.05 55.36 108.87 55.39C109.04 55.37 109.19 55.36 109.34 55.36C105.04 54.76 100.38 54.92 96.1898 53.67C95.9098 53.57 95.5698 53.79 95.2798 53.91C95.2698 53.91 95.2498 53.91 95.2398 53.91C95.0798 53.87 94.9098 53.83 94.7398 53.78C94.7098 53.73 94.6898 53.68 94.6698 53.61C93.3598 52.97 92.2398 52.15 90.1698 52.21C89.9698 52.21 89.7698 52.2 89.5598 52.19C88.3298 52.33 86.3498 51.66 85.6098 52.33C84.5398 52.97 83.8298 53.99 82.7898 54.65C82.2798 55.05 81.7898 55.47 81.2198 55.8C80.7398 55.81 80.9498 56.56 80.2898 56.37C79.7198 55.63 79.2998 54.75 78.8698 53.88C77.2498 52.55 76.0398 50.85 74.8098 49.16C74.3498 48.51 73.8698 47.88 73.6798 46.99C73.3298 46.34 72.8498 45.81 72.2298 45.41C71.8598 45 71.8898 44.28 72.2898 43.89C72.7998 43.49 73.2798 43.07 73.8498 42.74C74.4798 42.16 74.8998 41.35 75.7398 41C76.1998 40.97 76.8498 41.15 76.9598 40.74C77.3798 40.45 77.8898 40.28 78.2098 39.88C79.1398 39.73 80.8098 40.37 81.2498 39.7C81.3198 39.35 81.7398 39.39 82.1698 39.44C86.8298 38.69 90.6798 40.76 95.7198 40.6C96.2498 40.77 96.7598 40.95 97.2798 41.12C97.2898 41.12 97.2998 41.12 97.3098 41.13C97.2998 41.13 97.2898 41.13 97.2798 41.12C97.6698 41.39 97.9998 41.71 98.4598 41.93C99.2498 42.66 101.38 42.15 102.69 42.4C103.47 42.46 104.13 42.63 104.48 43.08C105.08 44.01 106.09 42.74 107.21 43.19C107.14 43.08 107.06 43.01 106.98 42.95C107.06 43.01 107.14 43.09 107.22 43.2C107.45 43.28 107.82 43.23 107.81 43.53C108.02 44.04 110.29 44.13 110.54 43.64C110.62 43.41 110.81 43.3 111.16 43.36C112.13 42.62 114.32 43.2 115.44 42.62C115.72 42.18 116.43 42.22 116.98 42.07C117.44 42.04 118.09 42.22 118.21 41.82C118.98 40.81 119.95 41.87 121.27 41.34C121.82 41.09 122.23 40.7 122.53 40.18C122.61 39.95 122.56 39.58 122.86 39.59C123.56 38.87 124.43 38.34 125.36 37.87C125.97 37.27 126.38 36.44 126.96 35.81C127.38 35.53 127.6 35.03 127.92 34.63C128 34.4 127.95 34.03 128.25 34.04C128.67 33.75 128.89 33.25 129.21 32.86C129.03 32.04 129.86 32.3 130.15 31.99C130.25 31.99 130.35 31.99 130.45 32C130.48 31.4 131.29 31.65 131.1 30.81C131.2 30.06 131.42 29.42 131.71 28.87C131.96 28.51 132.2 28.16 132.45 27.8C132.44 27.82 132.43 27.84 132.41 27.86C132.61 27.64 132.83 27.44 133.06 27.25C133.63 26.49 134.43 25.99 134.96 25.2C135.15 24.67 135.17 23.95 135.63 23.71C136.08 23.67 135.94 22.99 135.98 22.51C136.05 21.95 136.22 21.51 136.64 21.32C137.04 20.7 137.43 20.07 137.92 19.55C138.38 18.15 138.91 16.83 139.59 15.67C139.69 15.67 139.79 15.67 139.89 15.68C139.92 15.08 140.73 15.33 140.55 14.49C140.61 14.14 140.53 13.63 140.89 13.6C141.37 13.84 141.44 12.19 140.94 12.38C140.76 12.36 140.58 12.32 140.65 12.07C140.65 11.97 140.65 11.87 140.66 11.77C139.97 11.66 139.52 11.8 139.42 12.33C139.28 12.91 138.24 12.52 138.46 13.51C138.27 14.05 138.25 14.76 137.79 15C137.34 15.04 137.48 15.72 137.44 16.2C136.62 18.26 135.45 19.95 134.19 21.53C133.74 21.57 133.88 22.25 133.84 22.73C133.82 23.65 133.5 24.26 132.86 24.51C132.37 25.14 131.72 25.6 131.27 26.27C130.5 27.86 129.85 29.59 128.66 30.72C127.52 31.91 126.43 33.15 125.47 34.54C125.39 34.77 125.44 35.14 125.14 35.13C124.3 36.23 122.79 36.59 122 37.74C121.97 37.92 121.94 38.09 121.68 38.03C121.1 38.46 120.87 39.26 120.1 39.49C119.37 39.64 117.92 39.02 117.66 39.7C117.39 40.14 116.87 40.32 116.12 40.24C115.66 40.27 115.01 40.09 114.9 40.49C114.82 40.72 114.63 40.84 114.28 40.77C113.64 40.92 112.3 40.31 112.15 40.99C111.35 41.39 110.66 41.91 109.39 41.79C108.21 40.96 106.45 41.1 104.86 41.3C104.63 41.22 104.26 41.27 104.27 40.97C104.23 40.52 103.55 40.66 103.07 40.62C102.77 40.61 102.46 40.6 102.16 40.58C101.51 39.72 98.9198 40.65 98.2398 39.81C97.2198 39.78 96.6498 39.33 96.1598 38.82C94.5098 38.2 91.9898 38.38 90.1198 37.97C89.7698 37.91 89.2598 37.98 89.2198 37.63C89.4598 37.15 87.8098 37.08 88.0098 37.58C87.9998 37.88 87.4598 37.94 87.4098 37.55C85.9598 36.83 82.8398 37.03 81.6398 37.62C81.2498 38.04 80.5698 38.15 79.7998 38.15C79.0698 38.3 77.6098 37.68 77.3598 38.35C76.2298 39.24 74.2398 39.19 73.3298 40.31C72.6198 41.44 71.1498 41.74 70.4898 42.93C70.1898 42.91 70.1198 43.16 69.8698 43.21C69.5298 43.13 69.4098 42.85 69.2898 42.58C68.8198 42.14 68.3698 41.68 67.8198 41.3C67.5898 41.22 67.2198 41.27 67.2298 40.97C67.1798 40.33 65.8998 40.83 65.7398 40.3C65.2698 39.86 64.8098 39.4 64.2698 39.03C64.0398 38.95 63.6698 39 63.6798 38.71C63.6598 38.14 62.6598 38.48 62.4898 38.05C62.2598 37.97 61.8898 38.02 61.8998 37.72C61.8598 37.27 61.1798 37.41 60.6998 37.37C60.7198 36.97 60.7298 36.56 60.7498 36.16C60.8298 35.93 60.7798 35.56 61.0798 35.57C62.3298 34.29 63.4698 32.89 65.1698 32.09C66.2398 31.35 67.6398 30.97 68.8798 30.42C69.1998 30.14 69.5198 29.85 69.8198 29.55C69.8498 29.38 69.9698 29.31 70.1198 29.28C70.1398 29.28 70.1598 29.28 70.1798 29.27C70.2898 29.24 70.4098 29.22 70.5298 29.2C70.4098 29.22 70.2998 29.25 70.1798 29.27C70.3398 29.25 70.5398 29.27 70.7498 29.28C71.6598 29.32 72.5698 29.35 73.4798 29.39C73.6798 29.39 73.8798 29.41 74.0898 29.42C74.5498 29.39 75.2098 29.57 75.3198 29.17C76.0298 28.56 78.2198 27.9 78.9898 28.41C82.9998 28.78 87.8998 30.84 91.3798 29.82C91.4798 29.63 91.6498 29.5 91.8498 29.41C92.1198 29.37 92.3798 29.32 92.6198 29.26C92.7198 29.26 92.8198 29.26 92.9198 29.27C93.2798 29.33 93.7798 29.25 93.8198 29.61C95.7798 29.93 99.5798 29.53 102.03 29.34C102.1 29.11 102.3 29 102.65 29.06C105.17 29.05 106.81 28.08 108.79 27.48C109.21 27.19 109.72 27.02 110.04 26.62C110.5 26.59 111.15 26.77 111.26 26.37C112.09 25.79 113.01 25.31 114.05 24.96C116.71 24.58 118.01 22.72 119.96 21.56C120.1 21.19 120.38 20.96 120.9 20.99C122.66 20.15 123.49 18.32 125 17.21C126.97 15.23 127.9 12.13 129.84 10.12C130.29 9.56 130.82 9.07 131.42 8.67C131.9 8.14 131.81 6.99 132.42 6.59C132.96 5.49 133.33 4.21 134.07 3.32C134.39 2.93 134.4 2.21 135.03 2.15C135.54 1.87 135.41 0.879996 135.71 0.359996C135.32 0.329996 135.31 -0.0400036 134.81 0.0199964C132.77 0.129996 132.97 2.67 131.63 3.53C130.94 4.47 130.34 5.51 130.27 7.12C129.49 7.96 128.66 8.75 128.04 9.76C127.48 9.78 127.81 10.78 127.39 10.95C127.13 11.83 126.59 12.41 126.09 13.02C125.19 13.84 124.64 15.03 123.56 15.65C123.37 16.08 123.06 16.37 122.61 16.53C121.28 17.83 120.22 19.42 118.22 20C117.39 20.47 116.83 21.23 116.02 21.73C115.82 22.14 114.85 21.73 114.78 22.28C114.5 22.72 113.79 22.68 113.24 22.82C112.82 23.11 112.31 23.28 111.99 23.68C111.76 24.27 111.15 24.45 110.44 24.53C109.99 24.56 109.33 24.38 109.22 24.78C108.36 25.23 107.5 25.66 106.44 25.89C106.24 26.3 105.27 25.89 105.2 26.45C105.13 26.8 104.71 26.76 104.28 26.72C103.82 26.75 103.17 26.57 103.06 26.98C102.98 27.21 102.79 27.32 102.44 27.26C98.8598 27.92 93.7398 26.89 90.5698 28C90.4898 28.45 89.8298 28.25 89.3398 28.25C86.3398 27.62 82.9798 27.3 79.9898 26.66C79.6898 26.65 79.3898 26.64 79.0798 26.62C78.6298 26.65 77.9698 26.47 77.8598 26.87C77.7798 27.1 77.5898 27.21 77.2398 27.15C76.5998 27.3 75.2598 26.69 75.0998 27.37C74.4998 27.35 73.8898 27.32 73.2798 27.3C72.5498 27.46 71.0998 26.83 70.8398 27.51C70.5598 27.95 69.8398 27.91 69.2998 28.05C69.0998 28.46 68.1298 28.05 68.0598 28.61C66.7598 29.41 65.2298 29.97 63.7298 30.56C62.5598 31.4 61.5098 32.37 60.5798 33.47C60.6798 34.2 59.9998 34.11 60.2198 34.97C59.1998 35.24 59.1998 36.61 57.7298 36.39C57.7298 36.21 57.6998 36.03 57.4398 36.08C56.1198 35.36 54.4698 34.94 52.3298 34.96C52.0998 34.88 51.7298 34.93 51.7298 34.63C49.7298 34.04 47.0598 34.07 44.7798 33.74C44.4798 33.73 44.1698 33.72 43.8698 33.7C42.2198 34.03 39.8598 33.57 38.3898 34.09C38.3198 34.44 37.8998 34.4 37.4698 34.35C35.7298 34.25 33.9998 34.17 32.8998 34.77C32.8198 35 32.6298 35.11 32.2798 35.05C31.8198 35.09 31.1598 34.9 31.0498 35.3C30.8998 35.58 30.6198 35.73 30.2798 35.8C30.2898 35.8 30.2998 35.8 30.3098 35.8C30.1398 35.83 29.9598 35.87 29.7898 35.9C29.9198 35.87 30.0498 35.85 30.1698 35.82C30.0598 35.84 29.9398 35.85 29.8098 35.86C29.1698 36.02 27.8298 35.4 27.6798 36.08C27.3198 36.34 26.9598 36.59 26.5898 36.84C26.5898 36.84 26.5798 36.84 26.5698 36.84C25.7198 37.2 24.8798 37.6 24.0398 38.02C24.0098 38.02 23.9898 38.04 23.9598 38.04C23.5098 38.08 22.8498 37.89 22.7398 38.29C21.5798 38.93 20.7098 39.89 19.0298 39.96C17.9198 40.76 16.6598 41.4 15.8898 42.57C15.8398 42.94 15.7698 43.28 15.2598 43.15C14.4298 43.62 13.8698 44.38 13.0698 44.88C12.8798 45.31 12.5698 45.6 12.1298 45.75C11.0398 46.89 9.95984 48.04 8.94984 49.26C8.86984 49.49 8.91984 49.86 8.61984 49.86C8.19984 50.14 7.97984 50.65 7.65984 51.03C6.59984 52.54 5.72984 54.25 4.88984 56C4.42984 56.88 3.99984 57.78 3.60984 58.7C3.60984 58.7 3.60984 58.69 3.60984 58.68C3.21984 59.51 2.81984 60.33 2.38984 61.13C1.91984 61.67 1.74984 62.55 1.67984 63.53C1.61984 63.88 1.69984 64.39 1.33984 64.43C0.609837 65.12 1.11984 67.15 0.879837 68.36C0.819837 68.71 0.899837 69.22 0.539837 69.26C-0.210163 70.35 0.289837 72.79 0.0298368 74.4C0.0298368 74.6 0.00983679 74.8 -0.00016321 75C-0.0501632 78.06 0.0398368 80.99 0.569837 83.52C1.15984 83.94 1.18984 84.89 1.38984 85.68C1.41984 86.13 1.23984 86.79 1.63984 86.9C1.86984 86.98 1.97984 87.17 1.91984 87.52C1.71984 88.77 2.40984 89.21 2.72984 89.98C3.12984 90.73 3.54984 91.47 3.95984 92.22C3.95984 92.22 3.95984 92.2 3.94984 92.19C3.94984 92.2 3.95984 92.22 3.96984 92.23C3.96984 92.23 3.96984 92.23 3.96984 92.24C4.58984 93.71 5.28984 95.14 6.07984 96.53C6.27984 97.02 6.48984 97.51 6.65984 98.03C7.31984 99.08 8.38984 99.74 8.65984 101.15C10.0698 103.35 12.1198 104.96 13.8998 106.82C15.8198 109.04 19.2598 109.85 21.5998 111.68C21.5198 112.34 22.6698 111.86 23.0998 112.04C23.3198 112.05 23.5098 112.1 23.6998 112.15C23.8698 112.21 24.0298 112.27 24.1998 112.32C24.1798 112.32 24.1698 112.3 24.1498 112.29C24.5998 112.44 25.0298 112.61 25.4998 112.74C25.0498 112.62 24.6198 112.47 24.1998 112.32C24.6798 112.52 25.0798 112.79 25.4898 113.05C26.6098 113.57 28.0998 113.75 29.6998 113.83C30.0998 113.92 30.4998 114.01 30.8898 114.09C31.1298 114.19 31.3498 114.32 31.4998 114.51C33.9098 115.89 36.3698 115.13 38.7898 114.61C38.1898 114.65 37.5898 114.67 36.9798 114.69C36.8998 114.69 36.8198 114.7 36.7398 114.7C36.8198 114.7 36.8998 114.7 36.9798 114.69C37.5998 114.67 38.2098 114.64 38.8098 114.61C38.8098 114.61 38.7998 114.61 38.7898 114.61C38.9298 114.61 39.0598 114.59 39.1998 114.58C40.3198 114.5 41.4298 114.41 42.5498 114.32C44.9198 114.52 47.2698 115.21 49.4298 114.02C50.1498 113.63 50.8198 113.2 51.8898 113.21C54.0198 113.41 55.6998 113.12 57.0798 112.51C57.4698 112.09 58.1498 111.98 58.9198 111.98C59.3698 111.83 60.4698 112.4 60.4498 111.74C60.8298 111.46 61.2598 111.22 61.6698 110.98C61.2698 111.13 60.8698 111.29 60.4598 111.44C60.8698 111.3 61.2698 111.13 61.6798 110.98C61.6798 110.98 61.6798 110.98 61.6898 110.98C62.4698 110.68 63.2298 110.37 63.9698 110.04C64.0098 110.02 64.0498 110.01 64.0798 109.99C64.8298 109.65 65.5598 109.3 66.2698 108.92C66.2698 108.92 66.2798 108.92 66.2898 108.91C67.0198 108.65 67.7498 108.39 68.4798 108.13C69.0498 107.8 69.5398 107.38 70.0398 106.98C70.1198 106.75 70.3098 106.64 70.6598 106.7C72.5598 105.07 74.7198 103.72 76.3198 101.77C76.3898 100.99 76.9198 100.73 77.2898 100.29C77.7098 100.01 77.9298 99.51 78.2498 99.11C78.9598 97.35 80.1098 96.06 81.1598 94.68C81.4798 93.66 82.1298 92.99 82.1898 91.68C82.3498 90.59 82.6698 89.68 83.2098 88.99C83.6598 88.95 83.5198 88.27 83.5598 87.79C83.5598 87.59 83.5798 87.38 83.5798 87.18C84.0698 86.33 84.7398 84.03 84.0498 82.95C83.4098 82.83 84.1498 81.63 84.4098 81.45C85.4798 78.91 85.5798 75.34 85.9998 72.1C86.4098 71.59 87.8098 72.17 87.8598 71.26C88.2098 70.48 89.0998 70.29 89.4498 69.5C89.6898 69.44 89.8098 69.26 89.7798 68.91C90.1398 68.88 90.6398 69 90.6998 68.64C90.7698 68.41 90.9698 68.3 91.3198 68.36C91.4198 68.36 91.5198 68.36 91.6198 68.37C91.8998 68.31 92.1798 68.28 92.4498 68.24C92.1698 68.28 91.8898 68.32 91.6098 68.37C91.8098 68.37 92.0098 68.38 92.2198 68.39C93.2298 68.43 94.2398 68.47 95.2498 68.51C96.3098 68.22 97.6098 68.41 98.2798 68.63C99.5498 69.02 101.93 69.92 103.11 69.43C103.46 69.49 103.97 69.41 104.01 69.77C104.21 70.46 105.7 69.96 106.42 70.17C107.19 70.43 108.13 70.54 108.5 71.17C111.86 72.21 116.6 73.3 120 71.94C120.54 71.79 121.76 72.38 121.83 71.71C123.33 70.9 124.7 69.97 126.47 69.47C127.12 68.91 128.56 69.21 129.23 68.67C129.31 68.44 129.5 68.33 129.85 68.39C130.42 68.06 130.91 67.64 131.41 67.24C132.15 66.46 133.08 65.88 134.21 65.53C135.16 65.72 135.46 65.2 135.76 64.68C135.79 64.59 135.83 64.51 135.88 64.44C133.17 65.65 130.26 67.27 127.24 68.78C130.26 67.27 133.17 65.64 135.88 64.44C136.14 64.32 136.4 64.21 136.66 64.11C136.66 64.11 136.66 64.11 136.67 64.11C136.67 64.11 136.67 64.11 136.66 64.11C136.67 64.11 136.68 64.11 136.7 64.11C136.7 64.11 136.7 64.11 136.7 64.09C136.7 64.09 136.7 64.09 136.7 64.11C138.4 64.48 138.38 62.98 139.2 62.39C139.2 61.87 139.46 61.63 139.84 61.51C140.91 60.35 142.4 59.65 143.31 58.31C143.54 57.67 143.85 57.12 144.19 56.61C144.71 56.11 145.22 55.61 145.72 55.09C145.87 54.99 146.01 54.87 146.18 54.78C146.73 54.11 147.36 53.52 148.07 53.03C149.08 52.23 149.08 50.33 150.03 49.47C150.67 49.55 150.25 48.48 150.39 48.02C150.4 48 150.41 47.97 150.42 47.95C152.04 46.67 152.31 43.92 153.66 42.34C154.31 42.18 154.02 40.48 153.75 40.22M70.3198 46.56C70.4198 46.56 70.5198 46.56 70.6198 46.57C71.1798 47.02 71.6698 47.55 72.0798 48.14C72.0798 48.07 72.0498 48.02 72.0298 47.95C72.0398 48.01 72.0698 48.07 72.0798 48.14C72.5298 48.79 73.0198 49.42 73.1998 50.31C73.5898 51.02 74.1998 51.53 74.6398 52.19C76.2898 54.37 78.7498 55.79 79.2198 59.06C78.6598 59.08 78.9898 60.08 78.5698 60.25C78.1898 61.41 77.6398 62.41 76.9298 63.22C76.5998 63.28 76.6998 63.81 76.2998 63.8C76.3698 63.54 76.1898 63.51 76.0098 63.48C74.8298 61.65 73.8898 59.6 72.9098 57.59C72.2798 56.23 71.1498 55.33 70.3198 54.15C69.6998 54.04 69.7498 53.31 69.4598 52.9C68.8598 52.48 68.7398 51.62 68.0098 51.32C67.5998 50.44 68.8998 48.72 69.3698 47.73C69.7898 47.45 70.0098 46.95 70.3298 46.56M75.8398 82.91C75.9198 82.83 75.9798 82.74 76.0298 82.63C75.9798 82.73 75.9198 82.83 75.8398 82.91C75.7598 83.14 75.8098 83.5 75.5098 83.5C75.0298 84.14 74.9198 85.19 74.7898 86.2C74.6398 86.78 73.5998 86.39 73.8298 87.38C73.7998 88.4 73.3498 88.97 72.8398 89.46C72.1298 90.38 71.7398 91.64 70.8998 92.42C70.4798 92.7 70.2598 93.2 69.9398 93.59C69.7798 94.36 69.4598 94.97 68.9598 95.37C67.7798 96.94 65.6298 97.46 64.5598 99.14C64.1998 99.28 63.8598 99.44 63.6298 99.71C62.2998 100.38 60.8098 100.87 59.3098 101.36C58.7398 101.69 58.2498 102.11 57.7398 102.51C57.5398 102.92 56.5698 102.51 56.4998 103.07C55.5198 103.8 54.2698 104.24 52.7998 104.43C52.3898 104.72 51.8698 104.89 51.5498 105.29C51.6698 105.3 51.7498 105.28 51.8498 105.27C51.7598 105.28 51.6698 105.31 51.5598 105.29C51.5498 105.34 51.4998 105.35 51.4798 105.39C51.3098 105.45 51.1298 105.51 50.9498 105.56C50.9498 105.56 50.9398 105.56 50.9298 105.56C50.9298 105.56 50.9398 105.56 50.9498 105.56C49.4998 105.99 47.0898 105.38 45.7698 105.96C45.7598 106.27 45.2198 106.32 45.1598 105.94C43.1698 105.45 41.1498 106.37 38.4898 105.67C38.4498 105.22 37.7698 105.36 37.2898 105.32C37.2498 104.87 36.5698 105.01 36.0898 104.97C35.1398 104.78 34.4198 104.37 33.6998 103.97C34.0398 103.07 33.0498 103.4 32.5098 103.31C32.1498 103.25 31.6498 103.33 31.6098 102.97C31.6898 102.32 30.5398 102.79 30.0998 102.6C29.8698 102.52 29.5098 102.57 29.5098 102.28C28.6198 101.93 27.8498 101.47 26.8198 101.26C26.0998 100.86 24.8598 100.93 24.7498 99.96C25.9698 99.59 26.7798 98.79 27.5598 97.95C28.0498 97.33 28.6998 96.86 29.1498 96.19C30.0498 94.75 32.3398 94.8 33.7998 93.95C34.8598 93.41 35.7098 92.64 36.6098 91.94C38.0698 91.41 39.2098 90.54 40.9298 90.29C41.8198 89.78 42.8598 89.43 43.4298 88.57C43.5098 88.33 43.6998 88.23 44.0498 88.29C44.2498 87.87 45.2198 88.29 45.2898 87.73C46.1598 87.09 47.1898 86.63 48.3798 86.34C49.8598 85.31 51.3898 84.33 52.7598 83.18C52.8398 82.94 53.0298 82.84 53.3798 82.9C54.0098 82.74 55.3498 83.36 55.5098 82.68C57.3198 81.94 58.7798 80.82 60.4098 79.89C61.0698 79.59 61.7098 79.28 62.3498 78.96C62.5498 78.88 62.7398 78.8 62.9498 78.73C63.3998 78.58 64.4998 79.14 64.4798 78.49C65.6398 77.95 66.5898 77.19 67.8898 76.81C68.2198 76.11 69.5598 76.51 70.0498 75.98C70.1898 75.6 70.4698 75.38 70.9798 75.41C71.1798 75.41 71.3798 75.43 71.5898 75.44C71.7398 76.27 71.1098 77.83 71.7798 78.18C71.9598 78.2 72.1398 78.24 72.0698 78.49C72.4398 79.28 74.0398 78.77 73.6198 77.64C73.5198 76.91 74.1998 77 73.9798 76.14C74.0198 74.39 73.8098 72.37 75.9298 72.88C76.2098 75.93 75.9698 79.46 75.8298 82.9M11.6098 86.98C10.3498 83.86 10.5698 79.38 9.93984 75.68C9.65984 74.54 10.6198 74.73 10.9098 74.2C11.6098 73.91 12.2698 73.57 12.7798 73.07C12.7298 72.81 12.9098 72.79 13.0998 72.78C13.4198 72.5 13.7398 72.2 14.0398 71.91C14.6598 71.85 14.6698 71.12 15.2898 71.05C15.7398 70.9 16.8398 71.47 16.8198 70.81C17.0998 70.37 17.8098 70.41 18.3598 70.26C19.1898 69.79 19.7498 69.03 20.5598 68.53C20.7598 68.12 21.7298 68.53 21.7998 67.97C21.8198 67.67 22.1798 67.75 22.4198 67.69C23.1798 67.57 23.6898 67.17 24.2698 66.85C24.8098 66.38 25.4098 65.98 26.4298 66.03C26.9998 65.7 27.4898 65.28 27.9898 64.88C28.1398 64.51 28.3998 64.27 28.9198 64.31C29.0198 64.31 29.1198 64.31 29.2198 64.32C29.5098 63.47 30.4498 63.33 31.0998 62.88C31.3198 62.48 31.7698 62.34 32.3398 62.33C32.5398 61.81 33.7798 62.41 33.8798 61.78C36.1598 59.4 40.3598 59.11 43.4598 57.62C44.1698 57.23 44.6798 56.62 45.3398 56.18C45.9998 55.84 46.9998 55.88 47.2098 55.04C50.5998 53.54 53.9598 52.02 57.4098 50.59C58.7298 50.84 61.0198 50.52 60.1898 49.49C60.1598 49.14 60.2798 48.95 60.5198 48.9C61.3898 48.87 62.0598 49.04 62.3098 49.58C63.2898 50.43 64.0798 51.45 65.2398 52.13C65.2398 52.23 65.2398 52.33 65.2298 52.43C64.8898 53.33 64.1798 53.82 64.2098 55.12C64.2098 55.55 64.2298 55.98 63.8698 56.02C63.0798 57.85 62.5498 60.38 62.9898 62.66C62.9798 62.96 62.9698 63.27 62.9498 63.57C62.5998 64.32 63.9198 64.95 64.1398 64.22C64.0898 63.96 64.2698 63.94 64.4598 63.93C65.1298 63.92 64.6398 62.65 64.8398 62.12C64.8498 61.82 64.8698 61.52 64.8798 61.21C65.3798 59.54 65.7398 57.72 66.0098 55.8C66.0098 55.37 65.9998 54.94 66.3498 54.9C66.7698 54.82 66.6298 54.15 66.6998 53.7C68.3298 54.19 69.7298 57.29 71.3498 58.75C72.7998 60.81 74.0498 63.07 74.7098 65.87C74.7098 66.62 74.6998 67.33 74.3298 67.68C74.3298 68.11 74.3498 68.54 73.9898 68.57C73.5698 68.65 73.7098 69.32 73.6398 69.77C73.3798 70.76 73.3998 72.04 72.3298 72.14C70.1198 71.75 70.1898 73.83 68.6098 74.11C68.5898 74.41 68.2298 74.33 67.9898 74.39C67.5698 74.68 67.0598 74.85 66.7398 75.25C66.6498 75.42 66.4998 75.53 66.3298 75.62C66.0998 75.72 65.8698 75.83 65.6498 75.93C65.3998 76.05 65.1398 76.16 64.8898 76.28C65.1498 76.16 65.3998 76.05 65.6598 75.93C65.8398 75.85 66.0198 75.77 66.1998 75.69C65.9998 75.76 65.7698 75.8 65.5098 75.81C64.3398 76.33 63.0498 76.73 61.8098 77.18C61.7898 77.48 61.4298 77.4 61.1898 77.46C60.7698 77.75 60.2598 77.92 59.9398 78.32C59.2898 78.77 58.6598 79.26 57.7698 79.44C57.3498 79.73 56.8298 79.9 56.5198 80.3C56.4998 80.59 56.1398 80.52 55.8998 80.58C54.7698 80.51 53.7998 80.62 53.1498 81.07C52.5698 81.38 52.0598 81.78 51.2998 81.91C49.9898 82.7 48.7298 83.56 47.5498 84.49C47.3298 84.89 46.8798 85.03 46.3098 85.04C46.1098 85.56 44.8698 84.96 44.7698 85.59C44.3498 85.88 43.8398 86.05 43.5198 86.45C40.6598 88.62 36.8998 89.81 33.5998 91.51C33.0298 91.84 32.5398 92.26 32.0398 92.66C31.8298 93.18 30.5998 92.58 30.4998 93.21C30.0598 93.68 29.4198 93.94 28.6498 94.05C27.7898 94.6 27.0598 95.27 26.4398 96.08C26.4198 96.33 26.3598 96.52 26.2698 96.7C26.0098 96.95 25.7398 97.2 25.4798 97.44C25.4698 97.45 25.4498 97.47 25.4398 97.48C25.0898 97.64 24.6698 97.73 24.2498 97.82C23.3598 98.12 22.3498 98.29 21.1898 98.3C20.7798 98.28 20.3798 98.27 19.9798 98.25C17.6598 96.01 15.4798 93.65 13.5898 91.01C13.3298 90.86 13.0598 90.72 13.0098 90.38C12.8798 90.01 12.7098 89.68 12.4398 89.45C12.4398 88.38 11.6298 88.06 11.6298 86.99M12.1898 58.35C12.2698 58.11 12.3498 57.87 12.4398 57.64C12.4698 57.63 12.4898 57.59 12.5298 57.58C13.0898 57.56 12.7598 56.56 13.1798 56.39C13.0898 56.39 13.0298 56.43 12.9598 56.46C13.0298 56.43 13.0898 56.4 13.1798 56.39C13.3998 55.58 13.8398 55 14.4698 54.62C14.8898 54.34 15.1098 53.83 15.4298 53.44C15.4198 53.01 15.4098 52.58 15.7698 52.54C16.2198 51.98 16.7498 51.49 17.3498 51.09C17.9698 50.81 18.6698 50.62 18.9198 49.94C18.9798 49.59 19.4798 49.71 19.8398 49.68C20.0398 49.27 21.0098 49.68 21.0798 49.12C21.0998 48.82 21.4598 48.9 21.6998 48.84C22.1198 48.55 22.6398 48.38 22.9498 47.98C23.9598 47.39 24.8198 46.63 26.0498 46.28C26.2598 45.76 27.4898 46.36 27.5898 45.74C27.6498 45.39 28.1498 45.51 28.5098 45.48C28.9298 45.19 29.4498 45.02 29.7598 44.62C32.4498 43.63 35.8198 43.39 39.8098 43.82C40.1098 43.83 40.4198 43.84 40.7198 43.86C41.8498 44.37 43.4298 44.47 44.9398 44.64C45.3698 44.64 45.7998 44.63 45.8398 44.98C47.4798 45.71 49.7498 45.85 51.5498 46.43C51.4298 47.14 51.0298 47.55 51.1598 48.54C51.1598 48.97 51.1698 49.4 50.8198 49.44C50.1898 49.49 50.6798 50.77 50.1498 50.93C49.7798 51.37 49.3498 51.76 48.8898 52.1C48.6698 52.5 48.2198 52.64 47.6498 52.66C47.4498 53.07 46.4798 52.66 46.4098 53.22C45.9898 53.51 45.4798 53.68 45.1598 54.08C44.6898 54.42 44.3798 54.93 43.6098 54.93C43.0398 55.26 42.5498 55.68 42.0498 56.08C41.5598 56.92 40.4398 57.07 39.2698 57.18C39.0598 57.7 37.8298 57.1 37.7298 57.72C36.7898 58.07 36.2798 58.89 34.9498 58.82C34.0798 59.46 32.8698 59.72 31.8598 60.21C31.1998 60.76 30.3698 61.13 29.3898 61.32C28.5598 61.79 27.9998 62.55 27.1898 63.05C27.0898 63.05 26.9898 63.05 26.8898 63.04C26.5998 63.89 25.6598 64.02 25.0098 64.48C24.4198 64.89 23.6698 65.13 22.8498 65.3C22.6498 65.71 21.6798 65.3 21.6098 65.86C20.7798 66.44 19.8598 66.92 18.8198 67.27C18.0098 67.55 17.7498 68.43 16.9398 68.71C16.2098 68.87 14.7498 68.24 14.4998 68.92C13.3198 69.01 13.2998 70.36 12.3098 70.65C12.2898 70.94 11.9298 70.87 11.6898 70.93C10.9798 71.11 10.8398 71.9 10.1298 72.08C9.97984 71.54 10.5698 70.32 9.89984 70.25C9.51984 70.16 9.61984 69.64 9.92984 69.65C10.0298 69.65 10.1298 69.65 10.2298 69.66C10.1298 65.08 12.2998 62.96 12.2098 58.38M53.5698 48.95C53.5998 48.35 53.6198 47.74 53.6398 47.13C54.2498 47.16 54.8498 47.18 55.4598 47.2C56.2098 47.39 57.2898 47.27 57.2398 48.19C56.0298 48.57 55.1598 49.31 53.8398 49.57C53.5398 49.55 53.4698 49.8 53.2198 49.85C53.2298 49.55 53.2398 49.24 53.2598 48.94C53.3598 48.94 53.4598 48.94 53.5598 48.95M57.8698 40.02C58.4998 39.86 58.0198 38.49 59.1298 38.86C59.6598 39.44 60.9398 39.33 61.5198 39.87C62.2898 40.04 62.8998 40.35 63.2998 40.85C63.7698 41.29 64.2198 41.75 64.7698 42.12C65.1198 42.08 65.3098 42.21 65.3598 42.45C65.8098 43.01 67.1698 42.72 67.4398 43.44C67.8998 44.07 69.4698 44.63 68.5598 45.61C67.8298 46.93 67.4098 48.58 66.5698 49.78C66.5698 49.93 66.5498 50.03 66.5198 50.1C66.5498 50.02 66.5698 49.93 66.5698 49.78C65.9598 49.67 66.0098 48.93 65.3998 48.82C64.5998 48 63.3198 47.63 62.4398 46.88C62.4398 46.78 62.4398 46.68 62.4498 46.58C60.8498 46.59 59.6398 46.26 58.5398 45.81C58.1098 45.81 57.6798 45.83 57.6398 45.47C57.5598 45.05 56.8898 45.19 56.4398 45.12C56.0898 45.16 55.8998 45.03 55.8498 44.79C55.7898 44.55 55.6098 44.43 55.2598 44.46C55.2698 44.16 55.2798 43.85 55.2998 43.55C55.2698 43.19 55.3898 43.01 55.6298 42.96C56.0698 42.49 56.5298 42.03 56.8998 41.49C56.9598 40.72 57.4998 40.45 57.8698 40.01M82.5898 81.69C82.5298 82.04 82.5998 82.55 82.2498 82.59C81.7698 82.35 81.6998 84 82.1998 83.81C82.1998 83.91 82.1998 84.01 82.1898 84.11C81.4698 84.7 81.9798 86.62 81.7398 87.74C81.6598 88.81 81.1698 89.44 80.7298 90.13C80.0698 90.05 80.5498 91.2 80.3598 91.63C80.0398 93.5 78.9398 94.52 78.0698 95.79C77.6498 96.07 77.4298 96.58 77.1098 96.97C76.9198 97.5 76.8998 98.22 76.4398 98.46C76.0198 98.74 75.7998 99.24 75.4798 99.63C75.4798 100.15 75.2098 100.4 74.8398 100.52C74.1398 101.55 72.8998 102 72.0098 102.83C71.9298 103.17 71.6598 103.29 71.3798 103.41C70.9298 103.97 70.3998 104.45 69.7998 104.86C69.5898 105.26 69.1298 105.4 68.5598 105.42C67.9898 105.75 67.4998 106.17 66.9998 106.57C66.9098 106.8 66.7498 106.95 66.5698 107.07C66.6998 107.01 66.8298 106.96 66.9498 106.9C66.7898 106.98 66.6398 107.07 66.4698 107.14C66.5098 107.12 66.5298 107.09 66.5698 107.07C66.3598 107.16 66.1598 107.26 65.9498 107.34C65.7898 107.37 65.6198 107.4 65.4498 107.42C64.9998 107.57 63.8998 107 63.9198 107.66C64.0298 107.62 64.1898 107.63 64.3598 107.66C64.1898 107.64 64.0398 107.63 63.9198 107.66C63.8398 107.9 63.6498 108 63.2998 107.94C62.8898 108.22 62.3598 108.4 62.0498 108.8C61.2898 109.35 60.7198 110.1 59.2698 109.9C58.7898 109.9 58.1198 109.71 58.0498 110.15C57.9698 110.38 57.7798 110.5 57.4298 110.43C56.3698 110.54 55.1398 110.47 54.3698 110.91C54.2398 111.11 54.0598 111.25 53.8398 111.34C53.8598 111.34 53.8698 111.34 53.8898 111.34C53.8698 111.34 53.8498 111.34 53.7998 111.34C53.6498 111.35 53.5098 111.37 53.3798 111.38C53.1698 111.4 52.9798 111.43 52.8298 111.45C52.8998 110.96 50.9798 110.88 51.0098 111.38C50.7298 111.82 50.2198 112 49.4698 111.92C49.0198 112.07 47.9198 111.51 47.9398 112.17C47.5498 112.59 46.8698 112.7 46.0998 112.7C45.6998 112.68 45.2898 112.67 44.8898 112.65C44.8098 112.24 44.1398 112.37 43.6898 112.3C43.3898 112.29 43.0798 112.27 42.7798 112.26C41.8498 112.41 40.1898 111.77 39.7398 112.44C39.3498 112.86 38.6698 112.97 37.8998 112.97C37.4498 113.12 36.3498 112.56 36.3698 113.21C36.3698 113.24 36.3498 113.25 36.3398 113.27C36.1598 113.27 35.9898 113.26 35.8098 113.26C35.7998 113.23 35.7698 113.22 35.7698 113.18C35.4698 112.48 33.8698 112.99 33.0498 112.77C32.6998 112.71 32.1898 112.79 32.1498 112.43C28.6698 111.36 24.6998 110.74 21.6498 109.27C18.7998 107.9 16.7598 107.37 14.5698 104.71C13.3298 103.2 11.7198 102.01 10.7498 100.28C9.70984 98.42 9.09984 96.76 7.64984 95.04C7.09984 94.39 6.72984 93.55 6.53984 92.57C6.24984 92.15 6.07984 91.64 5.67984 91.32C5.43984 91.24 5.33984 91.05 5.39984 90.7C5.06984 89.83 4.77984 88.94 4.27984 88.23C3.83984 87.96 3.87984 87.24 3.73984 86.69C3.06984 85.56 3.22984 83.66 2.69984 82.4C2.46984 82.32 2.35984 82.13 2.41984 81.78C2.15984 77.32 2.11984 73.31 2.63984 68.74C3.06984 68 1.79984 67.44 2.69984 67.22C3.11984 67.14 2.97984 66.47 3.04984 66.02C3.10984 65.67 3.02984 65.16 3.38984 65.12C3.99984 63.68 4.05984 61.63 4.79984 60.32C5.50984 57.82 6.43984 55.56 7.79984 53.77C8.28984 53.14 8.93984 52.69 9.38984 52.01C9.51984 51.31 9.74984 50.72 10.3598 50.53C11.3898 49.12 12.9598 48.28 14.1398 47.04C14.2098 46.6 14.8798 46.79 15.3598 46.79C16.9698 46.17 15.1198 45.29 16.6698 44.42C16.6698 43.9 16.9298 43.65 17.3098 43.53C17.6298 43.25 17.9498 42.96 18.2598 42.66C18.6798 42.37 19.1898 42.2 19.5098 41.8C19.8498 41.12 21.6698 42.03 21.9598 41.29C22.0998 40.91 22.3798 40.68 22.8998 40.72C23.0998 40.31 24.0698 40.72 24.1398 40.16C24.1598 39.76 24.9898 39.81 25.0498 40.2C26.3098 40.92 26.5498 37.83 28.4698 38.21C28.6698 38.21 28.8698 38.23 29.0798 38.23C29.5598 38.23 30.2298 38.42 30.3098 37.98C30.3898 37.75 30.5798 37.64 30.9298 37.7C31.1298 37.29 32.0998 37.7 32.1698 37.14C32.8898 36.76 33.5498 36.33 34.6298 36.33C35.1598 36.33 35.5698 36.44 35.8298 36.68C36.1298 36.69 36.4398 36.71 36.7398 36.72C36.7998 36.96 36.7198 37.32 37.0198 37.34C36.9598 36.64 37.9098 37.04 37.9598 36.47C38.0398 36.23 38.2298 36.13 38.5798 36.19C39.6098 36.04 41.3798 36.69 41.9298 36.02C41.9898 35.67 42.4198 35.71 42.8498 35.75C45.7898 36.06 48.1598 36.89 51.6098 36.71C51.8398 36.78 52.2098 36.74 52.2098 37.04C53.2898 37.6 54.7798 37.78 56.4298 37.82C56.4198 38.32 57.2598 38.02 57.3098 38.47C56.3498 39.11 55.5098 39.89 54.7898 40.79C54.4498 41.89 53.6398 42.49 53.1698 43.45C52.7098 43.9 51.6098 43.65 50.7298 43.66C47.9198 42.75 44.9698 41.97 41.3998 41.77C41.1998 41.77 40.9998 41.75 40.7998 41.75C38.5198 41.18 33.9098 40.82 31.9998 41.7C31.9198 41.93 31.7298 42.04 31.3798 41.98C30.9298 42.13 29.8298 41.56 29.8498 42.22C29.3798 42.56 29.0798 43.07 28.2998 43.07C25.8898 42.78 25.5798 44.75 23.6698 45.01C21.9398 46.09 20.4598 47.43 18.0898 47.82C17.3898 48.12 16.7298 48.46 16.2198 48.96C15.6798 49.21 15.2498 49.6 14.9598 50.12C13.3198 52.14 11.9798 54.48 10.7398 56.93C10.0798 56.86 10.5598 58 10.3798 58.43C10.2998 58.66 10.3498 59.03 10.0498 59.02C9.54984 59.95 9.36984 61.24 9.29984 62.63C9.23984 62.99 9.31984 63.49 8.95984 63.53C7.14984 68.17 7.14984 75.49 8.26984 80.5C8.32984 80.52 8.34984 80.53 8.39984 80.55C8.41984 80.71 8.43984 80.86 8.45984 81.02C8.29984 81.21 8.09984 81.44 8.22984 81.71C8.39984 82.82 8.23984 84.23 8.69984 85.07C9.13984 85.35 9.09984 86.06 9.23984 86.61C9.23984 87.09 9.04984 87.76 9.48984 87.84C10.3298 89.21 10.7698 90.94 11.4298 92.47C13.8298 95.41 16.3098 98.28 19.2898 100.68C20.0598 100.75 20.3298 101.28 20.7698 101.65C20.9698 102.34 22.4598 101.84 23.1798 102.05C23.9498 102.11 24.6198 102.28 24.9698 102.73C25.0698 103.41 26.5798 102.81 26.7598 103.41C27.5598 103.65 28.2798 103.95 28.8398 104.41C28.9198 104.83 29.5898 104.69 30.0398 104.76C30.3898 104.82 30.8998 104.74 30.9398 105.1C31.0398 105.79 32.5498 105.18 32.7298 105.78C34.2698 106.11 35.3598 106.85 36.6098 107.45C37.5398 108.05 38.9698 108.2 40.5298 108.22C40.8298 108.23 41.1298 108.24 41.4398 108.25C42.1698 108.1 43.6198 108.72 43.8798 108.04C44.1698 108.04 44.4698 108.04 44.7898 108.08C46.2198 108.77 48.9898 108.22 50.5598 108.01C50.9898 107.42 51.9298 107.39 52.7198 107.19C52.7698 107.04 52.8598 106.93 52.9398 106.82C52.8498 106.93 52.7698 107.04 52.7198 107.19C53.0498 106.5 54.3898 106.89 54.8798 106.36C55.9198 105.38 57.4798 104.96 58.9098 104.4C59.4798 104.07 59.9698 103.65 60.4698 103.25C60.5498 103.02 60.7398 102.91 61.0898 102.97C63.9498 102.48 66.2598 101.4 67.9098 99.6C67.9298 99.41 67.9698 99.24 68.2198 99.31C68.7598 99.06 69.1898 98.67 69.4798 98.15C70.2898 97.44 70.6698 96.28 71.4098 95.49C72.1198 94.79 72.7498 93.99 73.3298 93.14C74.0998 91.12 75.6298 89.83 76.9798 88.25C78.3698 86.62 78.9398 84 80.4398 82.51C81.1498 81.8 81.7798 81.01 82.3598 80.16C83.4798 78.95 82.5598 80.61 82.5998 81.69M83.5198 73.84C83.4598 74.4 83.2798 74.85 82.8698 75.03C82.4498 75.11 82.5898 75.78 82.5198 76.23C82.4998 77.15 82.1798 77.76 81.5398 78.01C80.7298 78.82 80.0498 79.77 79.3098 80.65C79.2498 81.21 79.0698 81.65 78.6598 81.84C77.0498 79.27 79.0398 75.1 77.8298 72.4C77.4798 72.34 77.5198 71.91 77.5598 71.48C77.4098 70.45 78.0598 68.68 77.3898 68.13C77.1598 68.06 77.0498 67.86 77.1098 67.51C76.8898 66.53 77.6198 66.59 77.7798 66.02C78.2298 65.98 78.0898 65.3 78.1298 64.82C78.2598 64.12 78.4898 63.53 79.0998 63.34C79.6598 63.32 79.3298 62.32 79.7498 62.15C79.8298 61.91 79.7798 61.55 80.0798 61.55C80.2798 61.55 80.4798 61.57 80.6898 61.58C81.7198 63.94 83.0498 66.02 83.7398 68.69C83.6698 70.41 83.5998 72.12 83.5298 73.84" fill="#506219"/>
<path fill-rule="evenodd" clip-rule="evenodd" d="M25.15 82.89C25.21 83.33 26.21 83.45 25.68 83.94C25.66 84.76 26.71 86.84 27.39 87.3C27.44 87.94 28.57 87.87 28.44 87.3C28.74 87.16 28.85 86.97 28.96 86.77C29.03 86.74 29.1 86.7 29.17 86.66C28.13 86.33 27.62 85.16 27.31 84.21C27.14 83.7 27.1 83.21 26.99 82.7C26.86 82.1 26.39 81.62 26.29 80.99C26.6 80.81 27.02 80.8 27.36 80.67C27.67 80.56 28.26 80.17 28.58 80.19C29 80.22 29.25 80.75 29.44 81.05C29.67 81.42 29.91 81.64 30.19 81.92C30.5 82.23 30.56 83.28 31.04 83.07C31.51 83.07 31.8 83.61 32.2 83.8C32.22 84.21 33.36 83.63 33.04 83.37C32.96 83.11 33.11 82.93 33.25 82.74C33.08 82.37 32.87 82.11 32.61 82.01C32.09 82.18 31.9 81.31 31.45 81.28C31.19 81.37 31.05 81.07 30.92 80.76C31.31 80.68 30.68 79.44 30.39 79.71C30.16 79.91 30.33 77.55 30.35 77.43C30.47 76.72 30.47 76.18 30.23 75.6C30.14 75.38 30.02 75.16 29.87 74.93C29.02 74.28 22.73 76.15 23.01 78.35C23.09 78.96 23.53 79.54 23.81 80.07C24.29 81 24.7 81.97 25.16 82.9M28.71 78.16C28.6 78.5 27.21 79.34 26.37 79.63C26.05 79.74 25.82 79.76 25.75 79.66C25.44 79.21 25.2 78.69 24.97 78.18C25.64 77.8 29.56 75.54 28.71 78.16Z" fill="#506219"/>
<path fill-rule="evenodd" clip-rule="evenodd" d="M33.6997 77.77C33.4097 77.97 33.7697 78.37 33.9197 78.72C34.0197 79.57 34.4797 81.44 34.3897 82.23C33.9697 82.25 34.5497 83.4 34.8197 83.07C35.0797 82.99 35.2597 83.14 35.4497 83.28C35.7397 83.14 35.8597 82.95 35.9697 82.75C36.3297 82.34 36.4497 81.86 35.9697 81.17C35.8797 80.91 35.3897 79.61 35.6197 79.45C34.7597 78.08 37.3897 77.05 38.5497 76.9C38.8097 76.81 38.9497 77.12 39.0797 77.42C39.3897 77.73 39.4497 78.78 39.9297 78.57C41.0697 78.85 41.6297 80.88 43.1997 79.81C43.0797 79.53 43.3197 79.38 43.0897 79.07C42.5397 78.07 41.5697 78.37 40.9697 77.51C40.7797 77.55 40.6397 77.46 40.5497 77.2C40.2397 76.89 40.1797 75.84 39.6997 76.05C39.3897 75.74 39.3297 74.69 38.8497 74.9C38.5397 74.95 38.2797 74.84 38.1097 74.48C37.9197 74.18 37.7897 73.67 37.4697 73.75C36.2497 73.01 35.5297 71.51 34.2197 71.07C34.1897 71 34.1497 70.93 34.1097 70.86C33.4897 71.12 32.9497 71.42 33.3797 72.02C33.4197 72.2 33.5797 72.43 33.3797 72.54C33.0897 72.74 32.9997 73.75 33.1497 74.09C33.2397 74.35 33.4897 74.66 33.2597 74.82C32.7897 75.02 33.5397 75.61 33.5797 75.98C33.9397 76.68 33.8497 77.24 33.6997 77.77ZM35.1297 73.42C35.3397 73.32 35.5197 73.7 35.6497 73.83C35.9897 74.13 35.9997 74.31 36.5097 74.67C36.9797 74.99 36.9797 75 37.1797 75.3C36.3997 75.9 35.8197 75.76 35.0697 76.28C35.0297 76.21 34.9997 76.14 34.9597 76.07C35.2997 75.46 34.4097 73.69 35.1397 73.42" fill="#506219"/>
<path fill-rule="evenodd" clip-rule="evenodd" d="M41.3698 72.12C41.6398 72.36 41.6798 73.33 42.1098 73.06C42.8298 73.54 43.5498 74.02 44.1198 74.94C44.5398 75.62 44.9498 76.32 45.4998 76.61C45.9298 76.71 46.2198 77.25 46.6598 77.34C47.0698 77.74 48.0598 76.89 47.4898 76.39C47.3998 76.13 47.1498 75.81 47.3798 75.65C47.8298 75.39 47.0198 74.72 46.9498 74.29C46.9098 74.1 46.7498 73.87 46.9498 73.76C47.2398 73.56 46.8798 73.16 46.7298 72.81C46.6398 72.55 46.3998 72.23 46.6198 72.07C46.9898 71.84 46.3898 71.29 46.6198 71.02C46.4498 70.62 46.3998 70.25 46.6198 69.97C46.7998 69.62 46.9298 67.57 46.9998 67.19C46.8898 66.98 46.7898 66.77 46.6798 66.56C46.4098 66.12 45.9198 66.38 45.4198 66.67C45.4698 67.04 45.2098 68.98 45.2498 69.35C45.0798 69.76 45.3398 70.31 45.1498 70.72C45.3298 71.3 45.3498 71.83 45.1598 72.3C44.7298 72.63 45.7798 73.43 45.0598 73.67C44.9298 73.53 44.8498 73.26 44.6398 73.35C44.1198 73.17 43.6198 72.91 43.2598 72.2C42.5798 71.25 41.2298 69.51 40.3998 69.01C39.8598 69.05 39.4498 68.69 38.8198 69.01C38.7498 69.05 38.6798 69.08 38.6098 69.12C38.4898 70.22 40.9098 70.97 41.3698 72.1" fill="#506219"/>
<path fill-rule="evenodd" clip-rule="evenodd" d="M57.2998 91.37C57.2598 91.29 56.9698 91.48 57.0298 91.55C56.9198 91.67 56.6198 91.69 56.5098 91.96C56.4198 92.02 56.3298 92.08 56.2398 92.14C56.1498 92.19 56.0698 92.21 55.9998 92.17C55.8098 92.18 55.5898 92.37 55.3898 92.44C55.3498 92.45 55.2998 92.5 55.2698 92.45C55.0998 92.45 54.6598 92.75 54.5798 92.91C54.6198 93.01 54.4998 93.08 54.6398 93.2C55.4598 94.31 55.6698 95.51 56.6598 96.53C56.6698 96.57 56.7198 96.62 56.6798 96.65C56.5798 96.67 56.7498 96.91 56.7998 96.83C57.2298 96.78 57.6998 96.53 58.1098 96.62C58.3298 96.59 58.5798 96.4 58.7898 96.36C58.8698 96.42 58.9098 96.66 59.0198 96.6C59.0198 96.61 59.0398 96.63 59.0498 96.65C59.0498 96.89 59.3398 97.18 59.2998 97.41C59.0798 97.55 58.8698 97.69 58.8098 97.87C58.8498 97.93 58.7198 98.01 58.6698 97.96C58.5798 97.87 58.4298 98.09 58.3198 98.13C58.2598 98.16 58.1998 98.22 58.1498 98.18C57.9998 98.17 56.2398 99.67 56.2298 99.66C56.1898 99.86 56.0998 100.06 55.8798 100.22C55.8198 100.3 55.5698 100.34 55.6398 100.45C55.6298 100.46 55.6098 100.47 55.5998 100.48C55.5298 100.43 55.4998 100.21 55.3998 100.28C55.3198 100.22 55.2798 99.98 55.1698 100.04C55.0998 100.06 55.0398 100.04 54.9898 99.96C54.9598 99.91 54.9298 99.87 54.8998 99.82C54.9498 99.78 55.0298 99.74 55.0098 99.68C54.9898 99.61 55.0098 99.55 55.0898 99.5C55.1698 99.33 55.2298 99.16 55.2698 98.98C55.2598 98.9 55.3098 98.83 55.3898 98.77C55.4598 98.72 55.5798 98.68 55.5398 98.6C55.5098 98.54 55.5798 98.5 55.6498 98.46C55.6798 98.37 55.7398 98.29 55.7398 98.2C55.7298 98.12 55.9098 98.08 55.8598 97.99C55.9698 97.75 55.9098 97.6 55.6198 97.53C55.5098 97.4 55.4298 97.12 55.2898 97.12C55.3098 97.14 55.3198 97.16 55.3398 97.18C55.3298 97.16 55.3098 97.14 55.2898 97.12C55.0398 97.11 55.0198 96.89 54.8498 96.76C54.8098 96.7 54.7698 96.64 54.7298 96.58C54.7098 96.55 54.6898 96.52 54.6698 96.49C54.3298 96 53.9598 95.71 53.5898 95.37C53.5498 95.38 53.5098 95.37 53.4798 95.31C53.4398 95.25 53.3998 95.19 53.3598 95.13C53.3398 95.1 53.3198 95.07 53.2998 95.04C53.0898 94.78 52.8898 94.46 52.6598 94.28C52.6298 94.3 52.5998 94.31 52.5798 94.27C52.1398 94.54 51.6498 95.14 51.1098 95.52C51.1198 95.56 51.1098 95.6 51.0498 95.63C50.7898 95.91 50.2698 96.13 50.1398 96.44C50.1798 96.5 50.0498 96.58 49.9998 96.53C49.9798 96.43 49.7398 96.6 49.8198 96.65C49.8498 96.71 49.7798 96.75 49.7098 96.79C49.6198 96.89 49.3398 96.95 49.3698 97.08C49.3798 97.12 49.3698 97.16 49.3098 97.19C49.2598 97.26 49.0398 97.29 49.1098 97.39C49.1098 97.38 49.1298 97.37 49.1498 97.36C49.1298 97.37 49.1198 97.38 49.1098 97.39C49.0498 97.43 48.9898 97.47 48.9298 97.51C48.8098 97.59 48.6898 97.67 48.5698 97.75C48.3498 97.61 48.2298 97.27 48.3098 97.07C48.2898 97.09 48.2798 97.11 48.2598 97.14C48.2698 97.12 48.2898 97.09 48.3098 97.07C48.2998 97.03 48.3098 96.99 48.3698 96.96C48.3998 96.87 48.4598 96.79 48.4598 96.7C48.4398 96.63 48.4598 96.57 48.5398 96.52C48.6998 96.35 48.6198 96.14 48.7598 95.98C49.3198 95.31 49.4698 94.33 50.0498 93.66C50.0398 93.58 50.2198 93.54 50.1698 93.45C50.1398 93.34 50.2098 93.25 50.3098 93.16C50.3398 93.08 50.3998 92.99 50.3998 92.9C50.3898 92.82 50.4398 92.75 50.5198 92.69C50.5898 92.64 50.7098 92.6 50.6698 92.52C50.6598 92.23 51.0798 92.02 51.0698 91.73C51.0598 91.72 51.0498 91.7 51.0398 91.68C51.0198 91.65 50.9998 91.62 50.9798 91.59C50.7198 91.12 50.4098 90.89 50.1398 90.43C50.1298 90.32 49.8998 90.37 50.0198 90.25C50.0798 90.12 49.8298 89.92 49.7598 89.76C49.7298 89.7 49.6598 89.64 49.7098 89.59C49.7598 89.44 49.4898 89.23 49.4198 89.06C49.4498 88.98 49.4298 88.88 49.4398 88.79C49.4698 88.67 49.2898 88.5 49.3598 88.38C49.3198 88.11 49.1398 87.81 49.2798 87.57C49.2998 87.43 49.4098 87.31 49.4798 87.18C49.4498 87.12 49.4798 87.07 49.5098 87.03C49.5098 86.92 49.5598 86.83 49.7198 86.75C49.7498 86.74 49.7698 86.72 49.7998 86.7C49.7598 86.7 49.7198 86.7 49.6798 86.72C49.7198 86.72 49.7598 86.71 49.7998 86.7C49.8198 86.7 49.8398 86.7 49.8898 86.7C49.8898 86.72 49.9098 86.73 49.9198 86.75C49.9998 86.68 50.0498 86.75 50.1198 86.75C50.2298 86.72 50.3198 86.79 50.4098 86.89C50.5098 86.89 50.5898 87.01 50.6998 87.03C50.7598 87 50.7998 87.07 50.8398 87.14C50.9698 87.2 51.1098 87.21 51.2498 87.26C51.2798 87.26 51.3098 87.26 51.3298 87.27C51.3798 87.3 51.4298 87.34 51.4598 87.38C51.5498 87.46 51.5998 87.72 51.7198 87.67C51.7098 87.67 51.6998 87.65 51.6898 87.63C51.6998 87.65 51.7098 87.66 51.7198 87.67C51.8798 87.81 52.2598 87.86 52.2698 88.1C52.2198 88.25 52.4898 88.46 52.5598 88.63C52.5898 88.68 52.6198 88.72 52.6498 88.77C52.8298 88.98 52.9698 89.39 53.1798 89.47C53.2798 89.64 53.2298 89.69 53.3898 89.79C53.5198 89.89 53.6898 89.74 53.8498 89.68C54.0098 89.63 54.1598 89.58 54.2898 89.65C54.3498 89.7 54.4298 89.61 54.4998 89.58C55.5598 89.03 58.6198 89.4 59.6898 89.74C59.7998 89.89 59.9498 90.06 59.6898 90.14C59.6498 90.15 59.5998 90.2 59.5698 90.16C59.3798 90.1 59.3498 90.4 59.1098 90.46C59.0498 90.49 58.9898 90.55 58.9398 90.51C58.5598 90.72 58.1198 91.02 57.6298 91.32C57.5098 91.39 57.3898 91.44 57.2998 91.41" fill="#506219"/>
</g>
</g>
<defs>
<clipPath id="clip0_102_498">
<rect width="154.12" height="115.3" fill="white"/>
</clipPath>
</defs>
</svg>
